<svg xmlns="http://www.w3.org/2000/svg" viewBox="0 0 500 500"><g id="freepik--background-simple--inject-21"><path d="M390,153.76s-53.46-50.39-146.26-59c-33.57-3.11-66.9,14-94.16,31.72C117.15,147.6,88,174,62.1,202.66,35.68,231.84,14,264.7,11.43,305.08c-2.58,41.27,15,84,45.26,112.11a135.28,135.28,0,0,0,44.47,27.25c96.48,36.26,182.52.62,234.75,0s124.14,8,150.56-103.24S390,153.76,390,153.76Z" style="fill:#25FFEB"></path><path d="M390,153.76s-53.46-50.39-146.26-59c-33.57-3.11-66.9,14-94.16,31.72C117.15,147.6,88,174,62.1,202.66,35.68,231.84,14,264.7,11.43,305.08c-2.58,41.27,15,84,45.26,112.11a135.28,135.28,0,0,0,44.47,27.25c96.48,36.26,182.52.62,234.75,0s124.14,8,150.56-103.24S390,153.76,390,153.76Z" style="fill:#fff;opacity:0.7000000000000001"></path></g><g id="freepik--Glasses--inject-21"><g style="opacity:0.30000000000000004"><path d="M402,132.94c-.15-.23-3.7-.61-6-.61a19.42,19.42,0,0,0-6,.91,5.65,5.65,0,0,1-4.37,0,19.42,19.42,0,0,0-6-.91c-2.26,0-5.81.38-6,.61s-.76,2.11-.38,2.49a5.31,5.31,0,0,1,.75,1.58s.53,3.55,3.63,4.31,6-.08,6.72-.68,2.11-4.08,2.41-4.53a1.18,1.18,0,0,1,.91-.61h.15a1.18,1.18,0,0,1,.91.61c.3.45,1.66,3.92,2.41,4.53s3.63,1.43,6.72.68,3.63-4.31,3.63-4.31a5.31,5.31,0,0,1,.75-1.58C402.74,135.05,402.13,133.16,402,132.94ZM385.52,136a5.39,5.39,0,0,1-2,3.85,5.89,5.89,0,0,1-4.23,1.06,4.19,4.19,0,0,1-3.7-2.79c-.23-1.14-.61-3.48.3-4.31a2.87,2.87,0,0,1,2.11-.68,36.11,36.11,0,0,1,6.27.53C385.6,134.07,385.6,134.52,385.52,136Zm14.65,2.12a4.19,4.19,0,0,1-3.7,2.79,5.89,5.89,0,0,1-4.23-1.06,5.39,5.39,0,0,1-2-3.85c-.08-1.51-.08-2,1.28-2.34a36.11,36.11,0,0,1,6.27-.53,2.87,2.87,0,0,1,2.11.68C400.78,134.67,400.4,137,400.17,138.15Z"></path><path d="M438.82,133.73a1.64,1.64,0,0,0-.41-.24,17.73,17.73,0,0,0-8.45-.71,6.17,6.17,0,0,0-3.25,1.67l.07-.19a1.45,1.45,0,0,0-.77-.47l-1.87,0c-.3,0-.69.32-.9.5a6.34,6.34,0,0,0-3.08-1.61,17.64,17.64,0,0,0-8.47.49,1.83,1.83,0,0,0-.42.24,4.47,4.47,0,0,0-.11,1.38c0,.39.27.15.41.47a14,14,0,0,0,1.4,4.81c.81,1.38,3.13,2.36,5.28,2.13a5.55,5.55,0,0,0,4.48-2.86,16.88,16.88,0,0,0,1.19-3.8A1.42,1.42,0,0,1,425,135a1.91,1.91,0,0,1,1.18.47.14.14,0,0,0,0,.06,16.86,16.86,0,0,0,1.09,3.86,5.53,5.53,0,0,0,4.41,3c2.14.29,4.49-.64,5.33-2a14.11,14.11,0,0,0,1.52-4.77c.15-.32.42-.07.42-.46A4.41,4.41,0,0,0,438.82,133.73Zm-16,2.89a5.2,5.2,0,0,1-5,4.77,4.64,4.64,0,0,1-4.94-4.6c0-2.3,2.33-3.74,5.05-3.7S422.82,134.33,422.79,136.62Zm14.41.47a4.65,4.65,0,0,1-5.06,4.48,5.19,5.19,0,0,1-4.91-4.89c0-2.3,2.3-3.44,5-3.41S437.23,134.8,437.2,137.09Z"></path><path d="M402,154.1c-.15-.23-3.7-.6-6-.6a19.44,19.44,0,0,0-6,.9,5.65,5.65,0,0,1-4.37,0,19.44,19.44,0,0,0-6-.9c-2.26,0-5.81.37-6,.6s-.76,2.12-.38,2.49a5.45,5.45,0,0,1,.75,1.59s.53,3.55,3.63,4.3,6-.07,6.72-.68,2.11-4.07,2.41-4.53a1.17,1.17,0,0,1,.91-.6l.07,0,.08,0a1.17,1.17,0,0,1,.91.6c.3.46,1.66,3.93,2.41,4.53s3.63,1.44,6.72.68,3.63-4.3,3.63-4.3a5.45,5.45,0,0,1,.75-1.59C402.74,156.22,402.13,154.33,402,154.1Zm-16.46,3.1a5.41,5.41,0,0,1-2,3.85,5.89,5.89,0,0,1-4.23,1,4.19,4.19,0,0,1-3.7-2.79c-.23-1.13-.61-3.47.3-4.3a2.87,2.87,0,0,1,2.11-.68,36.11,36.11,0,0,1,6.27.53C385.6,155.23,385.6,155.69,385.52,157.2Zm14.65,2.11a4.19,4.19,0,0,1-3.7,2.79,5.89,5.89,0,0,1-4.23-1,5.41,5.41,0,0,1-2-3.85c-.08-1.51-.08-2,1.28-2.34a36.11,36.11,0,0,1,6.27-.53,2.87,2.87,0,0,1,2.11.68C400.78,155.84,400.4,158.18,400.17,159.31Z"></path><path d="M438.82,154.9a1.8,1.8,0,0,0-.41-.25A17.72,17.72,0,0,0,430,154a6.17,6.17,0,0,0-3.25,1.67l.07-.19A1.45,1.45,0,0,0,426,155l-1.87,0a1.81,1.81,0,0,0-.9.51,6.44,6.44,0,0,0-3.08-1.62,17.89,17.89,0,0,0-8.47.49,1.83,1.83,0,0,0-.42.24,4.54,4.54,0,0,0-.11,1.39c0,.39.27.15.41.46a13.93,13.93,0,0,0,1.4,4.81c.81,1.38,3.13,2.37,5.28,2.13a5.52,5.52,0,0,0,4.48-2.85,17,17,0,0,0,1.19-3.8,1.36,1.36,0,0,1,1.05-.53,1.91,1.91,0,0,1,1.18.47.14.14,0,0,0,0,.06,16.83,16.83,0,0,0,1.09,3.85,5.51,5.51,0,0,0,4.41,3c2.14.29,4.49-.64,5.33-2a14.07,14.07,0,0,0,1.52-4.78c.15-.31.42-.06.42-.45A4.39,4.39,0,0,0,438.82,154.9Zm-16,2.89a5.21,5.21,0,0,1-5,4.77,4.65,4.65,0,0,1-4.94-4.61c0-2.29,2.33-3.73,5.05-3.7S422.82,155.49,422.79,157.79Zm14.41.47a4.65,4.65,0,0,1-5.06,4.48,5.2,5.2,0,0,1-4.91-4.9c0-2.29,2.3-3.44,5-3.4S437.23,156,437.2,158.26Z"></path><path d="M402,175.27c-.15-.23-3.7-.61-6-.61a19.42,19.42,0,0,0-6,.91,5.65,5.65,0,0,1-4.37,0,19.42,19.42,0,0,0-6-.91c-2.26,0-5.81.38-6,.61s-.76,2.11-.38,2.49a5.42,5.42,0,0,1,.75,1.58s.53,3.55,3.63,4.31,6-.08,6.72-.68,2.11-4.08,2.41-4.53a1.21,1.21,0,0,1,.91-.61h.15a1.21,1.21,0,0,1,.91.61c.3.45,1.66,3.92,2.41,4.53s3.63,1.43,6.72.68,3.63-4.31,3.63-4.31a5.42,5.42,0,0,1,.75-1.58C402.74,177.38,402.13,175.49,402,175.27Zm-16.46,3.09a5.39,5.39,0,0,1-2,3.85,5.89,5.89,0,0,1-4.23,1.06,4.19,4.19,0,0,1-3.7-2.79c-.23-1.14-.61-3.48.3-4.31a2.87,2.87,0,0,1,2.11-.68,36.11,36.11,0,0,1,6.27.53C385.6,176.4,385.6,176.85,385.52,178.36Zm14.65,2.12a4.19,4.19,0,0,1-3.7,2.79,5.89,5.89,0,0,1-4.23-1.06,5.39,5.39,0,0,1-2-3.85c-.08-1.51-.08-2,1.28-2.34a36.11,36.11,0,0,1,6.27-.53,2.87,2.87,0,0,1,2.11.68C400.78,177,400.4,179.34,400.17,180.48Z"></path><path d="M438.82,176.07a1.48,1.48,0,0,0-.41-.25,17.73,17.73,0,0,0-8.45-.71,6.25,6.25,0,0,0-3.25,1.67l.07-.19a1.45,1.45,0,0,0-.77-.47l-1.87,0a1.8,1.8,0,0,0-.9.5,6.43,6.43,0,0,0-3.08-1.61,17.64,17.64,0,0,0-8.47.49,1.83,1.83,0,0,0-.42.24,4.47,4.47,0,0,0-.11,1.38c0,.39.27.15.41.47a14,14,0,0,0,1.4,4.81c.81,1.38,3.13,2.36,5.28,2.13a5.5,5.5,0,0,0,4.48-2.86,16.88,16.88,0,0,0,1.19-3.8,1.38,1.38,0,0,1,1.05-.52,1.8,1.8,0,0,1,1.18.47.08.08,0,0,0,0,0,16.86,16.86,0,0,0,1.09,3.86,5.53,5.53,0,0,0,4.41,3c2.14.29,4.49-.64,5.33-2a14,14,0,0,0,1.52-4.77c.15-.31.42-.07.42-.46A4.32,4.32,0,0,0,438.82,176.07Zm-16,2.88a5.19,5.19,0,0,1-5,4.77,4.64,4.64,0,0,1-4.94-4.6c0-2.29,2.33-3.73,5.05-3.7S422.82,176.66,422.79,179Zm14.41.48a4.64,4.64,0,0,1-5.06,4.47,5.19,5.19,0,0,1-4.91-4.89c0-2.29,2.3-3.44,5-3.41S437.23,177.13,437.2,179.43Z"></path><path d="M402,196.43a26,26,0,0,0-6-.6,19.75,19.75,0,0,0-6,.9,5.65,5.65,0,0,1-4.37,0,19.75,19.75,0,0,0-6-.9,26,26,0,0,0-6,.6c-.16.23-.76,2.12-.38,2.49a5.45,5.45,0,0,1,.75,1.59s.53,3.55,3.63,4.3,6-.07,6.72-.68,2.11-4.07,2.41-4.53a1.19,1.19,0,0,1,.91-.6l.07,0,.08,0a1.19,1.19,0,0,1,.91.6c.3.46,1.66,3.93,2.41,4.53s3.63,1.44,6.72.68,3.63-4.3,3.63-4.3a5.45,5.45,0,0,1,.75-1.59C402.74,198.55,402.13,196.66,402,196.43Zm-16.46,3.1a5.41,5.41,0,0,1-2,3.85,5.94,5.94,0,0,1-4.23,1.06,4.18,4.18,0,0,1-3.7-2.8c-.23-1.13-.61-3.47.3-4.3a2.87,2.87,0,0,1,2.11-.68,36.11,36.11,0,0,1,6.27.53C385.6,197.57,385.6,198,385.52,199.53Zm14.65,2.11a4.18,4.18,0,0,1-3.7,2.8,5.94,5.94,0,0,1-4.23-1.06,5.41,5.41,0,0,1-2-3.85c-.08-1.51-.08-2,1.28-2.34a36.11,36.11,0,0,1,6.27-.53,2.87,2.87,0,0,1,2.11.68C400.78,198.17,400.4,200.51,400.17,201.64Z"></path><path d="M438.82,197.23a1.8,1.8,0,0,0-.41-.25,17.72,17.72,0,0,0-8.45-.7,6.17,6.17,0,0,0-3.25,1.67l.07-.19a1.45,1.45,0,0,0-.77-.47l-1.87,0c-.3,0-.69.32-.9.5a6.44,6.44,0,0,0-3.08-1.62,17.77,17.77,0,0,0-8.47.5,1.67,1.67,0,0,0-.42.23,4.54,4.54,0,0,0-.11,1.39c0,.39.27.15.41.47a14,14,0,0,0,1.4,4.81c.81,1.37,3.13,2.36,5.28,2.12a5.52,5.52,0,0,0,4.48-2.85,16.88,16.88,0,0,0,1.19-3.8,1.42,1.42,0,0,1,1.05-.53,1.91,1.91,0,0,1,1.18.47.14.14,0,0,0,0,.06,16.69,16.69,0,0,0,1.09,3.85,5.51,5.51,0,0,0,4.41,3c2.14.29,4.49-.64,5.33-2a14.11,14.11,0,0,0,1.52-4.77c.15-.32.42-.07.42-.46A4.39,4.39,0,0,0,438.82,197.23Zm-16,2.89a5.2,5.2,0,0,1-5,4.77,4.65,4.65,0,0,1-4.94-4.61c0-2.29,2.33-3.73,5.05-3.69S422.82,197.83,422.79,200.12Zm14.41.47a4.65,4.65,0,0,1-5.06,4.48,5.2,5.2,0,0,1-4.91-4.9c0-2.29,2.3-3.44,5-3.4S437.23,198.3,437.2,200.59Z"></path><path d="M402,217.6c-.15-.23-3.7-.61-6-.61a19.42,19.42,0,0,0-6,.91,5.65,5.65,0,0,1-4.37,0,19.42,19.42,0,0,0-6-.91c-2.26,0-5.81.38-6,.61s-.76,2.11-.38,2.49a5.45,5.45,0,0,1,.75,1.59s.53,3.54,3.63,4.3,6-.08,6.72-.68,2.11-4.08,2.41-4.53a1.17,1.17,0,0,1,.91-.6l.07,0,.08,0a1.17,1.17,0,0,1,.91.6c.3.45,1.66,3.93,2.41,4.53s3.63,1.43,6.72.68,3.63-4.3,3.63-4.3a5.45,5.45,0,0,1,.75-1.59C402.74,219.71,402.13,217.83,402,217.6Zm-16.46,3.09a5.39,5.39,0,0,1-2,3.85,5.89,5.89,0,0,1-4.23,1.06,4.19,4.19,0,0,1-3.7-2.79c-.23-1.13-.61-3.47.3-4.31a2.84,2.84,0,0,1,2.11-.67,37.08,37.08,0,0,1,6.27.52C385.6,218.73,385.6,219.18,385.52,220.69Zm14.65,2.12a4.19,4.19,0,0,1-3.7,2.79,5.89,5.89,0,0,1-4.23-1.06,5.39,5.39,0,0,1-2-3.85c-.08-1.51-.08-2,1.28-2.34a37.08,37.08,0,0,1,6.27-.52,2.84,2.84,0,0,1,2.11.67C400.78,219.34,400.4,221.68,400.17,222.81Z"></path><path d="M438.82,218.4a1.48,1.48,0,0,0-.41-.25,17.73,17.73,0,0,0-8.45-.71,6.25,6.25,0,0,0-3.25,1.67l.07-.18a1.43,1.43,0,0,0-.77-.48l-1.87,0a1.8,1.8,0,0,0-.9.5,6.51,6.51,0,0,0-3.08-1.61,17.76,17.76,0,0,0-8.47.49,1.83,1.83,0,0,0-.42.24,4.5,4.5,0,0,0-.11,1.38c0,.39.27.15.41.47a14,14,0,0,0,1.4,4.81c.81,1.38,3.13,2.36,5.28,2.13a5.5,5.5,0,0,0,4.48-2.86,16.88,16.88,0,0,0,1.19-3.8,1.38,1.38,0,0,1,1.05-.52,1.8,1.8,0,0,1,1.18.47s0,0,0,.05a16.86,16.86,0,0,0,1.09,3.86,5.53,5.53,0,0,0,4.41,3c2.14.29,4.49-.64,5.33-2a14,14,0,0,0,1.52-4.77c.15-.31.42-.07.42-.46A4.34,4.34,0,0,0,438.82,218.4Zm-16,2.88a5.19,5.19,0,0,1-5,4.77,4.64,4.64,0,0,1-4.94-4.6c0-2.29,2.33-3.73,5.05-3.7S422.82,219,422.79,221.28Zm14.41.48a4.64,4.64,0,0,1-5.06,4.47,5.19,5.19,0,0,1-4.91-4.89c0-2.29,2.3-3.44,5-3.41S437.23,219.47,437.2,221.76Z"></path><path d="M402,238.76a26,26,0,0,0-6-.6,19.42,19.42,0,0,0-6,.91,5.65,5.65,0,0,1-4.37,0,19.42,19.42,0,0,0-6-.91,26,26,0,0,0-6,.6c-.16.23-.76,2.12-.38,2.5a5.31,5.31,0,0,1,.75,1.58s.53,3.55,3.63,4.31,6-.08,6.72-.68,2.11-4.08,2.41-4.53a1.18,1.18,0,0,1,.91-.61h.15a1.18,1.18,0,0,1,.91.61c.3.45,1.66,3.92,2.41,4.53s3.63,1.43,6.72.68,3.63-4.31,3.63-4.31a5.31,5.31,0,0,1,.75-1.58C402.74,240.88,402.13,239,402,238.76Zm-16.46,3.1a5.39,5.39,0,0,1-2,3.85,5.89,5.89,0,0,1-4.23,1.06,4.18,4.18,0,0,1-3.7-2.8c-.23-1.13-.61-3.47.3-4.3A2.87,2.87,0,0,1,378,239a36.11,36.11,0,0,1,6.27.53C385.6,239.9,385.6,240.35,385.52,241.86ZM400.17,244a4.18,4.18,0,0,1-3.7,2.8,5.89,5.89,0,0,1-4.23-1.06,5.39,5.39,0,0,1-2-3.85c-.08-1.51-.08-2,1.28-2.34a36.11,36.11,0,0,1,6.27-.53,2.87,2.87,0,0,1,2.11.68C400.78,240.5,400.4,242.84,400.17,244Z"></path><path d="M438.82,239.56a1.8,1.8,0,0,0-.41-.25,17.85,17.85,0,0,0-8.45-.7,6.17,6.17,0,0,0-3.25,1.67l.07-.19a1.45,1.45,0,0,0-.77-.47l-1.87,0c-.3,0-.69.32-.9.5a6.34,6.34,0,0,0-3.08-1.61,17.64,17.64,0,0,0-8.47.49,1.83,1.83,0,0,0-.42.24,4.47,4.47,0,0,0-.11,1.38c0,.39.27.15.41.47a14,14,0,0,0,1.4,4.81c.81,1.37,3.13,2.36,5.28,2.13a5.55,5.55,0,0,0,4.48-2.86,16.88,16.88,0,0,0,1.19-3.8,1.42,1.42,0,0,1,1.05-.53,1.91,1.91,0,0,1,1.18.47.14.14,0,0,0,0,.06,16.86,16.86,0,0,0,1.09,3.86,5.52,5.52,0,0,0,4.41,3c2.14.29,4.49-.63,5.33-2a14.11,14.11,0,0,0,1.52-4.77c.15-.32.42-.07.42-.46A4.41,4.41,0,0,0,438.82,239.56Zm-16,2.89a5.2,5.2,0,0,1-5,4.77,4.64,4.64,0,0,1-4.94-4.6c0-2.3,2.33-3.74,5.05-3.7S422.82,240.16,422.79,242.45Zm14.41.47a4.65,4.65,0,0,1-5.06,4.48,5.19,5.19,0,0,1-4.91-4.89c0-2.3,2.3-3.45,5-3.41S437.23,240.63,437.2,242.92Z"></path><path d="M402,259.93c-.15-.23-3.7-.6-6-.6a19.44,19.44,0,0,0-6,.9,5.65,5.65,0,0,1-4.37,0,19.44,19.44,0,0,0-6-.9c-2.26,0-5.81.37-6,.6s-.76,2.11-.38,2.49a5.45,5.45,0,0,1,.75,1.59s.53,3.55,3.63,4.3,6-.07,6.72-.68,2.11-4.08,2.41-4.53a1.17,1.17,0,0,1,.91-.6l.07,0,.08,0a1.17,1.17,0,0,1,.91.6c.3.45,1.66,3.93,2.41,4.53s3.63,1.44,6.72.68,3.63-4.3,3.63-4.3a5.45,5.45,0,0,1,.75-1.59C402.74,262,402.13,260.16,402,259.93ZM385.52,263a5.41,5.41,0,0,1-2,3.85,5.94,5.94,0,0,1-4.23,1.05,4.19,4.19,0,0,1-3.7-2.79c-.23-1.13-.61-3.47.3-4.3a2.87,2.87,0,0,1,2.11-.68,36.11,36.11,0,0,1,6.27.53C385.6,261.06,385.6,261.52,385.52,263Zm14.65,2.11a4.19,4.19,0,0,1-3.7,2.79,5.94,5.94,0,0,1-4.23-1.05,5.41,5.41,0,0,1-2-3.85c-.08-1.51-.08-2,1.28-2.34a36.11,36.11,0,0,1,6.27-.53,2.87,2.87,0,0,1,2.11.68C400.78,261.67,400.4,264,400.17,265.14Z"></path><path d="M438.82,260.73a1.8,1.8,0,0,0-.41-.25,17.73,17.73,0,0,0-8.45-.71,6.19,6.19,0,0,0-3.25,1.68l.07-.19a1.38,1.38,0,0,0-.77-.47l-1.87,0a1.74,1.74,0,0,0-.9.51,6.44,6.44,0,0,0-3.08-1.62,17.76,17.76,0,0,0-8.47.49,1.83,1.83,0,0,0-.42.24,4.54,4.54,0,0,0-.11,1.39c0,.39.27.15.41.46A13.93,13.93,0,0,0,413,267c.81,1.38,3.13,2.37,5.28,2.13a5.5,5.5,0,0,0,4.48-2.86,16.88,16.88,0,0,0,1.19-3.8A1.38,1.38,0,0,1,425,262a1.86,1.86,0,0,1,1.18.47l0,.05a16.86,16.86,0,0,0,1.09,3.86,5.53,5.53,0,0,0,4.41,3c2.14.29,4.49-.64,5.33-2a14.07,14.07,0,0,0,1.52-4.78c.15-.31.42-.06.42-.45A4.39,4.39,0,0,0,438.82,260.73Zm-16,2.89a5.19,5.19,0,0,1-5,4.76,4.64,4.64,0,0,1-4.94-4.6c0-2.29,2.33-3.73,5.05-3.7S422.82,261.32,422.79,263.62Zm14.41.47a4.66,4.66,0,0,1-5.06,4.48,5.2,5.2,0,0,1-4.91-4.9c0-2.29,2.3-3.44,5-3.41S437.23,261.8,437.2,264.09Z"></path><path d="M320.62,132.94c-.15-.23-3.7-.61-6-.61a19.42,19.42,0,0,0-6,.91,9.27,9.27,0,0,1-2.19.44,9.36,9.36,0,0,1-2.19-.44,19.35,19.35,0,0,0-6-.91c-2.27,0-5.81.38-6,.61s-.76,2.11-.38,2.49a5.31,5.31,0,0,1,.75,1.58s.53,3.55,3.63,4.31,6-.08,6.72-.68,2.11-4.08,2.41-4.53a1.17,1.17,0,0,1,.91-.61h.15a1.18,1.18,0,0,1,.91.61c.3.45,1.66,3.92,2.41,4.53s3.63,1.43,6.72.68,3.63-4.31,3.63-4.31a5.31,5.31,0,0,1,.75-1.58C321.38,135.05,320.77,133.16,320.62,132.94ZM304.16,136a5.37,5.37,0,0,1-2,3.85,5.85,5.85,0,0,1-4.22,1.06,4.19,4.19,0,0,1-3.7-2.79c-.23-1.14-.61-3.48.3-4.31a2.87,2.87,0,0,1,2.11-.68,36.11,36.11,0,0,1,6.27.53C304.24,134.07,304.24,134.52,304.16,136Zm14.65,2.12a4.21,4.21,0,0,1-3.7,2.79,5.89,5.89,0,0,1-4.23-1.06,5.44,5.44,0,0,1-2-3.85c-.07-1.51-.07-2,1.29-2.34a36.08,36.08,0,0,1,6.26-.53,2.89,2.89,0,0,1,2.12.68C319.42,134.67,319,137,318.81,138.15Z"></path><path d="M357.46,133.73a1.64,1.64,0,0,0-.41-.24,17.73,17.73,0,0,0-8.45-.71,6.17,6.17,0,0,0-3.25,1.67l.07-.19a1.45,1.45,0,0,0-.77-.47l-1.87,0c-.3,0-.69.32-.9.5a6.34,6.34,0,0,0-3.08-1.61,17.64,17.64,0,0,0-8.47.49,1.83,1.83,0,0,0-.42.24,4.47,4.47,0,0,0-.11,1.38c0,.39.26.15.41.47a14,14,0,0,0,1.4,4.81c.81,1.38,3.13,2.36,5.28,2.13a5.55,5.55,0,0,0,4.48-2.86,16.21,16.21,0,0,0,1.18-3.8,1.47,1.47,0,0,1,1.06-.53,1.88,1.88,0,0,1,1.17.47s0,0,0,.06a16.86,16.86,0,0,0,1.09,3.86,5.51,5.51,0,0,0,4.41,3c2.14.29,4.49-.64,5.33-2a14.11,14.11,0,0,0,1.52-4.77c.15-.32.42-.07.42-.46A4.41,4.41,0,0,0,357.46,133.73Zm-16,2.89a5.2,5.2,0,0,1-5,4.77,4.64,4.64,0,0,1-4.94-4.6c0-2.3,2.33-3.74,5.05-3.7S341.46,134.33,341.43,136.62Zm14.41.47a4.65,4.65,0,0,1-5.06,4.48,5.19,5.19,0,0,1-4.91-4.89c0-2.3,2.3-3.44,5-3.41S355.87,134.8,355.84,137.09Z"></path><path d="M320.62,154.1c-.15-.23-3.7-.6-6-.6a19.44,19.44,0,0,0-6,.9,5.67,5.67,0,0,1-4.38,0,19.37,19.37,0,0,0-6-.9c-2.27,0-5.81.37-6,.6s-.76,2.12-.38,2.49a5.45,5.45,0,0,1,.75,1.59s.53,3.55,3.63,4.3,6-.07,6.72-.68,2.11-4.07,2.41-4.53a1.15,1.15,0,0,1,.91-.6l.07,0,.08,0a1.17,1.17,0,0,1,.91.6c.3.46,1.66,3.93,2.41,4.53s3.63,1.44,6.72.68,3.63-4.3,3.63-4.3a5.45,5.45,0,0,1,.75-1.59C321.38,156.22,320.77,154.33,320.62,154.1Zm-16.46,3.1a5.39,5.39,0,0,1-2,3.85,5.85,5.85,0,0,1-4.22,1,4.19,4.19,0,0,1-3.7-2.79c-.23-1.13-.61-3.47.3-4.3a2.87,2.87,0,0,1,2.11-.68,36.11,36.11,0,0,1,6.27.53C304.24,155.23,304.24,155.69,304.16,157.2Zm14.65,2.11a4.21,4.21,0,0,1-3.7,2.79,5.89,5.89,0,0,1-4.23-1,5.46,5.46,0,0,1-2-3.85c-.07-1.51-.07-2,1.29-2.34a36.08,36.08,0,0,1,6.26-.53,2.89,2.89,0,0,1,2.12.68C319.42,155.84,319,158.18,318.81,159.31Z"></path><path d="M357.46,154.9a1.8,1.8,0,0,0-.41-.25,17.72,17.72,0,0,0-8.45-.7,6.17,6.17,0,0,0-3.25,1.67l.07-.19a1.45,1.45,0,0,0-.77-.47l-1.87,0a1.81,1.81,0,0,0-.9.51,6.44,6.44,0,0,0-3.08-1.62,17.89,17.89,0,0,0-8.47.49,1.83,1.83,0,0,0-.42.24,4.54,4.54,0,0,0-.11,1.39c0,.39.26.15.41.46a13.93,13.93,0,0,0,1.4,4.81c.81,1.38,3.13,2.37,5.28,2.13a5.52,5.52,0,0,0,4.48-2.85,16.35,16.35,0,0,0,1.18-3.8,1.4,1.4,0,0,1,1.06-.53,1.88,1.88,0,0,1,1.17.47s0,0,0,.06a16.83,16.83,0,0,0,1.09,3.85,5.49,5.49,0,0,0,4.41,3c2.14.29,4.49-.64,5.33-2a14.07,14.07,0,0,0,1.52-4.78c.15-.31.42-.06.42-.45A4.39,4.39,0,0,0,357.46,154.9Zm-16,2.89a5.21,5.21,0,0,1-5,4.77,4.65,4.65,0,0,1-4.94-4.61c0-2.29,2.33-3.73,5.05-3.7S341.46,155.49,341.43,157.79Zm14.41.47a4.65,4.65,0,0,1-5.06,4.48,5.2,5.2,0,0,1-4.91-4.9c0-2.29,2.3-3.44,5-3.4S355.87,156,355.84,158.26Z"></path><path d="M320.62,175.27c-.15-.23-3.7-.61-6-.61a19.42,19.42,0,0,0-6,.91,9.27,9.27,0,0,1-2.19.44,9.36,9.36,0,0,1-2.19-.44,19.35,19.35,0,0,0-6-.91c-2.27,0-5.81.38-6,.61s-.76,2.11-.38,2.49a5.42,5.42,0,0,1,.75,1.58s.53,3.55,3.63,4.31,6-.08,6.72-.68,2.11-4.08,2.41-4.53a1.19,1.19,0,0,1,.91-.61h.15a1.21,1.21,0,0,1,.91.61c.3.45,1.66,3.92,2.41,4.53s3.63,1.43,6.72.68,3.63-4.31,3.63-4.31a5.42,5.42,0,0,1,.75-1.58C321.38,177.38,320.77,175.49,320.62,175.27Zm-16.46,3.09a5.37,5.37,0,0,1-2,3.85,5.85,5.85,0,0,1-4.22,1.06,4.19,4.19,0,0,1-3.7-2.79c-.23-1.14-.61-3.48.3-4.31a2.87,2.87,0,0,1,2.11-.68,36.11,36.11,0,0,1,6.27.53C304.24,176.4,304.24,176.85,304.16,178.36Zm14.65,2.12a4.21,4.21,0,0,1-3.7,2.79,5.89,5.89,0,0,1-4.23-1.06,5.44,5.44,0,0,1-2-3.85c-.07-1.51-.07-2,1.29-2.34a36.08,36.08,0,0,1,6.26-.53,2.89,2.89,0,0,1,2.12.68C319.42,177,319,179.34,318.81,180.48Z"></path><path d="M357.46,176.07a1.48,1.48,0,0,0-.41-.25,17.73,17.73,0,0,0-8.45-.71,6.25,6.25,0,0,0-3.25,1.67l.07-.19a1.45,1.45,0,0,0-.77-.47l-1.87,0a1.8,1.8,0,0,0-.9.5A6.43,6.43,0,0,0,338.8,175a17.64,17.64,0,0,0-8.47.49,1.83,1.83,0,0,0-.42.24,4.47,4.47,0,0,0-.11,1.38c0,.39.26.15.41.47a14,14,0,0,0,1.4,4.81c.81,1.38,3.13,2.36,5.28,2.13a5.5,5.5,0,0,0,4.48-2.86,16.21,16.21,0,0,0,1.18-3.8,1.42,1.42,0,0,1,1.06-.52,1.77,1.77,0,0,1,1.17.47.43.43,0,0,0,0,0,16.86,16.86,0,0,0,1.09,3.86,5.51,5.51,0,0,0,4.41,3c2.14.29,4.49-.64,5.33-2a14,14,0,0,0,1.52-4.77c.15-.31.42-.07.42-.46A4.32,4.32,0,0,0,357.46,176.07Zm-16,2.88a5.19,5.19,0,0,1-5,4.77,4.64,4.64,0,0,1-4.94-4.6c0-2.29,2.33-3.73,5.05-3.7S341.46,176.66,341.43,179Zm14.41.48a4.64,4.64,0,0,1-5.06,4.47,5.19,5.19,0,0,1-4.91-4.89c0-2.29,2.3-3.44,5-3.41S355.87,177.13,355.84,179.43Z"></path><path d="M320.62,196.43a26,26,0,0,0-6-.6,19.75,19.75,0,0,0-6,.9,5.67,5.67,0,0,1-4.38,0,19.68,19.68,0,0,0-6-.9,25.93,25.93,0,0,0-6,.6c-.16.23-.76,2.12-.38,2.49a5.45,5.45,0,0,1,.75,1.59s.53,3.55,3.63,4.3,6-.07,6.72-.68,2.11-4.07,2.41-4.53a1.18,1.18,0,0,1,.91-.6l.07,0,.08,0a1.19,1.19,0,0,1,.91.6c.3.46,1.66,3.93,2.41,4.53s3.63,1.44,6.72.68,3.63-4.3,3.63-4.3a5.45,5.45,0,0,1,.75-1.59C321.38,198.55,320.77,196.66,320.62,196.43Zm-16.46,3.1a5.39,5.39,0,0,1-2,3.85,5.9,5.9,0,0,1-4.22,1.06,4.18,4.18,0,0,1-3.7-2.8c-.23-1.13-.61-3.47.3-4.3a2.87,2.87,0,0,1,2.11-.68,36.11,36.11,0,0,1,6.27.53C304.24,197.57,304.24,198,304.16,199.53Zm14.65,2.11a4.21,4.21,0,0,1-3.7,2.8,5.94,5.94,0,0,1-4.23-1.06,5.46,5.46,0,0,1-2-3.85c-.07-1.51-.07-2,1.29-2.34a36.08,36.08,0,0,1,6.26-.53,2.89,2.89,0,0,1,2.12.68C319.42,198.17,319,200.51,318.81,201.64Z"></path><path d="M357.46,197.23a1.8,1.8,0,0,0-.41-.25,17.72,17.72,0,0,0-8.45-.7,6.17,6.17,0,0,0-3.25,1.67l.07-.19a1.45,1.45,0,0,0-.77-.47l-1.87,0c-.3,0-.69.32-.9.5a6.44,6.44,0,0,0-3.08-1.62,17.77,17.77,0,0,0-8.47.5,1.67,1.67,0,0,0-.42.23,4.54,4.54,0,0,0-.11,1.39c0,.39.26.15.41.47a14,14,0,0,0,1.4,4.81c.81,1.37,3.13,2.36,5.28,2.12a5.52,5.52,0,0,0,4.48-2.85,16.21,16.21,0,0,0,1.18-3.8,1.47,1.47,0,0,1,1.06-.53,1.88,1.88,0,0,1,1.17.47s0,0,0,.06a16.69,16.69,0,0,0,1.09,3.85,5.49,5.49,0,0,0,4.41,3c2.14.29,4.49-.64,5.33-2a14.11,14.11,0,0,0,1.52-4.77c.15-.32.42-.07.42-.46A4.39,4.39,0,0,0,357.46,197.23Zm-16,2.89a5.2,5.2,0,0,1-5,4.77,4.65,4.65,0,0,1-4.94-4.61c0-2.29,2.33-3.73,5.05-3.69S341.46,197.83,341.43,200.12Zm14.41.47a4.65,4.65,0,0,1-5.06,4.48,5.2,5.2,0,0,1-4.91-4.9c0-2.29,2.3-3.44,5-3.4S355.87,198.3,355.84,200.59Z"></path><path d="M320.62,217.6c-.15-.23-3.7-.61-6-.61a19.42,19.42,0,0,0-6,.91,5.67,5.67,0,0,1-4.38,0,19.35,19.35,0,0,0-6-.91c-2.27,0-5.81.38-6,.61s-.76,2.11-.38,2.49a5.45,5.45,0,0,1,.75,1.59s.53,3.54,3.63,4.3,6-.08,6.72-.68,2.11-4.08,2.41-4.53a1.15,1.15,0,0,1,.91-.6l.07,0,.08,0a1.17,1.17,0,0,1,.91.6c.3.45,1.66,3.93,2.41,4.53s3.63,1.43,6.72.68,3.63-4.3,3.63-4.3a5.45,5.45,0,0,1,.75-1.59C321.38,219.71,320.77,217.83,320.62,217.6Zm-16.46,3.09a5.37,5.37,0,0,1-2,3.85,5.85,5.85,0,0,1-4.22,1.06,4.19,4.19,0,0,1-3.7-2.79c-.23-1.13-.61-3.47.3-4.31a2.84,2.84,0,0,1,2.11-.67,37.08,37.08,0,0,1,6.27.52C304.24,218.73,304.24,219.18,304.16,220.69Zm14.65,2.12a4.21,4.21,0,0,1-3.7,2.79,5.89,5.89,0,0,1-4.23-1.06,5.44,5.44,0,0,1-2-3.85c-.07-1.51-.07-2,1.29-2.34a37,37,0,0,1,6.26-.52,2.86,2.86,0,0,1,2.12.67C319.42,219.34,319,221.68,318.81,222.81Z"></path><path d="M357.46,218.4a1.48,1.48,0,0,0-.41-.25,17.73,17.73,0,0,0-8.45-.71,6.25,6.25,0,0,0-3.25,1.67l.07-.18a1.43,1.43,0,0,0-.77-.48l-1.87,0a1.8,1.8,0,0,0-.9.5,6.51,6.51,0,0,0-3.08-1.61,17.76,17.76,0,0,0-8.47.49,1.83,1.83,0,0,0-.42.24,4.5,4.5,0,0,0-.11,1.38c0,.39.26.15.41.47a14,14,0,0,0,1.4,4.81c.81,1.38,3.13,2.36,5.28,2.13a5.5,5.5,0,0,0,4.48-2.86,16.21,16.21,0,0,0,1.18-3.8,1.42,1.42,0,0,1,1.06-.52,1.77,1.77,0,0,1,1.17.47s0,0,0,.05a16.86,16.86,0,0,0,1.09,3.86,5.51,5.51,0,0,0,4.41,3c2.14.29,4.49-.64,5.33-2a14,14,0,0,0,1.52-4.77c.15-.31.42-.07.42-.46A4.34,4.34,0,0,0,357.46,218.4Zm-16,2.88a5.19,5.19,0,0,1-5,4.77,4.64,4.64,0,0,1-4.94-4.6c0-2.29,2.33-3.73,5.05-3.7S341.46,219,341.43,221.28Zm14.41.48a4.64,4.64,0,0,1-5.06,4.47,5.19,5.19,0,0,1-4.91-4.89c0-2.29,2.3-3.44,5-3.41S355.87,219.47,355.84,221.76Z"></path><path d="M320.62,238.76a26,26,0,0,0-6-.6,19.42,19.42,0,0,0-6,.91,9.27,9.27,0,0,1-2.19.44,9.36,9.36,0,0,1-2.19-.44,19.35,19.35,0,0,0-6-.91,25.93,25.93,0,0,0-6,.6c-.16.23-.76,2.12-.38,2.5a5.31,5.31,0,0,1,.75,1.58s.53,3.55,3.63,4.31,6-.08,6.72-.68,2.11-4.08,2.41-4.53a1.17,1.17,0,0,1,.91-.61h.15a1.18,1.18,0,0,1,.91.61c.3.45,1.66,3.92,2.41,4.53s3.63,1.43,6.72.68,3.63-4.31,3.63-4.31a5.31,5.31,0,0,1,.75-1.58C321.38,240.88,320.77,239,320.62,238.76Zm-16.46,3.1a5.37,5.37,0,0,1-2,3.85,5.85,5.85,0,0,1-4.22,1.06,4.18,4.18,0,0,1-3.7-2.8c-.23-1.13-.61-3.47.3-4.3a2.87,2.87,0,0,1,2.11-.68,36.11,36.11,0,0,1,6.27.53C304.24,239.9,304.24,240.35,304.16,241.86ZM318.81,244a4.21,4.21,0,0,1-3.7,2.8,5.89,5.89,0,0,1-4.23-1.06,5.44,5.44,0,0,1-2-3.85c-.07-1.51-.07-2,1.29-2.34a36.08,36.08,0,0,1,6.26-.53,2.89,2.89,0,0,1,2.12.68C319.42,240.5,319,242.84,318.81,244Z"></path><path d="M357.46,239.56a1.8,1.8,0,0,0-.41-.25,17.85,17.85,0,0,0-8.45-.7,6.17,6.17,0,0,0-3.25,1.67l.07-.19a1.45,1.45,0,0,0-.77-.47l-1.87,0c-.3,0-.69.32-.9.5a6.34,6.34,0,0,0-3.08-1.61,17.64,17.64,0,0,0-8.47.49,1.83,1.83,0,0,0-.42.24,4.47,4.47,0,0,0-.11,1.38c0,.39.26.15.41.47a14,14,0,0,0,1.4,4.81c.81,1.37,3.13,2.36,5.28,2.13a5.55,5.55,0,0,0,4.48-2.86,16.21,16.21,0,0,0,1.18-3.8,1.47,1.47,0,0,1,1.06-.53,1.88,1.88,0,0,1,1.17.47s0,0,0,.06a16.86,16.86,0,0,0,1.09,3.86,5.51,5.51,0,0,0,4.41,3c2.14.29,4.49-.63,5.33-2a14.11,14.11,0,0,0,1.52-4.77c.15-.32.42-.07.42-.46A4.41,4.41,0,0,0,357.46,239.56Zm-16,2.89a5.2,5.2,0,0,1-5,4.77,4.64,4.64,0,0,1-4.94-4.6c0-2.3,2.33-3.74,5.05-3.7S341.46,240.16,341.43,242.45Zm14.41.47a4.65,4.65,0,0,1-5.06,4.48,5.19,5.19,0,0,1-4.91-4.89c0-2.3,2.3-3.45,5-3.41S355.87,240.63,355.84,242.92Z"></path><path d="M320.62,259.93c-.15-.23-3.7-.6-6-.6a19.44,19.44,0,0,0-6,.9,5.67,5.67,0,0,1-4.38,0,19.37,19.37,0,0,0-6-.9c-2.27,0-5.81.37-6,.6s-.76,2.11-.38,2.49a5.45,5.45,0,0,1,.75,1.59s.53,3.55,3.63,4.3,6-.07,6.72-.68,2.11-4.08,2.41-4.53a1.15,1.15,0,0,1,.91-.6l.07,0,.08,0a1.17,1.17,0,0,1,.91.6c.3.45,1.66,3.93,2.41,4.53s3.63,1.44,6.72.68,3.63-4.3,3.63-4.3a5.45,5.45,0,0,1,.75-1.59C321.38,262,320.77,260.16,320.62,259.93ZM304.16,263a5.39,5.39,0,0,1-2,3.85,5.9,5.9,0,0,1-4.22,1.05,4.19,4.19,0,0,1-3.7-2.79c-.23-1.13-.61-3.47.3-4.3a2.87,2.87,0,0,1,2.11-.68,36.11,36.11,0,0,1,6.27.53C304.24,261.06,304.24,261.52,304.16,263Zm14.65,2.11a4.21,4.21,0,0,1-3.7,2.79,5.94,5.94,0,0,1-4.23-1.05,5.46,5.46,0,0,1-2-3.85c-.07-1.51-.07-2,1.29-2.34a36.08,36.08,0,0,1,6.26-.53,2.89,2.89,0,0,1,2.12.68C319.42,261.67,319,264,318.81,265.14Z"></path><path d="M357.46,260.73a1.8,1.8,0,0,0-.41-.25,17.73,17.73,0,0,0-8.45-.71,6.19,6.19,0,0,0-3.25,1.68l.07-.19a1.38,1.38,0,0,0-.77-.47l-1.87,0a1.74,1.74,0,0,0-.9.51,6.44,6.44,0,0,0-3.08-1.62,17.76,17.76,0,0,0-8.47.49,1.83,1.83,0,0,0-.42.24,4.54,4.54,0,0,0-.11,1.39c0,.39.26.15.41.46a13.93,13.93,0,0,0,1.4,4.81c.81,1.38,3.13,2.37,5.28,2.13a5.5,5.5,0,0,0,4.48-2.86,16.21,16.21,0,0,0,1.18-3.8,1.42,1.42,0,0,1,1.06-.52,1.83,1.83,0,0,1,1.17.47.43.43,0,0,1,0,.05,16.86,16.86,0,0,0,1.09,3.86,5.51,5.51,0,0,0,4.41,3c2.14.29,4.49-.64,5.33-2a14.07,14.07,0,0,0,1.52-4.78c.15-.31.42-.06.42-.45A4.39,4.39,0,0,0,357.46,260.73Zm-16,2.89a5.19,5.19,0,0,1-5,4.76,4.64,4.64,0,0,1-4.94-4.6c0-2.29,2.33-3.73,5.05-3.7S341.46,261.32,341.43,263.62Zm14.41.47a4.66,4.66,0,0,1-5.06,4.48,5.2,5.2,0,0,1-4.91-4.9c0-2.29,2.3-3.44,5-3.41S355.87,261.8,355.84,264.09Z"></path><path d="M239.26,132.94c-.15-.23-3.7-.61-6-.61a19.42,19.42,0,0,0-6,.91,9.27,9.27,0,0,1-2.19.44,9.36,9.36,0,0,1-2.19-.44,19.35,19.35,0,0,0-6-.91c-2.27,0-5.81.38-6,.61s-.75,2.11-.37,2.49a5.58,5.58,0,0,1,.75,1.58s.53,3.55,3.63,4.31,6-.08,6.72-.68,2.11-4.08,2.41-4.53a1.17,1.17,0,0,1,.91-.61h.15a1.15,1.15,0,0,1,.9.61c.31.45,1.67,3.92,2.42,4.53s3.63,1.43,6.72.68,3.62-4.31,3.62-4.31a5.41,5.41,0,0,1,.76-1.58C240,135.05,239.41,133.16,239.26,132.94ZM222.8,136a5.37,5.37,0,0,1-2,3.85,5.85,5.85,0,0,1-4.22,1.06,4.19,4.19,0,0,1-3.7-2.79c-.23-1.14-.61-3.48.3-4.31a2.86,2.86,0,0,1,2.11-.68,36.11,36.11,0,0,1,6.27.53C222.88,134.07,222.88,134.52,222.8,136Zm14.65,2.12a4.21,4.21,0,0,1-3.7,2.79,5.89,5.89,0,0,1-4.23-1.06,5.44,5.44,0,0,1-2-3.85c-.07-1.51-.07-2,1.29-2.34a36.08,36.08,0,0,1,6.26-.53,2.89,2.89,0,0,1,2.12.68C238.05,134.67,237.68,137,237.45,138.15Z"></path><path d="M276.1,133.73a1.64,1.64,0,0,0-.41-.24,17.73,17.73,0,0,0-8.45-.71,6.17,6.17,0,0,0-3.25,1.67l.07-.19a1.45,1.45,0,0,0-.77-.47l-1.87,0c-.3,0-.69.32-.9.5a6.34,6.34,0,0,0-3.08-1.61,17.64,17.64,0,0,0-8.47.49,1.83,1.83,0,0,0-.42.24,4.47,4.47,0,0,0-.11,1.38c0,.39.26.15.41.47a14.12,14.12,0,0,0,1.39,4.81c.82,1.38,3.14,2.36,5.29,2.13a5.55,5.55,0,0,0,4.48-2.86,16.21,16.21,0,0,0,1.18-3.8,1.47,1.47,0,0,1,1.06-.53,1.88,1.88,0,0,1,1.17.47s0,0,0,.06a16.86,16.86,0,0,0,1.09,3.86,5.51,5.51,0,0,0,4.41,3c2.14.29,4.49-.64,5.33-2a14.11,14.11,0,0,0,1.52-4.77c.15-.32.42-.07.42-.46A4.41,4.41,0,0,0,276.1,133.73Zm-16,2.89a5.2,5.2,0,0,1-5,4.77,4.64,4.64,0,0,1-4.94-4.6c0-2.3,2.33-3.74,5-3.7S260.1,134.33,260.07,136.62Zm14.41.47a4.65,4.65,0,0,1-5.06,4.48,5.19,5.19,0,0,1-4.91-4.89c0-2.3,2.3-3.44,5-3.41S274.51,134.8,274.48,137.09Z"></path><path d="M239.26,154.1c-.15-.23-3.7-.6-6-.6a19.44,19.44,0,0,0-6,.9,5.67,5.67,0,0,1-4.38,0,19.37,19.37,0,0,0-6-.9c-2.27,0-5.81.37-6,.6s-.75,2.12-.37,2.49a5.73,5.73,0,0,1,.75,1.59s.53,3.55,3.63,4.3,6-.07,6.72-.68,2.11-4.07,2.41-4.53a1.15,1.15,0,0,1,.91-.6l.07,0,.08,0a1.14,1.14,0,0,1,.9.6c.31.46,1.67,3.93,2.42,4.53s3.63,1.44,6.72.68,3.62-4.3,3.62-4.3a5.55,5.55,0,0,1,.76-1.59C240,156.22,239.41,154.33,239.26,154.1Zm-16.46,3.1a5.39,5.39,0,0,1-2,3.85,5.85,5.85,0,0,1-4.22,1,4.19,4.19,0,0,1-3.7-2.79c-.23-1.13-.61-3.47.3-4.3a2.86,2.86,0,0,1,2.11-.68,36.11,36.11,0,0,1,6.27.53C222.88,155.23,222.88,155.69,222.8,157.2Zm14.65,2.11a4.21,4.21,0,0,1-3.7,2.79,5.89,5.89,0,0,1-4.23-1,5.46,5.46,0,0,1-2-3.85c-.07-1.51-.07-2,1.29-2.34a36.08,36.08,0,0,1,6.26-.53,2.89,2.89,0,0,1,2.12.68C238.05,155.84,237.68,158.18,237.45,159.31Z"></path><path d="M276.1,154.9a1.8,1.8,0,0,0-.41-.25,17.72,17.72,0,0,0-8.45-.7,6.17,6.17,0,0,0-3.25,1.67l.07-.19a1.45,1.45,0,0,0-.77-.47l-1.87,0a1.81,1.81,0,0,0-.9.51,6.44,6.44,0,0,0-3.08-1.62,17.89,17.89,0,0,0-8.47.49,1.83,1.83,0,0,0-.42.24,4.54,4.54,0,0,0-.11,1.39c0,.39.26.15.41.46a14.07,14.07,0,0,0,1.39,4.81c.82,1.38,3.14,2.37,5.29,2.13a5.52,5.52,0,0,0,4.48-2.85,16.35,16.35,0,0,0,1.18-3.8,1.4,1.4,0,0,1,1.06-.53,1.88,1.88,0,0,1,1.17.47s0,0,0,.06a16.83,16.83,0,0,0,1.09,3.85,5.49,5.49,0,0,0,4.41,3c2.14.29,4.49-.64,5.33-2a14.07,14.07,0,0,0,1.52-4.78c.15-.31.42-.06.42-.45A4.39,4.39,0,0,0,276.1,154.9Zm-16,2.89a5.21,5.21,0,0,1-5,4.77,4.65,4.65,0,0,1-4.94-4.61c0-2.29,2.33-3.73,5-3.7S260.1,155.49,260.07,157.79Zm14.41.47a4.65,4.65,0,0,1-5.06,4.48,5.19,5.19,0,0,1-4.91-4.9c0-2.29,2.3-3.44,5-3.4S274.51,156,274.48,158.26Z"></path><path d="M239.26,175.27c-.15-.23-3.7-.61-6-.61a19.42,19.42,0,0,0-6,.91,9.27,9.27,0,0,1-2.19.44,9.36,9.36,0,0,1-2.19-.44,19.35,19.35,0,0,0-6-.91c-2.27,0-5.81.38-6,.61s-.75,2.11-.37,2.49a5.71,5.71,0,0,1,.75,1.58s.53,3.55,3.63,4.31,6-.08,6.72-.68,2.11-4.08,2.41-4.53a1.19,1.19,0,0,1,.91-.61h.15a1.18,1.18,0,0,1,.9.61c.31.45,1.67,3.92,2.42,4.53s3.63,1.43,6.72.68,3.62-4.31,3.62-4.31a5.53,5.53,0,0,1,.76-1.58C240,177.38,239.41,175.49,239.26,175.27Zm-16.46,3.09a5.37,5.37,0,0,1-2,3.85,5.85,5.85,0,0,1-4.22,1.06,4.19,4.19,0,0,1-3.7-2.79c-.23-1.14-.61-3.48.3-4.31a2.86,2.86,0,0,1,2.11-.68,36.11,36.11,0,0,1,6.27.53C222.88,176.4,222.88,176.85,222.8,178.36Zm14.65,2.12a4.21,4.21,0,0,1-3.7,2.79,5.89,5.89,0,0,1-4.23-1.06,5.44,5.44,0,0,1-2-3.85c-.07-1.51-.07-2,1.29-2.34a36.08,36.08,0,0,1,6.26-.53,2.89,2.89,0,0,1,2.12.68C238.05,177,237.68,179.34,237.45,180.48Z"></path><path d="M276.1,176.07a1.48,1.48,0,0,0-.41-.25,17.73,17.73,0,0,0-8.45-.71,6.25,6.25,0,0,0-3.25,1.67l.07-.19a1.45,1.45,0,0,0-.77-.47l-1.87,0a1.8,1.8,0,0,0-.9.5,6.43,6.43,0,0,0-3.08-1.61,17.64,17.64,0,0,0-8.47.49,1.83,1.83,0,0,0-.42.24,4.47,4.47,0,0,0-.11,1.38c0,.39.26.15.41.47a14.12,14.12,0,0,0,1.39,4.81c.82,1.38,3.14,2.36,5.29,2.13a5.5,5.5,0,0,0,4.48-2.86,16.21,16.21,0,0,0,1.18-3.8,1.42,1.42,0,0,1,1.06-.52,1.77,1.77,0,0,1,1.17.47.43.43,0,0,0,0,0,16.86,16.86,0,0,0,1.09,3.86,5.51,5.51,0,0,0,4.41,3c2.14.29,4.49-.64,5.33-2a14,14,0,0,0,1.52-4.77c.15-.31.42-.07.42-.46A4.32,4.32,0,0,0,276.1,176.07Zm-16,2.88a5.19,5.19,0,0,1-5,4.77,4.64,4.64,0,0,1-4.94-4.6c0-2.29,2.33-3.73,5-3.7S260.1,176.66,260.07,179Zm14.41.48a4.64,4.64,0,0,1-5.06,4.47,5.19,5.19,0,0,1-4.91-4.89c0-2.29,2.3-3.44,5-3.41S274.51,177.13,274.48,179.43Z"></path><path d="M239.26,196.43a26,26,0,0,0-6-.6,19.75,19.75,0,0,0-6,.9,5.67,5.67,0,0,1-4.38,0,19.68,19.68,0,0,0-6-.9,26.12,26.12,0,0,0-6,.6c-.15.23-.75,2.12-.37,2.49a5.73,5.73,0,0,1,.75,1.59s.53,3.55,3.63,4.3,6-.07,6.72-.68,2.11-4.07,2.41-4.53a1.18,1.18,0,0,1,.91-.6l.07,0,.08,0a1.16,1.16,0,0,1,.9.6c.31.46,1.67,3.93,2.42,4.53s3.63,1.44,6.72.68,3.62-4.3,3.62-4.3a5.55,5.55,0,0,1,.76-1.59C240,198.55,239.41,196.66,239.26,196.43Zm-16.46,3.1a5.39,5.39,0,0,1-2,3.85,5.9,5.9,0,0,1-4.22,1.06,4.18,4.18,0,0,1-3.7-2.8c-.23-1.13-.61-3.47.3-4.3a2.86,2.86,0,0,1,2.11-.68,36.11,36.11,0,0,1,6.27.53C222.88,197.57,222.88,198,222.8,199.53Zm14.65,2.11a4.21,4.21,0,0,1-3.7,2.8,5.94,5.94,0,0,1-4.23-1.06,5.46,5.46,0,0,1-2-3.85c-.07-1.51-.07-2,1.29-2.34a36.08,36.08,0,0,1,6.26-.53,2.89,2.89,0,0,1,2.12.68C238.05,198.17,237.68,200.51,237.45,201.64Z"></path><path d="M276.1,197.23a1.8,1.8,0,0,0-.41-.25,17.72,17.72,0,0,0-8.45-.7A6.17,6.17,0,0,0,264,198l.07-.19a1.45,1.45,0,0,0-.77-.47l-1.87,0c-.3,0-.69.32-.9.5a6.44,6.44,0,0,0-3.08-1.62,17.77,17.77,0,0,0-8.47.5,1.67,1.67,0,0,0-.42.23,4.54,4.54,0,0,0-.11,1.39c0,.39.26.15.41.47a14.18,14.18,0,0,0,1.39,4.81c.82,1.37,3.14,2.36,5.29,2.12a5.52,5.52,0,0,0,4.48-2.85,16.21,16.21,0,0,0,1.18-3.8,1.47,1.47,0,0,1,1.06-.53,1.88,1.88,0,0,1,1.17.47s0,0,0,.06a16.69,16.69,0,0,0,1.09,3.85,5.49,5.49,0,0,0,4.41,3c2.14.29,4.49-.64,5.33-2a14.11,14.11,0,0,0,1.52-4.77c.15-.32.42-.07.42-.46A4.39,4.39,0,0,0,276.1,197.23Zm-16,2.89a5.2,5.2,0,0,1-5,4.77,4.65,4.65,0,0,1-4.94-4.61c0-2.29,2.33-3.73,5-3.69S260.1,197.83,260.07,200.12Zm14.41.47a4.65,4.65,0,0,1-5.06,4.48,5.19,5.19,0,0,1-4.91-4.9c0-2.29,2.3-3.44,5-3.4S274.51,198.3,274.48,200.59Z"></path><path d="M239.26,217.6c-.15-.23-3.7-.61-6-.61a19.42,19.42,0,0,0-6,.91,5.67,5.67,0,0,1-4.38,0,19.35,19.35,0,0,0-6-.91c-2.27,0-5.81.38-6,.61s-.75,2.11-.37,2.49a5.73,5.73,0,0,1,.75,1.59s.53,3.54,3.63,4.3,6-.08,6.72-.68,2.11-4.08,2.41-4.53a1.15,1.15,0,0,1,.91-.6l.07,0,.08,0a1.14,1.14,0,0,1,.9.6c.31.45,1.67,3.93,2.42,4.53s3.63,1.43,6.72.68,3.62-4.3,3.62-4.3a5.55,5.55,0,0,1,.76-1.59C240,219.71,239.41,217.83,239.26,217.6Zm-16.46,3.09a5.37,5.37,0,0,1-2,3.85,5.85,5.85,0,0,1-4.22,1.06,4.19,4.19,0,0,1-3.7-2.79c-.23-1.13-.61-3.47.3-4.31a2.83,2.83,0,0,1,2.11-.67,37.08,37.08,0,0,1,6.27.52C222.88,218.73,222.88,219.18,222.8,220.69Zm14.65,2.12a4.21,4.21,0,0,1-3.7,2.79,5.89,5.89,0,0,1-4.23-1.06,5.44,5.44,0,0,1-2-3.85c-.07-1.51-.07-2,1.29-2.34a37,37,0,0,1,6.26-.52,2.86,2.86,0,0,1,2.12.67C238.05,219.34,237.68,221.68,237.45,222.81Z"></path><path d="M276.1,218.4a1.48,1.48,0,0,0-.41-.25,17.73,17.73,0,0,0-8.45-.71,6.25,6.25,0,0,0-3.25,1.67l.07-.18a1.43,1.43,0,0,0-.77-.48l-1.87,0a1.8,1.8,0,0,0-.9.5,6.51,6.51,0,0,0-3.08-1.61,17.76,17.76,0,0,0-8.47.49,1.83,1.83,0,0,0-.42.24,4.5,4.5,0,0,0-.11,1.38c0,.39.26.15.41.47a14.12,14.12,0,0,0,1.39,4.81c.82,1.38,3.14,2.36,5.29,2.13A5.5,5.5,0,0,0,260,224a16.21,16.21,0,0,0,1.18-3.8,1.42,1.42,0,0,1,1.06-.52,1.77,1.77,0,0,1,1.17.47s0,0,0,.05A16.86,16.86,0,0,0,264.5,224a5.51,5.51,0,0,0,4.41,3c2.14.29,4.49-.64,5.33-2a14,14,0,0,0,1.52-4.77c.15-.31.42-.07.42-.46A4.34,4.34,0,0,0,276.1,218.4Zm-16,2.88a5.19,5.19,0,0,1-5,4.77,4.64,4.64,0,0,1-4.94-4.6c0-2.29,2.33-3.73,5-3.7S260.1,219,260.07,221.28Zm14.41.48a4.64,4.64,0,0,1-5.06,4.47,5.19,5.19,0,0,1-4.91-4.89c0-2.29,2.3-3.44,5-3.41S274.51,219.47,274.48,221.76Z"></path><path d="M239.26,238.76a26,26,0,0,0-6-.6,19.42,19.42,0,0,0-6,.91,9.27,9.27,0,0,1-2.19.44,9.36,9.36,0,0,1-2.19-.44,19.35,19.35,0,0,0-6-.91,26.12,26.12,0,0,0-6,.6c-.15.23-.75,2.12-.37,2.5a5.58,5.58,0,0,1,.75,1.58s.53,3.55,3.63,4.31,6-.08,6.72-.68,2.11-4.08,2.41-4.53a1.17,1.17,0,0,1,.91-.61h.15a1.15,1.15,0,0,1,.9.61c.31.45,1.67,3.92,2.42,4.53s3.63,1.43,6.72.68,3.62-4.31,3.62-4.31a5.41,5.41,0,0,1,.76-1.58C240,240.88,239.41,239,239.26,238.76Zm-16.46,3.1a5.37,5.37,0,0,1-2,3.85,5.85,5.85,0,0,1-4.22,1.06,4.18,4.18,0,0,1-3.7-2.8c-.23-1.13-.61-3.47.3-4.3a2.86,2.86,0,0,1,2.11-.68,36.11,36.11,0,0,1,6.27.53C222.88,239.9,222.88,240.35,222.8,241.86ZM237.45,244a4.21,4.21,0,0,1-3.7,2.8,5.89,5.89,0,0,1-4.23-1.06,5.44,5.44,0,0,1-2-3.85c-.07-1.51-.07-2,1.29-2.34A36.08,36.08,0,0,1,235,239a2.89,2.89,0,0,1,2.12.68C238.05,240.5,237.68,242.84,237.45,244Z"></path><path d="M276.1,239.56a1.8,1.8,0,0,0-.41-.25,17.85,17.85,0,0,0-8.45-.7,6.17,6.17,0,0,0-3.25,1.67l.07-.19a1.45,1.45,0,0,0-.77-.47l-1.87,0c-.3,0-.69.32-.9.5a6.34,6.34,0,0,0-3.08-1.61A17.64,17.64,0,0,0,249,239a1.83,1.83,0,0,0-.42.24,4.47,4.47,0,0,0-.11,1.38c0,.39.26.15.41.47a14.12,14.12,0,0,0,1.39,4.81c.82,1.37,3.14,2.36,5.29,2.13a5.55,5.55,0,0,0,4.48-2.86,16.21,16.21,0,0,0,1.18-3.8,1.47,1.47,0,0,1,1.06-.53,1.88,1.88,0,0,1,1.17.47s0,0,0,.06a16.86,16.86,0,0,0,1.09,3.86,5.51,5.51,0,0,0,4.41,3c2.14.29,4.49-.63,5.33-2a14.11,14.11,0,0,0,1.52-4.77c.15-.32.42-.07.42-.46A4.41,4.41,0,0,0,276.1,239.56Zm-16,2.89a5.2,5.2,0,0,1-5,4.77,4.64,4.64,0,0,1-4.94-4.6c0-2.3,2.33-3.74,5-3.7S260.1,240.16,260.07,242.45Zm14.41.47a4.65,4.65,0,0,1-5.06,4.48,5.19,5.19,0,0,1-4.91-4.89c0-2.3,2.3-3.45,5-3.41S274.51,240.63,274.48,242.92Z"></path><path d="M239.26,259.93c-.15-.23-3.7-.6-6-.6a19.44,19.44,0,0,0-6,.9,5.67,5.67,0,0,1-4.38,0,19.37,19.37,0,0,0-6-.9c-2.27,0-5.81.37-6,.6s-.75,2.11-.37,2.49a5.73,5.73,0,0,1,.75,1.59s.53,3.55,3.63,4.3,6-.07,6.72-.68,2.11-4.08,2.41-4.53a1.15,1.15,0,0,1,.91-.6l.07,0,.08,0a1.14,1.14,0,0,1,.9.6c.31.45,1.67,3.93,2.42,4.53s3.63,1.44,6.72.68,3.62-4.3,3.62-4.3a5.55,5.55,0,0,1,.76-1.59C240,262,239.41,260.16,239.26,259.93ZM222.8,263a5.39,5.39,0,0,1-2,3.85,5.9,5.9,0,0,1-4.22,1.05,4.19,4.19,0,0,1-3.7-2.79c-.23-1.13-.61-3.47.3-4.3a2.86,2.86,0,0,1,2.11-.68,36.11,36.11,0,0,1,6.27.53C222.88,261.06,222.88,261.52,222.8,263Zm14.65,2.11a4.21,4.21,0,0,1-3.7,2.79,5.94,5.94,0,0,1-4.23-1.05,5.46,5.46,0,0,1-2-3.85c-.07-1.51-.07-2,1.29-2.34a36.08,36.08,0,0,1,6.26-.53,2.89,2.89,0,0,1,2.12.68C238.05,261.67,237.68,264,237.45,265.14Z"></path><path d="M276.1,260.73a1.8,1.8,0,0,0-.41-.25,17.73,17.73,0,0,0-8.45-.71,6.19,6.19,0,0,0-3.25,1.68l.07-.19a1.38,1.38,0,0,0-.77-.47l-1.87,0a1.74,1.74,0,0,0-.9.51,6.44,6.44,0,0,0-3.08-1.62,17.76,17.76,0,0,0-8.47.49,1.83,1.83,0,0,0-.42.24,4.54,4.54,0,0,0-.11,1.39c0,.39.26.15.41.46a14.07,14.07,0,0,0,1.39,4.81c.82,1.38,3.14,2.37,5.29,2.13a5.5,5.5,0,0,0,4.48-2.86,16.21,16.21,0,0,0,1.18-3.8,1.42,1.42,0,0,1,1.06-.52,1.83,1.83,0,0,1,1.17.47.43.43,0,0,1,0,.05,16.86,16.86,0,0,0,1.09,3.86,5.51,5.51,0,0,0,4.41,3c2.14.29,4.49-.64,5.33-2a14.07,14.07,0,0,0,1.52-4.78c.15-.31.42-.06.42-.45A4.39,4.39,0,0,0,276.1,260.73Zm-16,2.89a5.19,5.19,0,0,1-5,4.76,4.64,4.64,0,0,1-4.94-4.6c0-2.29,2.33-3.73,5-3.7S260.1,261.32,260.07,263.62Zm14.41.47a4.66,4.66,0,0,1-5.06,4.48,5.19,5.19,0,0,1-4.91-4.9c0-2.29,2.3-3.44,5-3.41S274.51,261.8,274.48,264.09Z"></path><path d="M442.83,142.7H198.28a.5.5,0,0,1,0-1H442.83a.5.5,0,0,1,0,1Z"></path><path d="M442.83,164H198.28a.5.5,0,0,1-.5-.5.5.5,0,0,1,.5-.5H442.83a.51.51,0,0,1,.5.5A.5.5,0,0,1,442.83,164Z"></path><path d="M442.83,185.28H198.28a.5.5,0,0,1-.5-.5.5.5,0,0,1,.5-.5H442.83a.51.51,0,0,1,.5.5A.5.5,0,0,1,442.83,185.28Z"></path><path d="M442.83,206.58H198.28a.5.5,0,0,1-.5-.5.5.5,0,0,1,.5-.5H442.83a.5.5,0,0,1,.5.5A.51.51,0,0,1,442.83,206.58Z"></path><path d="M442.83,227.87H198.28a.5.5,0,0,1-.5-.5.5.5,0,0,1,.5-.5H442.83a.5.5,0,0,1,.5.5A.51.51,0,0,1,442.83,227.87Z"></path><path d="M442.83,249.16H198.28a.5.5,0,0,1,0-1H442.83a.5.5,0,0,1,0,1Z"></path><path d="M442.83,270.45H198.28a.5.5,0,0,1,0-1H442.83a.5.5,0,0,1,0,1Z"></path></g></g><g id="freepik--Mirror--inject-21"><g style="opacity:0.30000000000000004"><rect x="49.26" y="103.14" width="105.59" height="321.8" style="fill:none;stroke:#000;stroke-linecap:round;stroke-linejoin:round"></rect><rect x="55.69" y="132.09" width="92.74" height="263.91" style="fill:none;stroke:#000;stroke-linecap:round;stroke-linejoin:round"></rect><line x1="133.45" y1="163.02" x2="94.1" y2="202.36" style="fill:none;stroke:#000;stroke-linecap:round;stroke-linejoin:round"></line><line x1="139.26" y1="157.2" x2="136.25" y2="160.21" style="fill:none;stroke:#000;stroke-linecap:round;stroke-linejoin:round"></line><line x1="126.94" y1="177.14" x2="116.97" y2="187.11" style="fill:none;stroke:#000;stroke-linecap:round;stroke-linejoin:round"></line><line x1="131.93" y1="307.05" x2="101.43" y2="337.55" style="fill:none;stroke:#000;stroke-linecap:round;stroke-linejoin:round"></line><line x1="139.26" y1="299.72" x2="134.86" y2="304.12" style="fill:none;stroke:#000;stroke-linecap:round;stroke-linejoin:round"></line><line x1="126.36" y1="306.17" x2="116.09" y2="316.43" style="fill:none;stroke:#000;stroke-linecap:round;stroke-linejoin:round"></line><line x1="107" y1="351.91" x2="114.92" y2="344" style="fill:none;stroke:#000;stroke-linecap:round;stroke-linejoin:round"></line></g></g><g id="freepik--Plant--inject-21"><path d="M38.72,335.9s-2.21,6.07-6.9,6.89-13-8.27-7.72-13S36.51,332.59,38.72,335.9Z" style="fill:#25FFEB;stroke:#263238;stroke-linecap:round;stroke-linejoin:round"></path><path d="M45.89,306.11s-6.9,16.83-4.14,25.1,19.85,14.34,24.82,3.58-6.07-25.92-10.21-29.23S47.26,303.36,45.89,306.11Z" style="fill:#25FFEB;stroke:#263238;stroke-linecap:round;stroke-linejoin:round"></path><path d="M86.15,313.28S74.29,324,72.91,334.79,79.53,349.41,87.8,348s12.41-22.34,9.93-32S86.15,313.28,86.15,313.28Z" style="fill:#25FFEB;stroke:#263238;stroke-linecap:round;stroke-linejoin:round"></path><path d="M88.35,372.85s-13.23.55-13.78,6.9,5.79,7.72,12.13,2.2S93.87,373.13,88.35,372.85Z" style="fill:#25FFEB;stroke:#263238;stroke-linecap:round;stroke-linejoin:round"></path><path d="M55.54,386.09s-1.38,6.62-6.35,9.1-13.78-2.76-9.1-10.76S53.06,382.78,55.54,386.09Z" style="fill:#25FFEB;stroke:#263238;stroke-linecap:round;stroke-linejoin:round"></path><path d="M44,365.41s-2.48-5.52-12.13-1.93-13.51,9.1-7.44,11S44,365.41,44,365.41Z" style="fill:#25FFEB;stroke:#263238;stroke-linecap:round;stroke-linejoin:round"></path><path d="M71.53,299.22s1.66,3.86,5,3,4.13-5.79,9.37-4.41,9.65,7.45,9.65,4.69-6.61-9.93-14.06-9.93S71.81,295.63,71.53,299.22Z" style="fill:#25FFEB;stroke:#263238;stroke-linecap:round;stroke-linejoin:round"></path><path d="M57.89,340.87s5.77,16.9,7,31.32,0,37.5,0,37.5" style="fill:none;stroke:#263238;stroke-linecap:round;stroke-linejoin:round"></path><path d="M78.08,346.64S71.49,366,69.84,378.37s-2.06,31.32-2.06,31.32" style="fill:none;stroke:#263238;stroke-linecap:round;stroke-linejoin:round"></path><path d="M74.79,381.26s-2.89.82-4.54,28.84" style="fill:none;stroke:#263238;stroke-linecap:round;stroke-linejoin:round"></path><path d="M55.54,386.09s2.76-2.36,4.41,3,.82,20.19.82,20.19" style="fill:none;stroke:#263238;stroke-linecap:round;stroke-linejoin:round"></path><path d="M62.67,383.43c2.15,12.08.17,25.44.17,25.44" style="fill:none;stroke:#263238;stroke-linecap:round;stroke-linejoin:round"></path><path d="M44,365.41s11.88-2.28,16.82,10.9a35.09,35.09,0,0,1,1.24,4" style="fill:none;stroke:#263238;stroke-linecap:round;stroke-linejoin:round"></path><path d="M93.51,352.63s2.49-5.51,12.14-1.93,13.51,9.1,7.44,11S93.51,352.63,93.51,352.63Z" style="fill:#25FFEB;stroke:#263238;stroke-linecap:round;stroke-linejoin:round"></path><path d="M83,355.05a17.21,17.21,0,0,0-6.27,8.49c-4.94,13.18-4.38,45.74-4.38,45.74" style="fill:none;stroke:#263238;stroke-linecap:round;stroke-linejoin:round"></path><path d="M93.51,352.63a15.36,15.36,0,0,0-8.22,1.12" style="fill:none;stroke:#263238;stroke-linecap:round;stroke-linejoin:round"></path><path d="M51.72,344.31a39,39,0,0,1,7,12.64c6.6,18.95,9.07,43.26,7.83,52.33" style="fill:none;stroke:#263238;stroke-linecap:round;stroke-linejoin:round"></path><path d="M38.72,335.9s5.74.9,11.57,6.84" style="fill:none;stroke:#263238;stroke-linecap:round;stroke-linejoin:round"></path><path d="M68.47,362.05c-.41,23.92-.69,47.64-.69,47.64" style="fill:none;stroke:#263238;stroke-linecap:round;stroke-linejoin:round"></path><path d="M71.53,299.22s-1.28-1.2-2.1,20.23c-.32,8.32-.64,23.8-.91,39.62" style="fill:none;stroke:#263238;stroke-linecap:round;stroke-linejoin:round"></path><path d="M79.66,451.72H55.49a5,5,0,0,1-5-4.54l-3.72-38.31H88.38l-3.72,38.31A5,5,0,0,1,79.66,451.72Z" style="fill:#fff;stroke:#263238;stroke-linecap:round;stroke-linejoin:round"></path><polygon points="48.01 421.64 48.45 426.17 86.7 426.17 87.14 421.64 48.01 421.64" style="fill:#263238;stroke:#263238;stroke-linecap:round;stroke-linejoin:round"></polygon><polygon points="85.74 436.06 85.98 433.59 49.16 433.59 49.41 436.06 85.74 436.06" style="fill:#263238;stroke:#263238;stroke-linecap:round;stroke-linejoin:round"></polygon><circle cx="82.61" cy="416.28" r="3.3" style="fill:#263238;stroke:#263238;stroke-linecap:round;stroke-linejoin:round"></circle><path d="M53,419.58a3.3,3.3,0,1,0-3.3-3.3A3.29,3.29,0,0,0,53,419.58Z" style="fill:#263238;stroke:#263238;stroke-linecap:round;stroke-linejoin:round"></path><circle cx="62.84" cy="416.28" r="3.3" style="fill:#263238;stroke:#263238;stroke-linecap:round;stroke-linejoin:round"></circle><circle cx="72.72" cy="416.28" r="3.3" style="fill:#263238;stroke:#263238;stroke-linecap:round;stroke-linejoin:round"></circle></g><g id="freepik--Lamps--inject-21"><rect x="69.78" y="63.62" width="12.25" height="6.68" style="fill:#263238;stroke:#263238;stroke-linecap:round;stroke-linejoin:round"></rect><polygon points="103.91 86.03 47.9 86.03 69.78 69.65 82.03 69.65 103.91 86.03" style="fill:#263238;stroke:#263238;stroke-linecap:round;stroke-linejoin:round"></polygon><line x1="75.75" y1="64.71" x2="75.75" y2="45.6" style="fill:none;stroke:#263238;stroke-linecap:round;stroke-linejoin:round"></line><rect x="248.59" y="63.62" width="12.25" height="6.68" style="fill:#263238;stroke:#263238;stroke-linecap:round;stroke-linejoin:round"></rect><polygon points="282.72 86.03 226.71 86.03 248.59 69.65 260.84 69.65 282.72 86.03" style="fill:#263238;stroke:#263238;stroke-linecap:round;stroke-linejoin:round"></polygon><line x1="254.56" y1="64.71" x2="254.56" y2="45.6" style="fill:none;stroke:#263238;stroke-linecap:round;stroke-linejoin:round"></line><rect x="427.41" y="63.62" width="12.25" height="6.68" style="fill:#263238;stroke:#263238;stroke-linecap:round;stroke-linejoin:round"></rect><polygon points="461.54 86.03 405.52 86.03 427.4 69.65 439.65 69.65 461.54 86.03" style="fill:#263238;stroke:#263238;stroke-linecap:round;stroke-linejoin:round"></polygon><line x1="433.37" y1="64.71" x2="433.37" y2="45.6" style="fill:none;stroke:#263238;stroke-linecap:round;stroke-linejoin:round"></line></g><g id="freepik--character-2--inject-21"><path d="M284.53,356.54s2.3,21.87,2.6,27.69,1.93,20,4.52,29.54a59.73,59.73,0,0,1,1.76,21.86s-3.52,6.43-5.51,8.57a28.19,28.19,0,0,1-8.72,5.36c-1.38.3-.77,2,2.9,2.14a94.55,94.55,0,0,0,12.55-.77c2.14-.3,6-4.43,6-4.43l3.06-1.53v6h2.14s.76-5.5,1.22-8.56-1.07-6.58-1.83-9.18-.08-11.28.54-25.05c.55-12-1.31-25-1.31-27.28s.46-21.72.46-21.72Z" style="fill:#fff;stroke:#263238;stroke-linecap:round;stroke-linejoin:round"></path><path d="M300.6,446.5l3.06-1.53v6h2.14s.76-5.5,1.22-8.56a12.49,12.49,0,0,0-.54-5.07A19.9,19.9,0,0,0,300.6,441c-4.44,3.82-8.11,5.51-11.48,5.66a10.67,10.67,0,0,1-3.75-.39,27.81,27.81,0,0,1-6.19,3.3c-1.38.3-.77,2,2.9,2.14a94.55,94.55,0,0,0,12.55-.77C296.77,450.63,300.6,446.5,300.6,446.5Z" style="fill:#263238;stroke:#263238;stroke-linecap:round;stroke-linejoin:round"></path><path d="M306.72,356.54s2.29,21.87,2.6,27.69,3.08,16.57,4.89,30.06c1.4,10.38,2.2,20.16,2.2,20.16s-4.34,7.61-6.33,9.75a28.08,28.08,0,0,1-8.72,5.36c-1.38.3-.76,2,2.91,2.14a94.5,94.5,0,0,0,12.54-.77c2.15-.3,6-4.43,6-4.43l3.06-1.53v6H328s.77-5.5,1.23-8.56-1.08-6.58-1.84-9.18-.07-10,1.82-26.49c1.59-14-2.59-23.54-2.59-25.84s.46-21.72.46-21.72Z" style="fill:#fff;stroke:#263238;stroke-linecap:round;stroke-linejoin:round"></path><path d="M328,450.93s.77-5.5,1.23-8.56a14.18,14.18,0,0,0-.82-6c-3.06,2.66-11.41,9.4-14.4,9.94a14.21,14.21,0,0,1-6.16-.25,28.44,28.44,0,0,1-6.47,3.49c-1.38.3-.76,2,2.91,2.14a94.5,94.5,0,0,0,12.54-.77c2.15-.3,6-4.43,6-4.43l3.06-1.53v6Z" style="fill:#263238;stroke:#263238;stroke-linecap:round;stroke-linejoin:round"></path><path d="M276.89,288.75s-3.43,17.87-3.62,31.95S275,355.88,275,355.88s8.36,5.51,26.05,6.09,34.42-4.38,34.42-4.38S336,322,336,315.37s-3.8-24.72-3.8-24.72Z" style="fill:#263238;stroke:#263238;stroke-linecap:round;stroke-linejoin:round"></path><path d="M300.09,212.49l-7.42,3L287,291.41a81.32,81.32,0,0,0,10.84,1.52,82.18,82.18,0,0,0,13.12-.57s4-55.34,4.18-59.52,1.14-19.4,1.14-19.4Z" style="fill:#fff;stroke:#263238;stroke-linecap:round;stroke-linejoin:round"></path><path d="M317.47,164.08a17.69,17.69,0,0,1,7.83-.1c3.56,1,9.5,11.78,10.79,17.23s1.88,12.87,1.29,15.54-2.38,5.94-3.67,6.64a28.08,28.08,0,0,1-4.45,1.48l.69-3.07s-4.65,3.47-6.34,3.57-6.24-1.09-6.24-1.09,1.39-1.59,2.48-6.74-.89-13.16-1-13.56S313.31,166.16,317.47,164.08Z" style="fill:#263238;stroke:#263238;stroke-linecap:round;stroke-linejoin:round"></path><path d="M290.77,165.77a15.78,15.78,0,0,0-3.5,7.69c-.84,4.9-1.68,7.14-1.12,8.26a15.68,15.68,0,0,1,.84,3.22c.28,1,0,7.69.7,10.07s5.32,9.79,6.44,10.63,3.63,2,5.45,1.4c0,0-3.36,11.33-3.64,14.69S297.2,234,300,235.85s7.69-4.19,9.93-9.37a46,46,0,0,0,2.94-11.33L314,195s3.78-1.68,4.76-3.5,2.18-7.31,2.18-7.31,1.87-10.6-1.9-17.59-13.15-9-20.43-6.29S290.77,165.77,290.77,165.77Z" style="fill:#fff;stroke:#263238;stroke-linecap:round;stroke-linejoin:round"></path><path d="M319,166.61c-3.78-7-13.15-9-20.43-6.29s-7.83,5.45-7.83,5.45a11.45,11.45,0,0,0-1.28,1.75,19.92,19.92,0,0,1,6.73-2.89c-.16.14-.32.27-.48.42,0,0,1.77-.59,3.54,4.52,1.66,4.77,6.31,12.75,12,13.19,2,2.26,3.72,2,3.72,2s1.44-2.79,3.67-2.79,1.87,3.59,1.87,3.59l.23.06c.12-.87.19-1.46.19-1.46S322.8,173.6,319,166.61Z" style="fill:#263238;stroke:#263238;stroke-linecap:round;stroke-linejoin:round"></path><path d="M299.58,207,308,202.5s-2.87,4.75-4.75,7.22a32.42,32.42,0,0,1-5.85,5.25Z" style="fill:#263238;stroke:#263238;stroke-linecap:round;stroke-linejoin:round"></path><path d="M291.46,192a2.88,2.88,0,0,0,2.59,2.25" style="fill:none;stroke:#263238;stroke-linecap:round;stroke-linejoin:round"></path><path d="M294.88,197.05a8.54,8.54,0,0,0,7.43-2" style="fill:none;stroke:#263238;stroke-linecap:round;stroke-linejoin:round"></path><path d="M301.2,185.24c0,.8-.34,1.45-.77,1.45s-.77-.65-.77-1.45.34-1.46.77-1.46S301.2,184.43,301.2,185.24Z" style="fill:#263238"></path><path d="M290.38,185.24c0,.8-.34,1.45-.77,1.45s-.77-.65-.77-1.45.34-1.46.77-1.46S290.38,184.43,290.38,185.24Z" style="fill:#263238"></path><path d="M306.61,184.29c0,2.09-2.77,4.47-5.45,4.47s-4.85-1.7-4.85-3.78,2.17-3.78,4.85-3.78S306.61,182.2,306.61,184.29Z" style="fill:none;stroke:#263238;stroke-linecap:round;stroke-linejoin:round"></path><path d="M285.15,184.29a5,5,0,0,0,4.63,4.47,3.79,3.79,0,1,0,0-7.56C287.5,181.2,285.15,182.2,285.15,184.29Z" style="fill:none;stroke:#263238;stroke-linecap:round;stroke-linejoin:round"></path><line x1="306.61" y1="184.29" x2="315.54" y2="183.43" style="fill:none;stroke:#263238;stroke-linecap:round;stroke-linejoin:round"></line><path d="M293.9,183.86a1.45,1.45,0,0,1,2.32,0" style="fill:none;stroke:#263238;stroke-linecap:round;stroke-linejoin:round"></path><path d="M298.88,180.17s3.69-2,6.44.86" style="fill:none;stroke:#263238;stroke-linecap:round;stroke-linejoin:round"></path><path d="M287.38,180.17s2.83-.95,4.38.34" style="fill:none;stroke:#263238;stroke-linecap:round;stroke-linejoin:round"></path><path d="M298.16,211.77s-21.55,5.15-22.64,5.47-1.72,2-1.72,2l-8.9,41.53s-3.28,11.71-2.34,15.46,5.62,6.4,7.5,6.24,5.62-4.37,5.62-4.37l-6.25,26.39s3.75,5.62,8.9,5.77,9.06.16,9.06.16,5.93-47.15,5.93-52.46,2.62-36.26,2.62-36.26Z" style="fill:#25FFEB;stroke:#263238;stroke-linecap:round;stroke-linejoin:round"></path><path d="M275.68,278.13l2-13s-.52-16-.21-20.73,1.76-12.65,1.76-12.65" style="fill:none;stroke:#263238;stroke-linecap:round;stroke-linejoin:round"></path><path d="M295.94,221.73l2.22-10-6.65,1.59c-1.62,2.57-4.54,8.64-4,18.55.62,10.8,4.3,21.88,5.78,26C293.35,252.33,295.94,221.73,295.94,221.73Z" style="fill:#25FFEB;stroke:#263238;stroke-linecap:round;stroke-linejoin:round"></path><path d="M313.31,211.62s-.63,5.15-1.25,8.11-9.06,36.54-8.44,38,1.72,50.9,2.35,51.83,5.77,3,15.92,2.5,17.18-5.62,17.8-6.56-8.27-28.26-8.27-28.26l10.3-1.87s.16-52.93-.47-55.27S313.31,211.62,313.31,211.62Z" style="fill:#25FFEB;stroke:#263238;stroke-linecap:round;stroke-linejoin:round"></path><path d="M318.15,233c3.84-10,4.29-16.56,4.28-19.23-5-1.25-9.12-2.16-9.12-2.16s-.63,5.15-1.25,8.11c-.59,2.78-8,32.33-8.45,37.28C306.59,254.19,313.7,244.59,318.15,233Z" style="fill:#25FFEB;stroke:#263238;stroke-linecap:round;stroke-linejoin:round"></path><path d="M328.29,241.59l.16,24.83-7.65,1.09.47,14.84a49.51,49.51,0,0,0,13.74,0c7-1.1,12.65-1.72,13.43-3.44s-4.06-58.86-5.62-59.64-9.84-1.72-9.84-1.72" style="fill:#25FFEB;stroke:#263238;stroke-linecap:round;stroke-linejoin:round"></path><line x1="328.45" y1="266.42" x2="341.72" y2="264.7" style="fill:#fff;stroke:#263238;stroke-linecap:round;stroke-linejoin:round"></line><path d="M280.91,265.73c0,2.37-2.61,4.29-5.82,4.29s-5.83-1.92-5.83-4.29,2.61-3.17,5.83-3.17S280.91,263.35,280.91,265.73Z" style="fill:none;stroke:#263238;stroke-linecap:round;stroke-linejoin:round"></path><path d="M284.29,265.73c0,2.37,2.61,4.29,5.83,4.29s5.82-1.92,5.82-4.29-2.61-3.17-5.82-3.17S284.29,263.35,284.29,265.73Z" style="fill:none;stroke:#263238;stroke-linecap:round;stroke-linejoin:round"></path><line x1="280.04" y1="263.7" x2="285.23" y2="263.7" style="fill:none;stroke:#263238;stroke-linecap:round;stroke-linejoin:round"></line><path d="M280.91,265.73a2.57,2.57,0,0,1,3.38,0" style="fill:none;stroke:#263238;stroke-linecap:round;stroke-linejoin:round"></path><path d="M269.57,264.42s11.93,7.78,12.13,9a4.22,4.22,0,0,1-.52,2.49" style="fill:none;stroke:#263238;stroke-linecap:round;stroke-linejoin:round"></path><path d="M295.28,264.42s11.92,7.78,12.13,9a4.22,4.22,0,0,1-.52,2.49" style="fill:none;stroke:#263238;stroke-linecap:round;stroke-linejoin:round"></path><path d="M317.37,267.51S311,263.8,309.59,263a8.87,8.87,0,0,0-4.46-1.55c-1.66,0-4.25.52-6.43.1S294,260,294,261.42s2.69,2.49,2.69,2.49l5.19,1.34-9.75,4.25s-2.9.21-3.11.83-.52,1.14.52,1.46a15.44,15.44,0,0,0,3.53.41c.72,0,2.69-.1,3.83-.1s1.56,1.24,3.63,2a13.14,13.14,0,0,0,5.6.93,18.93,18.93,0,0,0,4.87-1.14l6.63.93Z" style="fill:#fff;stroke:#263238;stroke-linecap:round;stroke-linejoin:round"></path><path d="M296.94,272.1s2.07-.31,2.59-.42" style="fill:none;stroke:#263238;stroke-linecap:round;stroke-linejoin:round"></path><polygon points="320.8 267.51 317.37 267.51 317.37 278.29 320.96 278.29 320.8 267.51" style="fill:#fff;stroke:#263238;stroke-linecap:round;stroke-linejoin:round"></polygon><path d="M265.32,259.14s2.7-2,3.74-1.76,4.35,3,5.28,3.31,2.28.62,1.87,1.35-3.53.21-4.67,0-3.11-.31-3.11-.31-1.45,3-1.55,3.42a10.08,10.08,0,0,0,1.35,3.53c.31.2,8.81,1.55,8.81,1.55a3.66,3.66,0,0,1-.52,1.66c-.42.41-2.39.62-3.53.62a15.49,15.49,0,0,1-1.86,1.87,16.6,16.6,0,0,1-2.7,1,2.26,2.26,0,0,1-1.76,1.35c-1.35.21-4.15-1-4.66-1.45s-1.46-3.21-1.77-4.25-1.86-5.08-.51-7.15S265.32,259.14,265.32,259.14Z" style="fill:#fff;stroke:#263238;stroke-linecap:round;stroke-linejoin:round"></path><path d="M263.66,268.47s2,3.21,2.49,3.42,6.84.62,6.84.62" style="fill:none;stroke:#263238;stroke-linecap:round;stroke-linejoin:round"></path><path d="M261.9,270.85s1.56,2.49,2.49,2.9,4,1.66,4,1.66" style="fill:none;stroke:#263238;stroke-linecap:round;stroke-linejoin:round"></path></g><g id="freepik--Counter--inject-21"><rect x="199.5" y="320.13" width="241.04" height="131.59" style="fill:#828282;stroke:#263238;stroke-linecap:round;stroke-linejoin:round"></rect><rect x="358.34" y="320.13" width="82.2" height="131.59" style="fill:#263238;stroke:#263238;stroke-linecap:round;stroke-linejoin:round"></rect><rect x="195.97" y="320.13" width="248.1" height="125.06" style="fill:#828282;stroke:#263238;stroke-linecap:round;stroke-linejoin:round"></rect><rect x="359.46" y="320.13" width="84.6" height="125.06" style="fill:#263238;stroke:#263238;stroke-linecap:round;stroke-linejoin:round"></rect><line x1="274.27" y1="444.77" x2="274.27" y2="320.46" style="fill:none;stroke:#263238;stroke-linecap:round;stroke-linejoin:round"></line><path d="M237.73,310.46a1.94,1.94,0,0,0-.44-.27,19.49,19.49,0,0,0-9.21-.77,6.8,6.8,0,0,0-3.53,1.82l.07-.2a1.59,1.59,0,0,0-.84-.52l-2,0c-.32,0-.75.35-1,.55a6.93,6.93,0,0,0-3.36-1.76,19.35,19.35,0,0,0-9.22.53,1.78,1.78,0,0,0-.45.26,5,5,0,0,0-.12,1.51c0,.43.28.16.44.51a15.31,15.31,0,0,0,1.52,5.24c.89,1.5,3.41,2.57,5.76,2.31a6,6,0,0,0,4.87-3.11,17.9,17.9,0,0,0,1.29-4.13,1.57,1.57,0,0,1,1.16-.58,2,2,0,0,1,1.27.52.14.14,0,0,1,0,.06,18.48,18.48,0,0,0,1.19,4.2,6,6,0,0,0,4.8,3.23c2.34.31,4.89-.7,5.81-2.17a15.29,15.29,0,0,0,1.65-5.2c.17-.34.46-.07.46-.5A4.82,4.82,0,0,0,237.73,310.46Zm-17.45,3.15a5.67,5.67,0,0,1-5.49,5.19c-3.48,0-5.41-2.52-5.38-5s2.54-4.07,5.5-4S220.31,311.11,220.28,313.61Zm15.69.51a5.07,5.07,0,0,1-5.51,4.88,5.67,5.67,0,0,1-5.35-5.33c0-2.5,2.51-3.75,5.47-3.71S236,311.62,236,314.12Z" style="fill:#263238"></path><path d="M274.11,310.46a1.94,1.94,0,0,0-.44-.27,19.49,19.49,0,0,0-9.21-.77,6.8,6.8,0,0,0-3.53,1.82l.07-.2a1.59,1.59,0,0,0-.84-.52l-2,0c-.31,0-.74.35-1,.55a6.93,6.93,0,0,0-3.36-1.76,19.35,19.35,0,0,0-9.22.53,1.78,1.78,0,0,0-.45.26,5,5,0,0,0-.12,1.51c0,.43.28.16.44.51a15.31,15.31,0,0,0,1.52,5.24c.89,1.5,3.41,2.57,5.76,2.31a6,6,0,0,0,4.87-3.11,17.9,17.9,0,0,0,1.29-4.13,1.55,1.55,0,0,1,1.15-.58,2,2,0,0,1,1.28.52.14.14,0,0,1,0,.06,18.48,18.48,0,0,0,1.19,4.2,6,6,0,0,0,4.8,3.23c2.34.31,4.89-.7,5.81-2.17a15.29,15.29,0,0,0,1.65-5.2c.17-.34.46-.07.46-.5A4.82,4.82,0,0,0,274.11,310.46Zm-17.45,3.15a5.67,5.67,0,0,1-5.49,5.19c-3.48,0-5.41-2.52-5.38-5s2.54-4.07,5.5-4S256.69,311.11,256.66,313.61Zm15.69.51a5.07,5.07,0,0,1-5.51,4.88,5.67,5.67,0,0,1-5.35-5.33c0-2.5,2.51-3.75,5.47-3.71S272.38,311.62,272.35,314.12Z" style="fill:#263238"></path><path d="M310.49,310.46a1.94,1.94,0,0,0-.44-.27,19.49,19.49,0,0,0-9.21-.77,6.8,6.8,0,0,0-3.53,1.82l.07-.2a1.59,1.59,0,0,0-.84-.52l-2,0c-.31,0-.74.35-1,.55a6.93,6.93,0,0,0-3.36-1.76,19.35,19.35,0,0,0-9.22.53,1.78,1.78,0,0,0-.45.26,5.23,5.23,0,0,0-.13,1.51c0,.43.29.16.45.51a15.31,15.31,0,0,0,1.52,5.24c.89,1.5,3.41,2.57,5.76,2.31a6,6,0,0,0,4.87-3.11,17.9,17.9,0,0,0,1.29-4.13,1.55,1.55,0,0,1,1.15-.58,2,2,0,0,1,1.28.52.14.14,0,0,1,0,.06,18.48,18.48,0,0,0,1.19,4.2,6,6,0,0,0,4.8,3.23c2.34.31,4.89-.7,5.81-2.17a15.29,15.29,0,0,0,1.65-5.2c.17-.34.46-.07.46-.5A4.82,4.82,0,0,0,310.49,310.46ZM293,313.61a5.67,5.67,0,0,1-5.49,5.19c-3.48,0-5.41-2.52-5.38-5s2.54-4.07,5.5-4S293.07,311.11,293,313.61Zm15.69.51a5.07,5.07,0,0,1-5.51,4.88,5.67,5.67,0,0,1-5.35-5.33c0-2.5,2.51-3.75,5.47-3.71S308.76,311.62,308.73,314.12Z" style="fill:#263238"></path><path d="M346.87,310.46a1.94,1.94,0,0,0-.44-.27,19.49,19.49,0,0,0-9.21-.77,6.8,6.8,0,0,0-3.53,1.82l.07-.2a1.59,1.59,0,0,0-.84-.52l-2,0c-.31,0-.74.35-1,.55a6.93,6.93,0,0,0-3.36-1.76,19.35,19.35,0,0,0-9.22.53,1.78,1.78,0,0,0-.45.26,5.23,5.23,0,0,0-.13,1.51c0,.43.29.16.45.51a15.31,15.31,0,0,0,1.52,5.24c.89,1.5,3.41,2.57,5.75,2.31a6,6,0,0,0,4.88-3.11,17.9,17.9,0,0,0,1.29-4.13,1.55,1.55,0,0,1,1.15-.58,2,2,0,0,1,1.28.52l0,.06a18.48,18.48,0,0,0,1.19,4.2,6,6,0,0,0,4.8,3.23c2.34.31,4.89-.7,5.81-2.17a15.29,15.29,0,0,0,1.65-5.2c.17-.34.45-.07.46-.5A4.82,4.82,0,0,0,346.87,310.46Zm-17.45,3.15a5.67,5.67,0,0,1-5.49,5.19c-3.48,0-5.41-2.52-5.38-5s2.54-4.07,5.5-4S329.45,311.11,329.42,313.61Zm15.69.51A5.07,5.07,0,0,1,339.6,319a5.67,5.67,0,0,1-5.35-5.33c0-2.5,2.51-3.75,5.47-3.71S345.14,311.62,345.11,314.12Z" style="fill:#263238"></path><path d="M383.25,310.46a1.94,1.94,0,0,0-.44-.27,19.49,19.49,0,0,0-9.21-.77,6.8,6.8,0,0,0-3.53,1.82l.07-.2a1.59,1.59,0,0,0-.84-.52l-2,0c-.31,0-.74.35-1,.55a6.93,6.93,0,0,0-3.36-1.76,19.35,19.35,0,0,0-9.22.53,1.78,1.78,0,0,0-.45.26,5.23,5.23,0,0,0-.13,1.51c0,.43.29.16.45.51a15.31,15.31,0,0,0,1.52,5.24c.88,1.5,3.41,2.57,5.75,2.31a6,6,0,0,0,4.88-3.11,17.9,17.9,0,0,0,1.29-4.13,1.55,1.55,0,0,1,1.15-.58,2,2,0,0,1,1.28.52l0,.06a18.48,18.48,0,0,0,1.19,4.2,6,6,0,0,0,4.8,3.23c2.34.31,4.89-.7,5.81-2.17a15.29,15.29,0,0,0,1.65-5.2c.17-.34.45-.07.46-.5A4.82,4.82,0,0,0,383.25,310.46Zm-17.45,3.15a5.67,5.67,0,0,1-5.49,5.19c-3.48,0-5.41-2.52-5.38-5s2.54-4.07,5.5-4S365.83,311.11,365.8,313.61Zm15.69.51A5.07,5.07,0,0,1,376,319a5.67,5.67,0,0,1-5.35-5.33c0-2.5,2.51-3.75,5.47-3.71S381.52,311.62,381.49,314.12Z" style="fill:#263238"></path><path d="M419.63,310.46a1.94,1.94,0,0,0-.44-.27,19.49,19.49,0,0,0-9.21-.77,6.8,6.8,0,0,0-3.53,1.82l.07-.2a1.59,1.59,0,0,0-.84-.52l-2,0c-.31,0-.74.35-1,.55a6.93,6.93,0,0,0-3.36-1.76,19.35,19.35,0,0,0-9.22.53,1.78,1.78,0,0,0-.45.26,5.23,5.23,0,0,0-.13,1.51c0,.43.29.16.45.51a15.31,15.31,0,0,0,1.52,5.24c.88,1.5,3.41,2.57,5.75,2.31a6,6,0,0,0,4.88-3.11,17.9,17.9,0,0,0,1.29-4.13,1.55,1.55,0,0,1,1.15-.58,2,2,0,0,1,1.28.52l0,.06a18.48,18.48,0,0,0,1.19,4.2,6,6,0,0,0,4.8,3.23c2.34.31,4.89-.7,5.81-2.17a15.29,15.29,0,0,0,1.65-5.2c.17-.34.45-.07.46-.5A4.82,4.82,0,0,0,419.63,310.46Zm-17.46,3.15a5.65,5.65,0,0,1-5.48,5.19c-3.48,0-5.41-2.52-5.38-5s2.54-4.07,5.5-4S402.21,311.11,402.17,313.61Zm15.7.51a5.07,5.07,0,0,1-5.51,4.88,5.67,5.67,0,0,1-5.35-5.33c0-2.5,2.51-3.75,5.47-3.71S417.9,311.62,417.87,314.12Z" style="fill:#263238"></path><rect x="195.97" y="290.81" width="248.1" height="29.1" style="fill:none;stroke:#adadad;stroke-linecap:round;stroke-linejoin:round"></rect><rect x="359.46" y="290.81" width="84.6" height="29.1" style="fill:none;stroke:#adadad;stroke-linecap:round;stroke-linejoin:round"></rect><line x1="437.82" y1="295.48" x2="393.54" y2="315.64" style="fill:none;stroke:#adadad;stroke-linecap:round;stroke-linejoin:round"></line><line x1="266.23" y1="295.48" x2="221.95" y2="315.64" style="fill:none;stroke:#adadad;stroke-linecap:round;stroke-linejoin:round"></line><line x1="410.15" y1="303.55" x2="384.45" y2="315.25" style="fill:none;stroke:#adadad;stroke-linecap:round;stroke-linejoin:round"></line><line x1="240.14" y1="303.55" x2="214.44" y2="315.25" style="fill:none;stroke:#adadad;stroke-linecap:round;stroke-linejoin:round"></line><path d="M350.29,352.34a9,9,0,0,0-2.18-1.32c-14.25-4.12-30.28-6.91-45-3.75-5.77,1.24-13,4-17.28,8.89l.38-1a7.76,7.76,0,0,0-4.11-2.51l-10-.13c-1.56,0-3.65,1.72-4.76,2.68-4.19-4.52-10.95-7.27-16.4-8.59-14.6-3.53-30.7-1.15-45,2.62a9,9,0,0,0-2.22,1.27c-.65.63-.58,5.29-.61,7.36s1.42.8,2.17,2.49,1,14.64,7.44,25.58c4.32,7.32,16.66,12.57,28.11,11.32,12.28-1.34,19.68-7.67,23.82-15.19,3.58-6.5,6-18.73,6.31-20.22a7.52,7.52,0,0,1,5.63-2.79,9.82,9.82,0,0,1,6.23,2.5c0,.1-.07.19-.1.29s2.19,13.51,5.83,20.52c4,7.62,11.19,14.14,23.43,15.79,11.42,1.54,23.88-3.4,28.38-10.61,6.73-10.78,7.29-23.71,8.09-25.39s2.2-.36,2.23-2.43S350.93,353,350.29,352.34ZM265,367.7c-.15,12.19-12.32,25.52-26.78,25.37-17-.18-26.43-12.29-26.28-24.49s12.39-19.86,26.84-19.67S265.16,355.5,265,367.7Zm76.66,2.52c-.16,12.19-9.88,24.07-26.89,23.81-14.45-.21-26.29-13.84-26.13-26s12.23-18.31,26.69-18.13S341.81,358,341.66,370.22Z" style="fill:#fff"></path></g><g id="freepik--Floor--inject-21"><line x1="480.47" y1="451.72" x2="15.96" y2="451.72" style="fill:none;stroke:#263238;stroke-linecap:round;stroke-linejoin:round"></line></g><g id="freepik--character-1--inject-21"><path d="M128.45,269l5.35-41.06h2.68s-4.46,29.45-4.24,34.59,1.12,7.58,2.68,8.48,5.13,1.56,1.79,2.23S129.34,273.66,128.45,269Z" style="fill:#828282;stroke:#263238;stroke-linecap:round;stroke-linejoin:round"></path><path d="M141.84,300.44s-.89,15.4,1.56,27,7.14,37.71,7.59,40.83-2,14.73-.9,25.44,8,36.16,8.48,37.72-1.11,16.06-2.23,19.64,2.23,4,4.69,4.46,9.15-.22,10.26-1.56a9,9,0,0,0,1.57-2.9s6.69,2.45,9.82,2.67,11.82.23,13.16-.67.45-2.9-.89-3.79-1.56.22-4.69-4.91-8.25-11.83-8.48-14.06,4-30.12,5.36-38.6,4.46-29,4.46-29,2.73-9.61,6.92-33.69,1.79-30.13,1.79-30.13l-19-7.81Z" style="fill:#fff;stroke:#263238;stroke-linecap:round;stroke-linejoin:round"></path><path d="M181.78,430.32c-.22-2.23,4-30.12,5.36-38.6s4.46-29,4.46-29,2.73-9.61,6.92-33.69,1.79-30.13,1.79-30.13l-19-7.81-39.5,9.37s-.89,15.4,1.56,27,7.14,37.71,7.59,40.83-2,14.73-.9,25.44,8,36.16,8.48,37.72a19.6,19.6,0,0,1,0,4c1.69.19,4.27.45,6.08.45a43.86,43.86,0,0,0,7.14-.89,23.18,23.18,0,0,0,6.7.22,10.65,10.65,0,0,0,4.51-2.16A8.6,8.6,0,0,1,181.78,430.32Z" style="fill:#263238;stroke:#263238;stroke-linecap:round;stroke-linejoin:round"></path><path d="M172.86,451.08V444.6a56.53,56.53,0,0,0-1.12-9.59" style="fill:none;stroke:#263238;stroke-linecap:round;stroke-linejoin:round"></path><path d="M184.19,170.91s1.54-.88.22-5.49a16.22,16.22,0,0,0-12.62-11.52c-7.57-1.65-18-.44-23.82,4.71s-12.4,21.3-12.84,30.84,7.46,16.58,11.75,17.78,12.07-.66,12.07-.66,16.13,4.39,23.59-.32,3.4-18,2.31-23.05S180.9,173.1,184.19,170.91Z" style="fill:#263238;stroke:#263238;stroke-linecap:round;stroke-linejoin:round"></path><path d="M157.54,208.32,142.2,216c-2.79,1.4-8.55,1.57-11.16,7.67s.69,13.78,3.48,18.31,8.38,18.66,8.38,18.66.34-4,.69,3.49-2.61,36.45-3,39.06,21.27,9.59,30,6.28,10.81-7,10.81-7a12.6,12.6,0,0,0,10.47,5.23c7-.18,10.81-2.79,10.81-2.79s-3-19.53-3-26.68-1.39-21.1-1.39-21.1,1.05-20.58,1.05-27-1.57-11.86-5.24-14.3-11.33-2.79-12.55-3.14a59.11,59.11,0,0,0-7.42-2.12C171.84,210.24,160.68,207.62,157.54,208.32Z" style="fill:#25FFEB;stroke:#263238;stroke-linecap:round;stroke-linejoin:round"></path><path d="M190.26,254s-8.22,5.62-15.57,9.51" style="fill:none;stroke:#263238;stroke-linecap:round;stroke-linejoin:round"></path><line x1="190.26" y1="258.29" x2="184.64" y2="262.18" style="fill:none;stroke:#263238;stroke-linecap:round;stroke-linejoin:round"></line><path d="M181.53,191.54c1.09-3.53.14-7.47-.13-9.23s.27-12.23.27-12.23l-6.12-4.89-1.6.46c-2.43,2.77-7.74,8.34-12.9,10.41-2.66,1.06-4.88,1.82-6.61,2.35a28,28,0,0,0-.35,5.53c.13,3.66,3.39,11.95,3.39,11.95a10.05,10.05,0,0,1,.41,2.17c0,.82-1.36,12.37-1.36,12.37s3,3.8,5.44,6.79,7.61,10.05,7.61,10.05,1.08-1.63,2.58-4.34,4.39-11.12,4.39-11.12-2.36-1.38-2.76-2.61a38.09,38.09,0,0,1-.55-5.84l1.63-.54C176.5,202.28,180.44,195.08,181.53,191.54Z" style="fill:#fff;stroke:#263238;stroke-linecap:round;stroke-linejoin:round"></path><ellipse cx="167.54" cy="182.17" rx="1.09" ry="1.77" style="fill:#263238"></ellipse><path d="M179.63,182.17c0,1-.49,1.77-1.09,1.77s-1.08-.79-1.08-1.77.48-1.77,1.08-1.77S179.63,181.19,179.63,182.17Z" style="fill:#263238"></path><path d="M173.24,203.36a31.69,31.69,0,0,1-5-.81c-1.77-.55-4.35-1.63-4.35-1.63a36.63,36.63,0,0,0,3.12,3.53,46.69,46.69,0,0,0,6.8,4.75Z" style="fill:#263238;stroke:#263238;stroke-linecap:round;stroke-linejoin:round"></path><path d="M175.82,188.42a5.93,5.93,0,0,1-3,1.63" style="fill:none;stroke:#263238;stroke-linecap:round;stroke-linejoin:round"></path><path d="M166,192.22a7.56,7.56,0,0,0,5.71,1.77" style="fill:none;stroke:#263238;stroke-linecap:round;stroke-linejoin:round"></path><path d="M164,177.82a7.12,7.12,0,0,1,6.25-.27" style="fill:none;stroke:#263238;stroke-linecap:round;stroke-linejoin:round"></path><path d="M176,177.69a3.94,3.94,0,0,1,4.76.13" style="fill:none;stroke:#263238;stroke-linecap:round;stroke-linejoin:round"></path><path d="M156.75,202.29s2.64-4.71,2.86-7.13a27.14,27.14,0,0,1,.87-4.61,12.23,12.23,0,0,1,4-2.41c2.09-.66,1.65-2.09.44-2.53s-4.5.77-5.7,1.76-2,1.54-2,1.54a14.28,14.28,0,0,1-2.41-.44c-.44-.22-1.21-1.32-1-1.76s4.61-2.82,5.82-3.62c1.64-1.1,2.3-2.2,2.41-3.07s-2-.44-3.73.54-6.59,2.64-8.23,4-3.18,2.52-3.29,3.29-.44,8.23.21,10.2,2.2,12.63,2.2,12.63l7.79-1Z" style="fill:#fff;stroke:#263238;stroke-linecap:round;stroke-linejoin:round"></path><path d="M148.85,185.39s1.32-2.85,2.09-3,4.93,1.32,6.8,1,2.74.55,2.19,1.31a3.49,3.49,0,0,1-1.64,1.1s-3.62-.44-4.94-.66A22.74,22.74,0,0,0,148.85,185.39Z" style="fill:#fff;stroke:#263238;stroke-linecap:round;stroke-linejoin:round"></path><path d="M146.66,190.55s.65-3.29,1.2-3.73,1-2.3,2.2-2.3a59.94,59.94,0,0,1,5.92,1s2.86-.11,2.31,1.32-2.74,2.3-3.51,1.65a10.19,10.19,0,0,0-3.3-1.1l-1.31,2.52-.77,3.41" style="fill:#fff;stroke:#263238;stroke-linecap:round;stroke-linejoin:round"></path><path d="M147,198s.77-6.25,1.21-7,2-1.1,2-1.1a25.14,25.14,0,0,0,4.5.77c1.53,0,3.07.22,2.3,1.21a2.51,2.51,0,0,1-2.63,1.1c-1.21-.11-2.64-.33-3-.33s2.53,3.84,2.53,6a7.1,7.1,0,0,1-.55,3.19" style="fill:#fff;stroke:#263238;stroke-linecap:round;stroke-linejoin:round"></path><path d="M189.79,202.29s-2.63-4.71-2.85-7.13a26.59,26.59,0,0,0-.88-4.61,12.1,12.1,0,0,0-3.95-2.41c-2.08-.66-1.65-2.09-.44-2.53s4.5.77,5.71,1.76,2,1.54,2,1.54a14.36,14.36,0,0,0,2.42-.44c.44-.22,1.21-1.32,1-1.76s-4.62-2.82-5.82-3.62c-1.65-1.1-2.3-2.2-2.41-3.07s2-.44,3.73.54,6.58,2.64,8.23,4,3.18,2.52,3.29,3.29.44,8.23-.22,10.2-2.19,12.63-2.19,12.63l-7.8-1Z" style="fill:#fff;stroke:#263238;stroke-linecap:round;stroke-linejoin:round"></path><path d="M197.7,185.39s-1.32-2.85-2.09-3-4.94,1.32-6.8,1-2.75.55-2.2,1.31a3.55,3.55,0,0,0,1.65,1.1s3.62-.44,4.94-.66A22.79,22.79,0,0,1,197.7,185.39Z" style="fill:#fff;stroke:#263238;stroke-linecap:round;stroke-linejoin:round"></path><path d="M199.89,190.55s-.66-3.29-1.21-3.73-1-2.3-2.19-2.3a59.72,59.72,0,0,0-5.93,1s-2.85-.11-2.3,1.32,2.74,2.3,3.51,1.65a10.15,10.15,0,0,1,3.29-1.1l1.32,2.52.77,3.41" style="fill:#fff;stroke:#263238;stroke-linecap:round;stroke-linejoin:round"></path><path d="M199.56,198s-.77-6.25-1.21-7-2-1.1-2-1.1a25.33,25.33,0,0,1-4.5.77c-1.54,0-3.07.22-2.31,1.21a2.52,2.52,0,0,0,2.64,1.1c1.2-.11,2.63-.33,3-.33s-2.52,3.84-2.52,6a7.1,7.1,0,0,0,.55,3.19" style="fill:#fff;stroke:#263238;stroke-linecap:round;stroke-linejoin:round"></path><path d="M142.2,216s3.54,5.18,3.49,15.7,7.31,70.76,6.86,74.78-4,4.91-12.5,4.91-15.84-2.46-16.29-4.91S128.45,269,128.45,269a8.83,8.83,0,0,0,8.92,1.11c4.91-2.23,5.81-4.46,6.92-8.7s-.67-35.7-1.56-38.83a58.67,58.67,0,0,0-2-5.8Z" style="fill:#828282;stroke:#263238;stroke-linecap:round;stroke-linejoin:round"></path><path d="M127.21,278.47s6.46,2.15,17.46-1.67l-.24,5s-10.76,3.11-17.7.24" style="fill:none;stroke:#263238;stroke-linecap:round;stroke-linejoin:round"></path><path d="M148.13,206.23s-1.4,19.35-2.44,25.46-2.45,26.15-2.79,28.94,7.67,11.86,11.85,10.12,7.85-13.08,7.68-19.36-4.89-33.31-5.06-36.62-.52-8.37-.52-8.37A23.62,23.62,0,0,1,148.13,206.23Z" style="fill:#25FFEB;stroke:#263238;stroke-linecap:round;stroke-linejoin:round"></path><path d="M188.93,204.48s1.22,10.81,2.09,22,3.14,32.79,4.54,34.36,6.8,4,9.59,3.31,7.15-6.8,7.85-10.11-7.5-22.85-8.37-26.86-5.41-13.25-5.76-15.17a64.11,64.11,0,0,1-.35-7.15S193.12,205.7,188.93,204.48Z" style="fill:#25FFEB;stroke:#263238;stroke-linecap:round;stroke-linejoin:round"></path><path d="M185.52,178.85a1.48,1.48,0,0,0-.37-.24,15.06,15.06,0,0,0-7.66-.68,5.45,5.45,0,0,0-2.94,1.61l.06-.18a1.31,1.31,0,0,0-.7-.46l-1.69,0a1.53,1.53,0,0,0-.81.49,5.74,5.74,0,0,0-2.8-1.56,15.15,15.15,0,0,0-7.67.47,1.66,1.66,0,0,0-.38.23,4.6,4.6,0,0,0-.1,1.34c0,.37.24.14.37.45a14.38,14.38,0,0,0,1.27,4.64,5.26,5.26,0,0,0,8.84-.7,16,16,0,0,0,1.07-3.67,1.3,1.3,0,0,1,1-.51,1.62,1.62,0,0,1,1.06.46s0,0,0,0a16.86,16.86,0,0,0,1,3.72,5,5,0,0,0,4,2.87,5.06,5.06,0,0,0,4.83-1.92,14.19,14.19,0,0,0,1.38-4.61c.14-.31.38-.07.38-.44A4.43,4.43,0,0,0,185.52,178.85ZM171,181.63a4.85,4.85,0,0,1-4.56,4.61,4.33,4.33,0,0,1-4.47-4.45c0-2.21,2.11-3.6,4.57-3.57S171,179.42,171,181.63Zm13.06.46a4.32,4.32,0,0,1-4.58,4.32,4.87,4.87,0,0,1-4.45-4.72c0-2.22,2.08-3.32,4.54-3.29S184.07,179.88,184.05,182.09Z" style="fill:#263238"></path></g></svg>
