<svg version="1.1" xmlns="http://www.w3.org/2000/svg" style="display: block;" viewBox="0 0 2048 2048" width="1024" height="1024" preserveAspectRatio="none">
<path transform="translate(0,0)" fill="rgb(0,0,0)" d="M 872.847 436.952 C 832.79 425.26 818.552 376.864 845.584 346.075 C 855.432 334.777 869.485 328.014 884.46 327.367 C 952.472 324.873 965.797 421.397 899.657 437.307 C 893.792 438.718 886.537 438.209 880.473 437.987 C 878.017 459.833 871.174 497.293 866.921 519.127 C 876.122 523.495 882.934 525.629 890.519 532.75 C 910.914 551.899 910.528 574.666 902.374 598.303 C 910.228 601.178 922.962 608.512 930.794 612.641 L 975.907 636.207 C 977.982 632.601 979.885 629.817 982.723 626.706 C 992.818 615.638 1007.03 609.22 1022.01 608.962 C 1039.27 608.647 1051.01 614.754 1063.12 626.279 C 1085.72 612.937 1113.76 593.591 1136.33 579.055 C 1132.96 568.372 1130.79 559.804 1131.67 548.453 C 1132.82 533.652 1140.05 519.987 1151.64 510.717 C 1174.48 492.248 1214.01 494.829 1231.06 519.323 C 1274.21 581.287 1187.28 648.534 1140.63 584.457 C 1118.58 600.555 1091.71 616.796 1068.59 632.351 C 1088.55 667.797 1073.3 709.986 1031.19 716.743 C 1031.23 743.447 1032.8 785.463 1031.15 810.634 C 1034.61 811.187 1038.06 811.873 1041.47 812.69 C 1055.22 816.03 1067.06 824.72 1074.37 836.83 C 1084.2 853.439 1082.36 868.407 1078.13 885.891 C 1100.71 897.96 1127.5 914.327 1149.35 927.991 C 1177.93 886.741 1246.88 902.342 1249.78 956.011 C 1250.58 970.909 1245.39 985.507 1235.35 996.55 C 1225.63 1007.13 1213.19 1012.47 1199.07 1013.21 C 1199.38 1044.3 1199.45 1075.39 1199.3 1106.49 C 1219.66 1107.7 1237.51 1119.39 1246.16 1138 C 1254.53 1156.04 1251.28 1171.07 1244.52 1188.39 C 1264.86 1203.04 1285.74 1219.75 1305.58 1235.25 C 1311.53 1229.52 1315.86 1226.13 1323.46 1222.62 C 1338.1 1215.84 1354.87 1215.36 1369.87 1221.29 C 1385.17 1227.37 1393.19 1237.34 1399.25 1251.96 C 1428.3 1241.26 1454.11 1233.8 1483.87 1225.08 C 1480.31 1211.71 1480.24 1198.21 1485.47 1185.23 C 1490.98 1171.5 1501.89 1160.65 1515.64 1155.21 C 1529.39 1149.71 1546.02 1150.23 1559.6 1156 C 1569.8 1134.4 1581.93 1109.28 1591.12 1087.36 L 1573.87 1083.3 C 1584.01 1073.47 1599.99 1061.93 1611.59 1053.09 C 1610.59 1068.82 1611.51 1085.14 1611.63 1101.01 C 1606.82 1096.87 1602.96 1093.99 1597.83 1090.26 C 1586.92 1110.33 1575.65 1137.6 1565.43 1158.95 C 1568.55 1160.91 1570.55 1162.34 1573.35 1164.78 C 1584.69 1174.75 1591.49 1188.91 1592.17 1203.99 C 1593.05 1222.9 1585.75 1236.01 1573.4 1249.15 C 1589.02 1274.59 1603.58 1300.34 1619.18 1325.75 L 1632.39 1311.85 C 1633.7 1325.91 1634.8 1344.05 1635.26 1358.03 C 1622.81 1352.32 1607.03 1341.23 1595.2 1333.9 L 1612.96 1329.15 C 1598.25 1303.51 1583.31 1278 1568.15 1252.63 C 1535.44 1268.96 1508.56 1262.85 1487.31 1232.16 C 1458.67 1240.82 1430.11 1249.74 1401.64 1258.91 C 1402.09 1262.5 1402.42 1266.11 1402.63 1269.72 C 1403.48 1284.24 1398.43 1298.49 1388.62 1309.24 C 1375.57 1323.33 1361.84 1326.26 1343.85 1326.81 C 1335.25 1343 1311.69 1376.09 1300.55 1391.95 C 1282.56 1417.58 1261.43 1450.77 1242.06 1474.33 C 1243.99 1478.52 1246.05 1482.78 1247.6 1487.12 C 1262.3 1528.39 1229.18 1568.54 1185.48 1560.39 C 1170.77 1557.75 1157.81 1549.13 1149.68 1536.58 C 1140.87 1522.75 1139.86 1507.39 1143.03 1491.72 C 1120.69 1480.79 1093.74 1468.99 1070.82 1459.13 C 1053.33 1487.65 1026.73 1498.86 994.616 1483.5 C 983.7 1478.28 976.72 1468.6 971.44 1457.95 C 944.191 1470.36 917.611 1482.53 889.572 1493.16 C 891.976 1509.62 891.49 1522.28 882.229 1537.14 C 874.671 1549.16 862.536 1557.58 848.63 1560.44 C 830.593 1564.07 817.023 1560.03 801.97 1550.2 C 791.924 1560.73 780.046 1576.3 770.694 1587.98 C 759.637 1601.78 746.565 1617.38 736.448 1631.61 C 741.035 1637.33 744.442 1641.8 747.539 1648.53 C 754.227 1662.67 754.782 1678.95 749.074 1693.52 C 743.243 1708.81 731.769 1719.82 716.963 1726.46 C 726.739 1750.61 739.387 1779.64 746.479 1804.14 C 756.495 1802.11 767.643 1802.24 777.508 1805.04 C 791.724 1808.98 803.756 1818.48 810.891 1831.4 C 818.397 1844.96 819.654 1861.72 815.127 1876.46 C 810.692 1890.85 800.687 1902.86 787.341 1909.83 C 773.591 1916.97 756.069 1917.73 741.5 1912.59 C 727.276 1907.59 715.647 1897.1 709.215 1883.46 C 694.759 1852.04 710.007 1819.68 740.602 1805.77 C 730.036 1781.12 720.018 1754.1 710.472 1728.99 C 668.868 1734.81 639.001 1710.12 638.92 1667.87 L 565.958 1655.83 C 545.112 1727.39 453.82 1708.73 453.315 1644.25 C 452.722 1568.6 570.471 1567.7 566.53 1649.44 C 591.488 1652.23 615.371 1656.84 640.18 1660.2 C 642.497 1653.4 645.197 1647.12 649.254 1641.17 C 657.87 1628.48 671.258 1619.8 686.37 1617.13 C 701.368 1614.23 716.903 1617.57 729.376 1626.39 C 751.541 1600.53 774.235 1571.14 795.463 1544.24 C 772.863 1514.69 775.133 1486.42 803.385 1461.79 C 796.636 1452.4 788.924 1438.53 782.762 1428.32 C 770.387 1407.98 758.153 1387.54 746.061 1367.03 C 739.763 1356.34 720.391 1325.48 716.414 1314.95 C 694.715 1323.56 671.212 1323.36 653.175 1306.31 C 642.661 1296.27 636.467 1282.54 635.905 1268.01 C 635.306 1252.83 639.987 1238.44 650.624 1227.32 C 660.378 1217.07 673.821 1211.13 687.968 1210.84 C 708.598 1210.22 719.119 1217.07 733.239 1230.51 L 799.35 1187.77 C 789.432 1169.97 790.183 1147.88 801.741 1131.02 C 813.098 1114.45 825.842 1110.25 844.264 1106.81 L 844.039 1017.36 C 838.824 1017.02 832.666 1016.31 827.743 1014.62 C 813.544 1009.81 801.957 999.357 795.709 985.727 C 788.491 969.605 790.682 954.455 796.889 938.816 C 770.695 922.884 743.965 907.997 717.961 892.032 C 713.963 898.06 710.479 902.802 704.897 907.385 C 671.486 934.82 615.488 914.126 614.518 868.48 C 614.397 862.776 615.02 858.426 615.813 852.894 C 583.513 835.402 552.161 816.087 519.476 798.678 C 503.648 827.322 473.032 838.952 442.459 824.445 C 433.282 820.091 427.212 813.394 420.631 805.877 C 395.134 831.184 369.938 856.793 345.05 882.699 C 348.822 884.577 356.879 887.529 357.68 891.62 C 355.087 894.451 345.541 897.499 341.148 899.205 C 335.865 900.403 321.027 905.131 316.163 907.401 C 321.321 892.838 325.573 876.143 330.898 862.492 C 334.569 869 336.185 871.264 340.871 877.116 C 350.506 867.172 417.383 803.193 417.08 799.063 C 416.916 796.821 414.749 792.724 414.001 790.402 C 411.658 783.128 411.483 774.534 412.234 766.951 C 413.664 752.524 421.536 738.833 432.853 729.83 C 444.887 720.255 460.866 716.384 476.032 718.264 C 490.609 720.019 503.859 727.591 512.77 739.26 C 525.162 755.453 525.32 771.961 522.498 791.018 C 541.091 802.076 560.424 812.788 579.388 823.22 C 591.047 829.632 605.641 839.343 617.277 844.803 C 620.094 842.297 621.919 837.344 624.506 833.951 C 636.673 817.994 647.389 813.596 666.003 810.628 L 666.192 715.965 C 664.15 715.654 662.119 715.276 660.102 714.831 C 645.649 711.402 633.153 702.366 625.369 689.715 C 617.574 676.979 615.615 660.849 619.343 646.483 C 631.281 600.47 695.754 592.246 718.944 633.769 C 727.106 629.008 739.957 623.273 748.721 619.087 L 802.911 593.249 C 799.855 585.465 798.56 578.811 798.886 570.449 C 799.369 556.341 805.474 543.011 815.84 533.429 C 828.421 521.854 842.736 517.872 859.473 518.645 C 863.764 491.387 868.222 464.156 872.847 436.952 z M 722.608 639.443 C 732.771 679.543 717.483 710.855 673.976 715.893 C 673.711 746.64 673.838 780.055 672.766 810.578 C 706.713 816.177 729.641 839.679 722.921 876.227 C 722.388 879.148 721.782 882.055 721.104 884.946 C 746.532 901.003 774.962 916.993 801.123 932.176 C 819.999 907.978 851.856 901.445 878.162 919.237 C 880.624 920.902 886.679 927.983 888.757 928.505 L 976.285 881.698 C 967.708 842.711 985.764 818.349 1024.15 810.796 C 1024.21 779.856 1024.65 748.016 1024.13 717.148 C 980.731 715.702 961.417 683.407 971.709 643.223 C 950.436 630.288 921.314 616.039 898.77 603.983 C 880.226 629.098 845.743 634.8 820.124 616.438 C 813.785 611.894 810.337 604.604 805.587 600.262 C 788.056 608.778 770.415 617.067 752.668 625.125 C 744.759 628.76 729.665 635.17 722.608 639.443 z M 990.204 904.045 C 961.345 919.286 927.679 938.466 898.771 952.096 C 900.522 989.09 888.455 1009.64 850.998 1017.86 L 851.249 1106.76 C 893.396 1111.91 911.295 1147.14 896.85 1185.51 C 923.184 1198.96 947.168 1213.39 972.83 1227.4 L 978.829 1218.15 C 982.874 1213.54 987.476 1208.99 992.977 1206.24 C 1024.85 1190.3 1049.85 1200.96 1067.9 1227.57 C 1093.53 1213.16 1120.21 1199.37 1145.38 1184.42 C 1139.43 1170.86 1139.07 1155.5 1144.36 1141.66 C 1149.88 1127.58 1160.9 1116.35 1174.88 1110.56 C 1180.49 1108.24 1186.08 1107.3 1192.05 1106.53 L 1192 1013.28 C 1186.62 1012.68 1180.23 1012.23 1175.17 1010.27 C 1143.44 997.963 1132.73 965.836 1144.82 935.403 C 1136.25 929.599 1082.14 894.078 1074.84 892.436 C 1054.17 923.885 1018.76 928.848 990.204 904.045 z M 1221.31 1457.3 C 1247.67 1417.79 1276.52 1379.4 1303.07 1339.97 C 1307.77 1332.98 1312.94 1325.4 1318.18 1318.88 C 1292.62 1297.69 1283.69 1272.14 1301.38 1241.65 C 1282.13 1226.95 1259.02 1208.32 1239.41 1194.92 C 1232.23 1202.7 1226.23 1208.53 1215.83 1212.24 C 1197.29 1218.86 1175.55 1216.23 1160.3 1203.35 C 1157.68 1201.14 1151.21 1193.13 1148.79 1191.97 C 1122.68 1205.94 1096.79 1220.99 1070.8 1235.31 C 1075.41 1250.69 1075.35 1264.74 1067.73 1279.38 C 1060.95 1292.32 1049.08 1301.84 1034.97 1305.64 C 1031.07 1306.7 1027.11 1307.16 1023.09 1307.46 C 1023.22 1331.16 1024.28 1357.31 1024.02 1380.55 C 1063.41 1388.06 1081.28 1411.83 1073.78 1451.57 C 1097.68 1462.3 1122.1 1472.62 1145.78 1483.71 C 1156.32 1464.94 1168.81 1455.17 1190.8 1452.1 C 1202.43 1451.99 1210.38 1452.15 1221.31 1457.3 z M 1228.73 1460.49 C 1230.98 1462.64 1235.59 1467.89 1237.97 1468.22 C 1271.53 1424.92 1303.8 1370.12 1336.91 1325.95 C 1333.31 1324.74 1329.28 1323.27 1325.66 1322.27 C 1292.62 1366.02 1261.82 1415.67 1228.73 1460.49 z M 803.872 1194.37 C 781.94 1208.21 759.709 1223.2 737.387 1236.14 C 749.619 1266.73 748.608 1289.69 721.643 1311.72 C 741.059 1343.16 760.239 1374.75 779.182 1406.48 C 788.342 1421.79 800.166 1442.97 809.864 1457.5 C 823.28 1452.51 833.745 1450.03 848.209 1453.06 C 866.164 1457.95 876.045 1465.74 885.298 1481.83 C 886.181 1483.37 887.02 1484.92 887.814 1486.5 C 913.4 1474.8 942.317 1460.85 968.335 1450.57 C 962.611 1414.58 979.573 1386.36 1016.77 1381.36 C 1014.81 1358.48 1016.55 1331.02 1015.61 1307.49 C 977.859 1300.52 961.509 1273.39 968.531 1236.88 C 968.724 1235.89 968.927 1234.9 969.142 1233.9 C 949.394 1224.77 929.567 1211.06 910.167 1200.9 C 905.746 1198.58 897.608 1193.56 893.242 1191.83 C 869.205 1220.84 828.545 1224.96 803.872 1194.37 z M 892.726 935.714 C 893.79 938.52 895.097 942.9 897.052 944.866 L 899.453 944.215 C 928.136 929.039 956.694 913.629 985.124 897.986 C 983.009 894.65 982.065 893.192 979.525 890.206 L 978.201 889.929 C 950.163 905.636 921.081 920.06 892.726 935.714 z"/>
<path transform="translate(0,0)" fill="rgb(138,160,122)" d="M 503.787 1593.91 C 522.018 1591.69 540.03 1599.47 550.913 1614.26 C 561.796 1629.06 563.859 1648.57 556.311 1665.31 C 548.763 1682.05 532.776 1693.43 514.484 1695.07 C 486.816 1697.55 462.273 1677.38 459.352 1649.75 C 456.431 1622.13 476.212 1597.27 503.787 1593.91 z"/>
<path transform="translate(0,0)" fill="rgb(250,254,253)" d="M 483.485 1616.63 C 490.533 1614.13 498.276 1617.82 500.767 1624.88 C 503.257 1631.93 499.548 1639.66 492.489 1642.14 C 485.451 1644.61 477.744 1640.91 475.261 1633.88 C 472.778 1626.85 476.457 1619.13 483.485 1616.63 z"/>
<path transform="translate(0,0)" fill="rgb(226,107,101)" d="M 751.956 1809.49 C 769.936 1806.23 788.281 1812.91 799.956 1826.96 C 811.631 1841.02 814.826 1860.28 808.315 1877.36 C 801.804 1894.43 786.598 1906.67 768.527 1909.39 C 741.169 1913.5 715.576 1894.89 711.048 1867.6 C 706.521 1840.31 724.736 1814.44 751.956 1809.49 z"/>
<path transform="translate(0,0)" fill="rgb(250,254,253)" d="M 734.233 1831.77 C 738.734 1829.88 743.903 1830.56 747.768 1833.54 C 751.632 1836.52 753.595 1841.35 752.907 1846.18 C 752.22 1851.02 748.988 1855.11 744.445 1856.89 C 737.532 1859.61 729.717 1856.26 726.92 1849.38 C 724.122 1842.5 727.383 1834.65 734.233 1831.77 z"/>
<path transform="translate(0,0)" fill="rgb(226,107,101)" d="M 686.768 1623.6 C 714.24 1618.29 740.797 1636.32 745.983 1663.82 C 751.169 1691.32 733.006 1717.79 705.485 1722.84 C 678.148 1727.87 651.892 1709.85 646.74 1682.54 C 641.589 1655.22 659.479 1628.88 686.768 1623.6 z"/>
<path transform="translate(0,0)" fill="rgb(250,254,253)" d="M 671.177 1645.58 C 678.404 1644.21 685.386 1648.91 686.841 1656.12 C 688.296 1663.33 683.683 1670.37 676.492 1671.91 C 671.761 1672.93 666.851 1671.32 663.636 1667.7 C 660.421 1664.09 659.398 1659.02 660.959 1654.44 C 662.52 1649.86 666.424 1646.48 671.177 1645.58 z"/>
<path transform="translate(0,0)" fill="rgb(246,195,87)" d="M 459.139 724.736 C 486.652 719.74 512.971 738.102 517.78 765.648 C 522.589 793.194 504.048 819.387 476.47 824.008 C 449.156 828.585 423.269 810.261 418.506 782.979 C 413.743 755.697 431.891 729.685 459.139 724.736 z"/>
<path transform="translate(0,0)" fill="rgb(250,254,253)" d="M 443.036 747.395 C 450.238 745.856 457.358 750.325 459.103 757.48 C 460.849 764.635 456.587 771.88 449.485 773.831 C 444.706 775.144 439.591 773.755 436.132 770.205 C 432.673 766.656 431.417 761.507 432.853 756.763 C 434.288 752.019 438.189 748.431 443.036 747.395 z"/>
<path transform="translate(0,0)" fill="rgb(226,107,101)" d="M 883.268 333.629 C 910.491 331.267 934.504 351.352 936.989 378.564 C 939.475 405.777 919.498 429.88 892.297 432.489 C 864.922 435.114 840.63 414.981 838.129 387.594 C 835.627 360.207 855.87 336.007 883.268 333.629 z"/>
<path transform="translate(0,0)" fill="rgb(250,254,253)" d="M 860.433 354.553 C 864.992 352.651 870.224 353.361 874.111 356.409 C 877.998 359.457 879.935 364.368 879.175 369.25 C 878.415 374.131 875.077 378.22 870.446 379.942 C 863.479 382.533 855.719 379.072 852.992 372.157 C 850.265 365.242 853.573 357.416 860.433 354.553 z"/>
<path transform="translate(0,0)" fill="rgb(138,160,122)" d="M 1177.6 505.43 C 1195.13 502.006 1213.14 508.267 1224.77 521.824 C 1236.4 535.38 1239.84 554.14 1233.79 570.944 C 1227.74 587.747 1213.12 600.001 1195.52 603.029 C 1168.73 607.638 1143.22 589.83 1138.31 563.091 C 1133.4 536.352 1150.92 510.641 1177.6 505.43 z"/>
<path transform="translate(0,0)" fill="rgb(250,254,253)" d="M 1159.97 526.507 C 1167.1 523.983 1174.92 527.647 1177.55 534.732 C 1180.17 541.817 1176.62 549.696 1169.57 552.419 C 1164.92 554.215 1159.67 553.369 1155.82 550.206 C 1151.97 547.043 1150.12 542.052 1150.98 537.144 C 1151.84 532.236 1155.28 528.172 1159.97 526.507 z"/>
<path transform="translate(0,0)" fill="rgb(246,195,87)" d="M 1527.88 1158.24 C 1554.43 1153.3 1579.98 1170.71 1585.11 1197.22 C 1590.23 1223.73 1573 1249.41 1546.53 1254.72 C 1519.79 1260.08 1493.8 1242.64 1488.62 1215.87 C 1483.45 1189.09 1501.07 1163.23 1527.88 1158.24 z"/>
<path transform="translate(0,0)" fill="rgb(250,254,253)" d="M 1509.51 1179.63 C 1516.6 1176.79 1524.64 1180.27 1527.42 1187.38 C 1530.2 1194.49 1526.66 1202.5 1519.53 1205.23 C 1512.48 1207.93 1504.57 1204.43 1501.82 1197.4 C 1499.06 1190.36 1502.5 1182.43 1509.51 1179.63 z"/>
<path transform="translate(0,0)" fill="rgb(88,99,103)" d="M 1343.21 1223.43 C 1369.96 1220.92 1393.76 1240.4 1396.57 1267.12 C 1399.39 1293.85 1380.18 1317.86 1353.49 1320.99 C 1335.95 1323.04 1318.66 1315.51 1308.22 1301.26 C 1297.78 1287.02 1295.81 1268.26 1303.05 1252.16 C 1310.29 1236.05 1325.63 1225.08 1343.21 1223.43 z"/>
<path transform="translate(0,0)" fill="rgb(250,254,253)" d="M 1319.78 1243.6 C 1324.44 1241.69 1329.77 1242.47 1333.7 1245.63 C 1337.62 1248.79 1339.53 1253.83 1338.66 1258.79 C 1337.8 1263.76 1334.3 1267.86 1329.54 1269.5 C 1322.46 1271.95 1314.71 1268.32 1312.06 1261.3 C 1309.42 1254.28 1312.84 1246.44 1319.78 1243.6 z"/>
<path transform="translate(0,0)" fill="rgb(226,107,101)" d="M 681.168 1217.73 C 707.849 1212.41 733.751 1229.86 738.836 1256.59 C 743.921 1283.32 726.237 1309.06 699.466 1313.91 C 673.029 1318.7 647.675 1301.28 642.654 1274.89 C 637.633 1248.5 654.82 1222.99 681.168 1217.73 z"/>
<path transform="translate(0,0)" fill="rgb(250,254,253)" d="M 664.713 1237.74 C 672.06 1235.91 679.506 1240.36 681.368 1247.7 C 683.231 1255.04 678.809 1262.51 671.477 1264.4 C 664.102 1266.3 656.585 1261.85 654.712 1254.47 C 652.839 1247.08 657.323 1239.59 664.713 1237.74 z"/>
<path transform="translate(0,0)" fill="rgb(88,99,103)" d="M 832.021 1458.1 C 858.959 1455.88 882.59 1475.93 884.798 1502.86 C 887.006 1529.8 866.954 1553.43 840.016 1555.63 C 813.088 1557.83 789.474 1537.78 787.267 1510.86 C 785.06 1483.93 805.095 1460.31 832.021 1458.1 z"/>
<path transform="translate(0,0)" fill="rgb(250,254,253)" d="M 810.04 1477.51 C 814.839 1476.05 820.049 1477.31 823.661 1480.79 C 827.273 1484.26 828.722 1489.42 827.449 1494.27 C 826.176 1499.12 822.38 1502.91 817.525 1504.16 C 810.23 1506.05 802.764 1501.76 800.727 1494.5 C 798.689 1487.25 802.828 1479.7 810.04 1477.51 z"/>
<path transform="translate(0,0)" fill="rgb(246,195,87)" d="M 1184.96 911.438 C 1211.51 905.864 1237.52 922.953 1242.95 949.53 C 1248.38 976.107 1231.15 1002.03 1204.54 1007.31 C 1178.14 1012.55 1152.47 995.48 1147.08 969.109 C 1141.69 942.737 1158.62 916.968 1184.96 911.438 z"/>
<path transform="translate(0,0)" fill="rgb(250,254,253)" d="M 1168.41 932.545 C 1175.25 929.863 1182.98 933.134 1185.81 939.909 C 1188.64 946.684 1185.54 954.48 1178.83 957.46 C 1174.35 959.447 1169.15 958.857 1165.24 955.918 C 1161.32 952.979 1159.3 948.15 1159.96 943.299 C 1160.62 938.448 1163.86 934.333 1168.41 932.545 z"/>
<path transform="translate(0,0)" fill="rgb(246,195,87)" d="M 1190.55 1458.28 C 1208.01 1456.12 1225.3 1463.52 1235.8 1477.64 C 1246.3 1491.76 1248.41 1510.44 1241.32 1526.55 C 1234.22 1542.66 1219.02 1553.72 1201.51 1555.51 C 1174.84 1558.23 1150.94 1538.97 1147.93 1512.32 C 1144.92 1485.67 1163.93 1461.57 1190.55 1458.28 z"/>
<path transform="translate(0,0)" fill="rgb(250,254,253)" d="M 1170.64 1479.53 C 1175.47 1478.07 1180.72 1479.39 1184.3 1482.95 C 1187.89 1486.51 1189.23 1491.75 1187.81 1496.59 C 1186.39 1501.44 1182.42 1505.12 1177.48 1506.18 C 1170.26 1507.72 1163.1 1503.29 1161.26 1496.14 C 1159.43 1488.99 1163.56 1481.66 1170.64 1479.53 z"/>
<path transform="translate(0,0)" fill="rgb(138,160,122)" d="M 1186.26 1113.34 C 1212.75 1107.98 1238.56 1125.12 1243.89 1151.6 C 1249.22 1178.09 1232.05 1203.88 1205.56 1209.18 C 1179.11 1214.47 1153.37 1197.34 1148.05 1170.9 C 1142.73 1144.45 1159.83 1118.7 1186.26 1113.34 z"/>
<path transform="translate(0,0)" fill="rgb(250,254,253)" d="M 1171.9 1132.58 C 1179.33 1131.43 1186.31 1136.47 1187.57 1143.89 C 1188.83 1151.31 1183.9 1158.36 1176.5 1159.73 C 1171.61 1160.64 1166.62 1158.84 1163.43 1155.02 C 1160.24 1151.21 1159.35 1145.98 1161.11 1141.33 C 1162.86 1136.68 1166.99 1133.33 1171.9 1132.58 z"/>
<path transform="translate(0,0)" fill="rgb(88,99,103)" d="M 839.534 1113.42 C 866.182 1109.04 891.294 1127.21 895.463 1153.9 C 899.633 1180.58 881.262 1205.55 854.548 1209.51 C 828.129 1213.42 803.496 1195.3 799.373 1168.91 C 795.249 1142.52 813.179 1117.75 839.534 1113.42 z"/>
<path transform="translate(0,0)" fill="rgb(250,254,253)" d="M 820.851 1132.36 C 825.715 1131.06 830.904 1132.48 834.421 1136.09 C 837.937 1139.69 839.232 1144.92 837.807 1149.75 C 836.381 1154.58 832.458 1158.26 827.548 1159.38 C 820.153 1161.06 812.771 1156.52 810.946 1149.16 C 809.121 1141.8 813.526 1134.33 820.851 1132.36 z"/>
<path transform="translate(0,0)" fill="rgb(246,195,87)" d="M 662.422 817.407 C 688.94 813.569 713.56 831.922 717.457 858.431 C 721.354 884.941 703.057 909.602 676.556 913.559 C 649.971 917.528 625.215 899.16 621.305 872.566 C 617.396 845.972 635.819 821.257 662.422 817.407 z"/>
<path transform="translate(0,0)" fill="rgb(250,254,253)" d="M 642.668 837.662 C 647.306 835.841 652.569 836.697 656.392 839.894 C 660.214 843.092 661.987 848.12 661.015 853.008 C 660.043 857.896 656.481 861.863 651.726 863.354 C 644.721 865.551 637.235 861.805 634.794 854.881 C 632.353 847.958 635.834 840.345 642.668 837.662 z"/>
<path transform="translate(0,0)" fill="rgb(226,107,101)" d="M 666.577 613.273 C 693.337 610.26 717.416 629.654 720.174 656.441 C 722.932 683.228 703.311 707.121 676.499 709.625 C 650.044 712.096 626.538 692.793 623.817 666.363 C 621.095 639.933 640.174 616.245 666.577 613.273 z"/>
<path transform="translate(0,0)" fill="rgb(250,254,253)" d="M 646.837 632.584 C 654.294 631.138 661.504 636.037 662.907 643.503 C 664.309 650.969 659.367 658.15 651.893 659.508 C 644.481 660.854 637.373 655.963 635.982 648.559 C 634.592 641.155 639.441 634.018 646.837 632.584 z"/>
<path transform="translate(0,0)" fill="rgb(138,160,122)" d="M 1012.45 1388.3 C 1038.68 1383.32 1063.99 1400.5 1069.04 1426.71 C 1074.1 1452.92 1056.99 1478.28 1030.79 1483.41 C 1004.49 1488.56 979.008 1471.37 973.933 1445.05 C 968.859 1418.74 986.122 1393.3 1012.45 1388.3 z"/>
<path transform="translate(0,0)" fill="rgb(250,254,253)" d="M 994.868 1407.47 C 999.556 1405.79 1004.79 1406.78 1008.54 1410.06 C 1012.29 1413.34 1013.97 1418.39 1012.92 1423.26 C 1011.88 1428.13 1008.28 1432.05 1003.51 1433.51 C 996.389 1435.68 988.835 1431.77 986.489 1424.71 C 984.143 1417.64 987.862 1409.99 994.868 1407.47 z"/>
<path transform="translate(0,0)" fill="rgb(88,99,103)" d="M 846.289 525.263 C 872.487 521.266 897.013 539.125 901.252 565.285 C 905.491 591.445 887.86 616.135 861.74 620.616 C 835.277 625.156 810.19 607.242 805.895 580.737 C 801.6 554.233 819.746 529.313 846.289 525.263 z"/>
<path transform="translate(0,0)" fill="rgb(250,254,253)" d="M 827.632 543.716 C 834.696 541.141 842.519 544.721 845.188 551.751 C 847.856 558.781 844.379 566.65 837.385 569.411 C 832.778 571.23 827.548 570.429 823.697 567.314 C 819.846 564.199 817.968 559.253 818.783 554.368 C 819.598 549.482 822.978 545.413 827.632 543.716 z"/>
<path transform="translate(0,0)" fill="rgb(88,99,103)" d="M 842.725 915.574 C 869.33 913.939 892.212 934.204 893.807 960.811 C 895.402 987.419 875.103 1010.27 848.494 1011.83 C 821.94 1013.38 799.145 993.132 797.554 966.58 C 795.963 940.029 816.175 917.204 842.725 915.574 z"/>
<path transform="translate(0,0)" fill="rgb(250,254,253)" d="M 820.872 934.547 C 828.398 933.005 835.749 937.855 837.292 945.381 C 838.835 952.907 833.985 960.258 826.46 961.802 C 818.933 963.346 811.58 958.495 810.037 950.969 C 808.494 943.442 813.345 936.089 820.872 934.547 z"/>
<path transform="translate(0,0)" fill="rgb(226,107,101)" d="M 1023.11 817.521 C 1049.73 814.702 1073.55 834.112 1076.16 860.751 C 1078.77 887.391 1059.17 911.053 1032.51 913.452 C 1006.15 915.824 982.804 896.491 980.224 870.147 C 977.644 843.803 996.792 820.309 1023.11 817.521 z"/>
<path transform="translate(0,0)" fill="rgb(250,254,253)" d="M 1002.2 837.485 C 1009.21 834.633 1017.2 838.002 1020.06 845.01 C 1022.91 852.019 1019.55 860.014 1012.54 862.869 C 1005.53 865.725 997.529 862.357 994.675 855.346 C 991.82 848.335 995.19 840.338 1002.2 837.485 z"/>
<path transform="translate(0,0)" fill="rgb(88,99,103)" d="M 1018.81 615.428 C 1045.25 613.119 1068.58 632.629 1070.98 659.06 C 1073.38 685.492 1053.95 708.885 1027.53 711.376 C 1000.98 713.88 977.444 694.334 975.032 667.774 C 972.62 641.213 992.247 617.748 1018.81 615.428 z"/>
<path transform="translate(0,0)" fill="rgb(250,254,253)" d="M 996.405 634.426 C 1003.59 631.808 1011.54 635.557 1014.09 642.771 C 1016.64 649.985 1012.81 657.893 1005.57 660.372 C 998.433 662.818 990.655 659.056 988.14 651.939 C 985.625 644.823 989.313 637.009 996.405 634.426 z"/>
<path transform="translate(0,0)" fill="rgb(246,195,87)" d="M 1012.08 1206.15 C 1037.92 1201.65 1062.56 1218.79 1067.31 1244.58 C 1072.07 1270.37 1055.17 1295.18 1029.43 1300.19 C 1003.33 1305.28 978.09 1288.09 973.265 1261.93 C 968.441 1235.78 985.882 1210.71 1012.08 1206.15 z"/>
<path transform="translate(0,0)" fill="rgb(250,254,253)" d="M 995.075 1225.87 C 1002.01 1223.6 1009.5 1227.23 1012.01 1234.09 C 1014.52 1240.94 1011.15 1248.55 1004.39 1251.3 C 999.799 1253.16 994.558 1252.38 990.72 1249.24 C 986.881 1246.11 985.059 1241.13 985.966 1236.26 C 986.873 1231.39 990.366 1227.41 995.075 1225.87 z"/>
<path transform="translate(0,0)" fill="rgb(249,238,212)" d="M 1733.68 1584.88 L 1515.25 1584.95 L 1459.24 1585.2 C 1448.41 1585.34 1436.11 1586.22 1425.5 1585.19 C 1415.69 1584.23 1405.96 1573.39 1404.52 1563.99 C 1403.58 1547.73 1404.56 1530.95 1404.11 1514.6 C 1403.9 1475.29 1403.72 1436.13 1403.83 1396.84 C 1403.85 1389.56 1405.03 1376.66 1410.37 1371.74 C 1415.31 1367.18 1425.08 1364.89 1431.67 1364.69 C 1454.5 1364.02 1477.98 1364.42 1500.83 1364.49 L 1638.5 1364.58 L 1810.82 1364.24 C 1840.04 1364.18 1869.59 1363.41 1898.76 1364.32 C 1927.04 1365.2 1923.36 1403.26 1923.43 1422.67 L 1923.69 1476.86 L 1923.91 1526.16 C 1924.25 1550.75 1929.6 1571.37 1904.7 1584.92 L 1739.43 1584.82 L 1733.68 1584.88 z"/>
<path transform="translate(0,0)" fill="rgb(0,0,0)" d="M 1798.04 1476.7 C 1801.38 1476.74 1802.2 1476.59 1805.42 1477.75 C 1806.06 1484.27 1806.59 1532.84 1804.9 1535.77 C 1802.2 1536.29 1802.25 1536.48 1799.68 1535.7 L 1798.59 1532.5 C 1789.74 1535.32 1791.77 1538.54 1781.28 1535.77 C 1764.27 1520.99 1772.91 1482.46 1797.98 1498.41 L 1798.04 1476.7 z"/>
<path transform="translate(0,0)" fill="rgb(249,238,212)" d="M 1787.28 1500.6 C 1802.14 1502.7 1801.41 1521.57 1791.78 1530.35 C 1776.35 1529.17 1778.57 1509.8 1787.28 1500.6 z"/>
<path transform="translate(0,0)" fill="rgb(0,0,0)" d="M 1630.32 1494.01 C 1651.43 1495.54 1651.23 1524.08 1638.49 1535.22 C 1633.63 1539.48 1625.66 1532.59 1621.4 1535.2 L 1621.19 1541.17 C 1621.24 1545.35 1621.92 1548.81 1619.82 1551.94 C 1616.91 1552.54 1617.12 1552.52 1614.27 1551.63 C 1612.7 1547.16 1613.25 1502.71 1614.05 1496 L 1615.83 1494.66 C 1619.33 1495.23 1618.28 1495.15 1621.3 1498.49 C 1624.83 1496.4 1626.52 1495.58 1630.32 1494.01 z"/>
<path transform="translate(0,0)" fill="rgb(249,238,212)" d="M 1627.97 1500.56 C 1643.26 1502.45 1641.97 1521.58 1631.99 1530.39 C 1616.85 1527.98 1618.81 1509.53 1627.97 1500.56 z"/>
<path transform="translate(0,0)" fill="rgb(0,0,0)" d="M 1665.94 1494.14 C 1692.04 1494.2 1693.44 1527.13 1673.1 1536.84 C 1646.82 1537.32 1643.9 1503.45 1665.94 1494.14 z"/>
<path transform="translate(0,0)" fill="rgb(249,238,212)" d="M 1666.12 1500.63 C 1683 1501.03 1680.52 1520.15 1672.56 1530.2 C 1656.35 1530.39 1657.41 1510.38 1666.12 1500.63 z"/>
<path transform="translate(0,0)" fill="rgb(0,0,0)" d="M 1758.99 1421.06 C 1785.89 1418.98 1788.98 1450.26 1769.95 1462.78 C 1742.35 1465.93 1739.35 1433.05 1758.99 1421.06 z"/>
<path transform="translate(0,0)" fill="rgb(249,238,212)" d="M 1761.89 1426.56 C 1777.74 1428.9 1776.73 1448.6 1765.87 1457.51 C 1751.31 1454.39 1752.06 1435.8 1761.89 1426.56 z"/>
<path transform="translate(0,0)" fill="rgb(0,0,0)" d="M 1634.98 1405.95 C 1637.89 1405.88 1639.26 1406.01 1642.11 1406.27 C 1647.11 1410.4 1661.16 1440.71 1665.17 1448.66 C 1665.08 1442.06 1663.86 1409.35 1666.37 1405.97 L 1669.27 1405.98 C 1673.89 1411.34 1672.35 1452.98 1672.36 1462.85 C 1669.89 1462.89 1667.86 1462.73 1665.42 1462.57 C 1660.69 1459 1645.96 1427.17 1641.89 1419.28 C 1642.18 1426.42 1643.21 1455.85 1642.1 1461.32 C 1638.32 1462.85 1640.28 1462.5 1635.93 1461.99 C 1634.33 1457.11 1634.96 1413.87 1634.98 1405.95 z"/>
<path transform="translate(0,0)" fill="rgb(0,0,0)" d="M 1526.34 1494.12 C 1535.51 1494.84 1541.03 1497.73 1544.12 1507.03 C 1546.29 1513.77 1545.72 1521.08 1542.55 1527.4 C 1539.4 1533.52 1536.33 1535.23 1530.12 1537.16 C 1505.23 1537.06 1503.19 1499.65 1526.34 1494.12 z"/>
<path transform="translate(0,0)" fill="rgb(249,238,212)" d="M 1525.16 1500.67 C 1541.41 1501.55 1540.4 1520.8 1530.34 1530.12 C 1514.61 1530.21 1516.72 1509.89 1525.16 1500.67 z"/>
<path transform="translate(0,0)" fill="rgb(0,0,0)" d="M 1567.99 1493.99 C 1569.08 1494.11 1575.11 1495.15 1575.09 1495.13 C 1582.94 1504.62 1586.76 1492.89 1596.9 1494.77 C 1604.87 1499.86 1605.94 1530.36 1602.55 1535.47 C 1598.61 1536.52 1600.51 1536.54 1596.63 1535.51 C 1592.96 1529.4 1601.45 1503.24 1589.58 1501.32 C 1579.52 1505.1 1582.12 1515.32 1582.19 1524.75 C 1582.36 1528.11 1582.74 1530.29 1581.69 1533.5 C 1578.98 1536.29 1580.5 1535.81 1577.39 1536.16 C 1569.75 1528.4 1581.77 1510.63 1568.05 1499.54 C 1556.99 1501.61 1564.16 1528.59 1557.92 1535.85 C 1554.59 1536.12 1555.91 1536.63 1553.49 1535.22 C 1552.3 1529.56 1551.95 1500.05 1554.42 1494.55 L 1555.86 1494.28 L 1560.42 1498.37 C 1562.92 1496.86 1565.44 1495.4 1567.99 1493.99 z"/>
<path transform="translate(0,0)" fill="rgb(0,0,0)" d="M 1693.77 1494.78 C 1696.59 1494.75 1698.29 1494.48 1700.86 1495.64 C 1703.51 1504.59 1698.25 1523.02 1705.42 1529.49 C 1722.5 1534.44 1713.04 1503.83 1717.76 1495.93 C 1721.18 1494.36 1719.4 1494.67 1723.33 1495.22 C 1725.05 1498.33 1724.52 1499.85 1724.61 1503.75 C 1724.58 1510.38 1726.76 1533.41 1721.86 1536.14 L 1719.15 1535.19 C 1718.13 1533.43 1718.27 1533.45 1716.92 1531.98 C 1700.45 1546.4 1691.74 1527.77 1693.53 1512.67 C 1694.08 1508.08 1693.68 1499.75 1693.77 1494.78 z"/>
<path transform="translate(0,0)" fill="rgb(0,0,0)" d="M 1490.49 1479.07 C 1494.92 1478.95 1503 1478.45 1506.06 1481.82 C 1505.11 1490.04 1486.14 1483.53 1481.61 1493.17 C 1471.24 1515.23 1480.05 1532.8 1504.76 1528.15 C 1505.52 1531.63 1505.95 1532.59 1503.66 1535.08 C 1468.09 1547.7 1454.2 1491.14 1490.49 1479.07 z"/>
<path transform="translate(0,0)" fill="rgb(0,0,0)" d="M 1734.09 1494.37 L 1738.56 1495.09 C 1742.87 1499.2 1743.77 1498.29 1749.36 1495.14 C 1767.47 1484.94 1767.31 1529.55 1763.75 1535.43 C 1760.45 1536.51 1762.07 1536.44 1758.7 1535.64 C 1755.75 1532.02 1757.02 1516.78 1757.09 1510.75 C 1757.14 1504.37 1755.33 1502.63 1749.7 1501.05 C 1736.47 1503.99 1745.64 1530.64 1740.6 1536.04 C 1737.03 1536.39 1738.67 1536.69 1735.49 1535.16 C 1733.62 1532.35 1734.22 1500.53 1734.09 1494.37 z"/>
<path transform="translate(0,0)" fill="rgb(0,0,0)" d="M 1823.75 1494.16 C 1827.62 1494.25 1831.65 1494.1 1834.94 1495.96 C 1836.5 1498.95 1836.17 1497.32 1835.28 1501.12 C 1830.46 1504.25 1829.55 1498.5 1822.94 1502.02 C 1819.26 1510.86 1858.35 1527.62 1826.03 1537.06 C 1821.21 1536.86 1818.86 1537.04 1814.68 1534.92 C 1812.54 1531.92 1813.03 1533.59 1813.52 1529.62 C 1818.28 1526.63 1823.07 1533.18 1829.85 1527.41 C 1830.19 1517.53 1796.47 1507.19 1823.75 1494.16 z"/>
<path transform="translate(0,0)" fill="rgb(0,0,0)" d="M 1707.68 1410.83 C 1710.26 1413.84 1708.76 1415.76 1709.43 1419.1 C 1710.17 1422.75 1713.5 1419.89 1718.26 1422.47 C 1718.87 1426.21 1719.38 1424.73 1717.76 1427.34 C 1713.93 1427.72 1711.8 1427.09 1709.62 1430.26 C 1709.08 1437.51 1708.09 1449.36 1712.51 1455.18 C 1714.99 1456.43 1715.72 1456.66 1717.89 1458.46 L 1718.2 1462.93 C 1691.85 1464.83 1705.69 1441.4 1701.52 1428.58 C 1698.21 1427.94 1699.16 1428.62 1696.9 1426.69 L 1697.02 1423.68 C 1702.83 1415.84 1700.8 1414.56 1707.68 1410.83 z"/>
<path transform="translate(0,0)" fill="rgb(0,0,0)" d="M 1725.43 1420.79 C 1729.95 1421.42 1730.01 1421.37 1731.87 1425.5 C 1735.72 1422.8 1737.83 1420.48 1742.54 1421.57 L 1743.82 1423.69 C 1743.44 1427.11 1743.55 1426.89 1741.33 1429.52 C 1738.21 1430.11 1736.91 1430.06 1734.52 1432.17 C 1732.78 1436.06 1733.01 1436.93 1732.9 1441.38 L 1732.88 1442.75 C 1733 1448.32 1733.69 1455.6 1732.03 1460.67 C 1729.17 1463.03 1730.88 1462.28 1726.33 1462.01 C 1723.51 1457.68 1724.74 1427.25 1725.43 1420.79 z"/>
<path transform="translate(0,0)" fill="rgb(0,0,0)" d="M 1682.75 1420.69 C 1685.51 1420.78 1686.31 1420.95 1689.04 1421.48 C 1691.26 1425.53 1690.32 1456.59 1689.73 1462.63 C 1686.91 1462.67 1686.3 1462.64 1683.52 1462.21 C 1680.96 1458.19 1682.57 1427.88 1682.75 1420.69 z"/>
<path transform="translate(0,0)" fill="rgb(0,0,0)" d="M 1685.23 1405.7 C 1687.84 1405.14 1690.41 1406.76 1691.03 1409.35 C 1691.64 1411.95 1690.08 1414.55 1687.5 1415.23 C 1685.78 1415.67 1683.96 1415.16 1682.73 1413.88 C 1681.5 1412.6 1681.06 1410.75 1681.58 1409.06 C 1682.1 1407.36 1683.5 1406.08 1685.23 1405.7 z"/>
<path transform="translate(0,0)" fill="rgb(249,238,212)" d="M 317.106 1512.74 C 278.679 1513.03 240.25 1513.12 201.822 1513.01 C 194.509 1513.01 184.228 1512.75 177.356 1513 C 143.239 1514.38 117.837 1512.4 119.858 1470.14 C 120.883 1448.7 119.476 1423.99 119.89 1402.28 C 120.68 1360.97 154.211 1368.58 182.739 1368.73 L 249.875 1369.02 L 452.498 1369.02 L 632.912 1369.01 L 690.505 1369.04 C 745.256 1369.12 753.408 1370.41 751.201 1429.48 C 750.518 1447.77 752.024 1467.76 750.48 1486.24 C 749.688 1499 741.845 1511.18 727.949 1512.68 C 710.683 1513.33 693.157 1513.03 675.857 1513.03 L 572.788 1513.01 L 407.06 1512.96 C 380.597 1512.96 348.751 1513.8 322.869 1512.9 L 317.106 1512.74 z"/>
<path transform="translate(0,0)" fill="rgb(0,0,0)" d="M 296.996 1406.98 C 298.713 1407.1 302.623 1406.94 303.374 1408.2 C 306.263 1413.07 304.64 1423.65 304.654 1429.56 C 328.804 1413.94 336.81 1445.84 324.784 1463.83 C 314.226 1471.78 313.939 1466.28 304.005 1464.04 L 302.747 1467.05 C 298.759 1467.37 300.382 1467.92 297.5 1466.17 C 295.548 1457.81 296.846 1417.7 296.996 1406.98 z"/>
<path transform="translate(0,0)" fill="rgb(249,238,212)" d="M 311.092 1431.61 C 326.74 1433.55 325.712 1452.26 316.158 1461.42 C 300.092 1459.96 301.194 1440.6 311.092 1431.61 z"/>
<path transform="translate(0,0)" fill="rgb(0,0,0)" d="M 648.036 1407.07 C 652.485 1407.32 652.476 1406.58 655.41 1408.77 C 656.576 1420.45 655.406 1452.43 655.469 1466.21 C 655.473 1467.11 654.055 1467.42 652.918 1467.93 C 649.321 1466.48 650.98 1467.52 648.238 1464 C 640.595 1464.2 644.595 1470.13 631.093 1466.57 C 614.172 1452.96 622.131 1413.67 647.895 1428.77 L 648.036 1407.07 z"/>
<path transform="translate(0,0)" fill="rgb(249,238,212)" d="M 637.016 1431.69 C 652.151 1432.76 651.476 1453.29 641.63 1461.3 C 626.73 1460.04 627.907 1440.6 637.016 1431.69 z"/>
<path transform="translate(0,0)" fill="rgb(0,0,0)" d="M 349.213 1425.01 C 374.819 1424.86 377.544 1457.08 356.782 1467.94 C 331.116 1469.2 327.281 1435.14 349.213 1425.01 z"/>
<path transform="translate(0,0)" fill="rgb(249,238,212)" d="M 352.084 1430.71 C 366.297 1435.65 365.015 1453.29 354.093 1461.97 C 339.532 1457.6 340.407 1438.56 352.084 1430.71 z"/>
<path transform="translate(0,0)" fill="rgb(0,0,0)" d="M 542.729 1410.15 C 545.463 1410.09 547.82 1409.91 550.521 1410.39 C 554.222 1414.93 567.071 1459.53 567.77 1466.3 L 565.326 1468.06 C 556.295 1468.57 559.328 1454.71 553.895 1450.18 L 539.721 1450.18 C 538.266 1455.76 537.21 1462.35 533.687 1466.56 C 530.29 1468.03 532.026 1467.83 528.28 1467 L 527.406 1465.46 C 529.736 1451.87 538.72 1423.95 542.729 1410.15 z"/>
<path transform="translate(0,0)" fill="rgb(249,238,212)" d="M 547.066 1419.6 C 548.855 1423.98 553.692 1438.84 552.885 1443.27 L 550.223 1444.13 C 547.361 1444.11 545.754 1444.33 543.095 1443.22 C 540.583 1438.08 545.356 1426.61 547.066 1419.6 z"/>
<path transform="translate(0,0)" fill="rgb(0,0,0)" d="M 244.362 1425.17 C 245.408 1425.14 246.455 1425.14 247.502 1425.14 C 265.992 1425.36 262.319 1449.79 262.29 1462.42 C 262.284 1465.45 261.814 1465.91 259.755 1467.6 C 256.117 1467.44 257.941 1467.89 254.443 1464.98 C 245.976 1464.89 249.124 1471.46 236.934 1465.89 C 220.608 1446.2 250.839 1443.27 253.973 1436.32 L 252.598 1433.73 C 249.872 1431.81 241.613 1432.92 236.503 1432.28 L 235.456 1430.85 C 236.959 1426.65 240.425 1426.34 244.362 1425.17 z"/>
<path transform="translate(0,0)" fill="rgb(249,238,212)" d="M 246.896 1447.06 C 249.899 1446.73 250.847 1446.24 253.384 1447.73 C 256.344 1454.1 253.537 1458.3 248.133 1462.05 C 244.842 1461.43 245.044 1461.54 242.295 1459.64 C 238.753 1453.34 241.916 1450.85 246.896 1447.06 z"/>
<path transform="translate(0,0)" fill="rgb(0,0,0)" d="M 406.963 1425.97 C 410.064 1425.68 410.367 1425.6 413.421 1425.99 C 418.699 1430.58 422.151 1447.93 424.239 1455.65 C 428.04 1446.28 428.708 1435.64 433.063 1426.86 C 435.709 1425.46 435.976 1425.88 439.072 1426.3 C 440.801 1431.5 433.479 1450.13 431.42 1456.24 C 429.257 1462.99 419.712 1490.37 409.49 1483.25 C 409.173 1477.66 416.592 1473.51 420.248 1467.34 C 418.339 1457.81 410.382 1436.08 406.963 1425.97 z"/>
<path transform="translate(0,0)" fill="rgb(0,0,0)" d="M 210.907 1410.2 C 216.057 1409.56 222.545 1408.91 227.183 1411.5 C 228.277 1414.46 227.53 1414.37 226.216 1418.21 C 218.85 1417.46 208.188 1415.78 204.421 1423.12 C 194.038 1443.35 200.661 1464.38 225.724 1459.47 C 226.678 1459.31 225.96 1459.38 227.82 1460 L 228.024 1463.2 C 224.444 1469.36 214.913 1468.66 208.941 1466.94 C 192.779 1462.31 188.822 1441.81 193.774 1427.74 C 197.177 1418.07 201.912 1414.2 210.907 1410.2 z"/>
<path transform="translate(0,0)" fill="rgb(0,0,0)" d="M 389.408 1441.18 C 391.929 1435.66 395.519 1426.07 402.274 1424.79 C 404.96 1430.19 396.67 1441.53 393.845 1446.13 L 406.476 1467.03 C 394.766 1467.91 394.271 1461.83 388.992 1452.44 C 384.907 1460.24 384.397 1462.47 377.484 1468.16 L 374.994 1467.09 C 374.707 1460.94 381.259 1451.64 384.617 1446.15 C 380.419 1439.68 376.519 1432.65 372.666 1425.94 C 376.366 1425.76 376.684 1425.6 380.407 1426.44 C 385.161 1430.03 386.85 1435.59 389.408 1441.18 z"/>
<path transform="translate(0,0)" fill="rgb(0,0,0)" d="M 672.775 1425.04 C 677.19 1424.89 683.876 1424.46 685.845 1428.96 C 684.891 1432.4 685.884 1431.33 683.626 1433.14 C 680.053 1432.25 679.13 1432.07 675.482 1431.72 C 671.876 1433.61 673.34 1432.28 671.237 1436.14 C 673.786 1442.25 706.132 1458.73 676.767 1467.9 C 671.047 1467.79 663.792 1468.92 663.228 1462.08 C 664.741 1459.33 663.656 1460.16 666.367 1459.23 C 667.457 1459.54 668.55 1459.84 669.647 1460.12 C 674.357 1461.31 675.787 1461.67 680.093 1459.07 L 680.373 1457.19 C 674.658 1447.26 649.957 1438.64 672.775 1425.04 z"/>
<path transform="translate(0,0)" fill="rgb(0,0,0)" d="M 496.37 1425.22 C 500.893 1425.21 506.257 1425.12 508.918 1429.32 C 505.378 1435.74 498.13 1431.05 490.842 1435.57 C 486.506 1441.13 487.063 1451.21 490.908 1457 C 495.767 1464.33 502.721 1458.35 508.407 1460.41 L 507.93 1464.4 C 492.597 1483.21 458.226 1437.93 496.37 1425.22 z"/>
<path transform="translate(0,0)" fill="rgb(0,0,0)" d="M 588.33 1425.22 C 592.934 1425.14 595.707 1424.74 599.095 1427.54 C 599.797 1436.3 586.833 1431.01 581.807 1437.32 C 580.29 1439.23 577.775 1441.75 578.475 1444.74 C 582.06 1460.03 584.464 1461.47 598.336 1460.06 L 600.786 1462.26 C 591.864 1482.18 561.453 1453.55 573.704 1435.75 C 578.616 1428.62 579.883 1427.81 588.33 1425.22 z"/>
<path transform="translate(0,0)" fill="rgb(0,0,0)" d="M 446.463 1406.94 C 449.221 1407.03 450.044 1407.15 452.767 1407.65 C 455.555 1411.44 454.106 1459.82 454.076 1467.35 C 450.467 1467.3 448.879 1467.82 446.477 1466.04 C 445.094 1454.43 446.293 1420.66 446.463 1406.94 z"/>
<path transform="translate(0,0)" fill="rgb(0,0,0)" d="M 287.788 1424.41 C 291.148 1426.57 289.986 1425.15 291.506 1428.73 C 290.289 1431.96 286.111 1433.95 283.097 1436.31 C 275.159 1442.53 284.389 1461.41 276.923 1467.38 C 274.006 1467.2 274.126 1467.35 271.652 1465.88 C 271.641 1458.95 271.2 1431.81 272.136 1426.58 C 275.774 1425.28 274.082 1425.24 277.349 1426.01 C 278.052 1428.35 278.267 1429.13 279.323 1431.31 C 282.746 1427.52 283.316 1426.77 287.788 1424.41 z"/>
<path transform="translate(0,0)" fill="rgb(0,0,0)" d="M 464.187 1425.75 C 467.17 1425.54 469.279 1424.97 471.689 1426.55 C 472.847 1431.95 472.16 1460.01 472.094 1467.11 C 469.443 1467.13 468.056 1466.95 465.45 1466.67 C 462.988 1463.85 464.132 1431.88 464.187 1425.75 z"/>
<path transform="translate(0,0)" fill="rgb(0,0,0)" d="M 607.127 1425.21 C 610.193 1425.15 611.822 1424.75 614.321 1426.46 C 615.624 1433.13 614.969 1458.99 614.926 1467.26 C 611.373 1467.24 611.207 1467.3 607.576 1466.41 C 606.213 1461.94 607.032 1431.48 607.127 1425.21 z"/>
<path transform="translate(0,0)" fill="rgb(0,0,0)" d="M 467.51 1409.76 C 470.168 1409.34 472.685 1411.09 473.203 1413.74 C 473.721 1416.38 472.054 1418.95 469.432 1419.57 C 467.653 1419.98 465.789 1419.39 464.572 1418.03 C 463.355 1416.66 462.978 1414.75 463.59 1413.02 C 464.203 1411.3 465.705 1410.05 467.51 1409.76 z"/>
<path transform="translate(0,0)" fill="rgb(0,0,0)" d="M 610.075 1409.7 C 612.748 1409.32 615.224 1411.18 615.605 1413.85 C 615.987 1416.52 614.13 1419 611.457 1419.38 C 608.781 1419.77 606.3 1417.91 605.918 1415.23 C 605.536 1412.56 607.398 1410.08 610.075 1409.7 z"/>
<path transform="translate(0,0)" fill="rgb(249,238,212)" d="M 141.233 457.138 C 144.331 456.901 147.437 456.774 150.545 456.755 L 472.651 457.037 L 591.875 457.024 C 612.183 457.021 632.728 456.35 653.007 457.139 C 657.752 457.323 669.141 457.655 672.413 461.151 C 672.671 461.426 672.901 461.725 673.159 461.999 C 676.31 465.354 679.202 468.349 681.172 472.579 C 686.16 483.291 685.681 554.677 684.395 569.407 C 684.009 573.827 683.148 578.313 681.566 582.468 C 678.22 591.251 672.071 595.72 663.772 599.464 C 655.958 600.723 625.625 600.026 615.911 600.009 L 513.598 599.876 C 425.563 600.279 337.526 600.052 249.494 599.195 C 217.014 599.007 184.462 599.764 151.995 599.027 C 147.853 598.933 143.601 599.111 139.652 597.688 C 133.193 595.361 127.868 591.523 124.996 585.203 C 123.139 581.117 122.212 576.705 121.761 572.257 C 120.324 558.088 119.831 482.55 123.438 473.535 C 126.861 464.979 132.941 460.513 141.233 457.138 z"/>
<path transform="translate(0,0)" fill="rgb(0,0,0)" d="M 475.901 489.886 C 480.659 490.408 479.857 489.548 482.377 492.25 C 484.146 498.44 483.116 506.879 483.026 513.554 C 506.262 495.051 516.219 528.831 503.641 546.736 C 490.32 556.006 490.22 546.438 482.525 546.654 L 481.848 549.039 C 479.315 550.662 480.682 550.028 476.813 549.707 C 473.808 546.027 475.419 497.706 475.901 489.886 z"/>
<path transform="translate(0,0)" fill="rgb(249,238,212)" d="M 488.27 514.856 C 505.14 514.783 504.046 533.987 495.536 543.651 C 478.687 545.553 480.54 523.905 488.27 514.856 z"/>
<path transform="translate(0,0)" fill="rgb(0,0,0)" d="M 300.843 490.747 C 303.059 490.827 304.864 491.003 307.055 491.207 C 309.506 494.526 308.776 542.057 308.174 549.124 L 306.084 550.684 C 300.731 549.394 302.079 545.786 300.144 546.774 C 292.179 550.837 293.527 551.416 284.697 549.899 C 265.668 535.324 276.946 496.249 300.473 512.149 L 300.843 490.747 z"/>
<path transform="translate(0,0)" fill="rgb(249,238,212)" d="M 288.971 514.591 C 305.592 514.607 303.886 535.888 295.282 544.656 C 279.154 542.798 280.68 524.562 288.971 514.591 z"/>
<path transform="translate(0,0)" fill="rgb(0,0,0)" d="M 354.169 508.135 C 379.479 507.944 382.06 540.482 361.011 550.851 C 351.364 551.25 344.442 547.946 340.923 538.45 C 338.5 531.737 338.923 524.325 342.092 517.93 C 345.037 512.127 348.283 510.084 354.169 508.135 z"/>
<path transform="translate(0,0)" fill="rgb(249,238,212)" d="M 354.755 513.781 C 371.259 516.72 369.76 535.55 359.594 545.01 C 343.909 542.055 344.509 522.952 354.755 513.781 z"/>
<path transform="translate(0,0)" fill="rgb(0,0,0)" d="M 527.844 508.078 C 554.643 507.757 555.691 541.717 536.025 550.731 C 508.847 551.968 507.767 517.363 527.844 508.078 z"/>
<path transform="translate(0,0)" fill="rgb(249,238,212)" d="M 528.42 514.807 C 545.644 514.456 543.847 534.751 534.615 544.315 C 518.459 543.8 519.701 524.094 528.42 514.807 z"/>
<path transform="translate(0,0)" fill="rgb(0,0,0)" d="M 196.555 492.828 L 201.579 493.222 C 205.76 498.05 203.907 509.962 203.859 516.711 L 225.5 516.857 C 225.4 510.773 224.474 500.821 226.1 495.653 C 228.689 492.926 227.119 493.728 231.093 493.425 L 232.44 494.814 C 233.547 502.556 233.696 544.588 232.308 550.952 L 227.473 549.819 C 224.299 545.858 225.757 529.823 225.789 524.023 L 203.778 524.028 C 203.808 529.946 205.625 546.041 202.068 549.793 C 198.465 550.144 199.972 550.62 197.282 548.741 C 195.778 539.386 196.529 504.649 196.555 492.828 z"/>
<path transform="translate(0,0)" fill="rgb(0,0,0)" d="M 423.934 508.179 C 442.018 507.121 441.022 522.607 441.62 536.56 C 441.841 541.714 442.145 547.694 437.907 550.935 C 434.043 550.034 433.997 547.285 433.285 547.471 C 424.13 549.855 425.058 552.417 415.743 548.678 C 398.325 529.145 429.577 526.272 433.068 519.559 C 430.177 512.676 420.77 517.111 414.002 513.226 L 414.787 511.588 C 417.839 509.357 420.271 509.083 423.934 508.179 z"/>
<path transform="translate(0,0)" fill="rgb(249,238,212)" d="M 428.532 528.88 C 432.699 530.268 431.268 529.006 433.362 532.312 C 434.281 539.239 430.105 542.857 424.504 545.742 C 415.481 538.539 419.16 532.503 428.532 528.88 z"/>
<path transform="translate(0,0)" fill="rgb(0,0,0)" d="M 256.145 539.518 C 258.526 532.946 262.79 513.05 266.254 509.224 L 271.224 509.044 C 272.929 513.007 265.239 534.378 263.541 539.783 C 260.46 548.336 254.65 565.571 245.04 567.758 C 241.645 565.564 243.003 567.02 241.315 562.83 C 242.996 558.352 249.09 555.94 250.765 552.865 C 254.156 546.641 241.959 517.634 239.069 509.08 C 240.8 508.945 244.432 508.481 245.589 509.389 C 251.47 514.005 254.665 532.961 256.145 539.518 z"/>
<path transform="translate(0,0)" fill="rgb(0,0,0)" d="M 571.678 508.114 C 587.547 508.313 587.042 521.355 587.634 534.063 C 587.809 537.814 587.543 547.436 584.962 549.768 L 581.924 549.555 C 575.31 542.216 584.544 526.239 576.571 516.487 C 572.294 514.575 573.827 515.107 568.725 515.522 C 560.584 524.486 565.244 537.084 563.76 549.054 L 562.045 549.958 C 557.924 549.588 559.452 550.463 556.975 547.903 C 555.877 543.918 556.596 539.235 556.92 535.03 C 557.488 527.652 553.012 513.327 559.807 508.591 C 566.876 509.939 560.327 509.011 563.987 512.777 C 567.395 510.113 567.758 509.79 571.678 508.114 z"/>
<path transform="translate(0,0)" fill="rgb(0,0,0)" d="M 604.829 508.119 C 610.397 507.963 615.514 507.387 617.714 512.741 C 616.485 515.687 617.503 514.669 614.57 515.905 C 609.551 514.411 608.192 513.248 603.822 516.397 C 602.562 524.616 638.557 542.401 606.9 550.92 C 603.682 550.876 598.368 550.715 596.107 548.406 C 594.766 544.898 594.81 546.58 595.536 543.222 C 601.067 540.02 604.949 548.869 611.632 541.154 C 611.065 531.259 578.788 520.396 604.829 508.119 z"/>
<path transform="translate(0,0)" fill="rgb(0,0,0)" d="M 393.704 508.264 C 398.749 508.073 403.534 507.248 407.226 510.538 C 406.802 514.69 407.733 513.415 405.564 515.798 C 399.885 515.101 391.951 513.493 389.641 519.691 C 383.661 535.735 389.031 548.037 406.827 541.944 L 407.233 546.549 C 404.668 551.547 400.073 552.27 394.998 550.734 C 389.056 548.929 384.103 544.786 381.275 539.257 C 374.544 525.996 381.058 514.253 393.704 508.264 z"/>
<path transform="translate(0,0)" fill="rgb(0,0,0)" d="M 333.843 507.391 L 336.384 508.927 C 337.882 512.379 337.861 510.734 336.924 514 C 316.263 526.226 330.407 531.247 325.04 548.092 C 322.212 550.661 322.977 549.828 318.035 550.012 C 318.002 536.962 317.665 522.395 318.091 509.472 C 320.562 508.113 319.283 508.537 322.063 508.553 C 324.147 510.753 323.52 510.667 324.095 514.253 L 325.854 513.651 C 328.947 509.836 329.39 509.447 333.843 507.391 z"/>
<path transform="translate(0,0)" fill="rgb(0,0,0)" d="M 465.358 507.445 C 468.101 508.12 467.155 507.731 469.483 509.342 C 471.426 516.611 460.232 518.158 459.106 522.952 C 457.417 530.139 459.685 539.879 458.386 548.365 C 456.124 550.704 455.145 550 450.944 550.482 C 450.933 543.186 450.455 515.404 451.365 509.783 C 454.854 508.712 453.226 508.66 456.403 509.396 L 457.073 512.134 L 458.237 512.814 C 461.337 511.209 462.772 509.719 465.358 507.445 z"/>
<path transform="translate(0,0)" fill="rgb(226,107,101)" d="M 1709.67 461.496 L 1762.98 461.274 C 1785.67 461.135 1821.38 455.738 1820.96 488.699 C 1820.47 517.924 1822.19 547.944 1820.49 577.045 C 1818.86 604.919 1777.4 600.057 1758.18 599.995 L 1702.9 599.879 L 1508.5 599.955 L 1454.83 600.051 C 1431.2 600.124 1395.5 605.035 1395.27 570.811 C 1395.08 542.696 1394.17 513.771 1395.66 485.738 C 1397.19 456.948 1431.07 461.486 1451.16 461.568 L 1506.51 461.727 L 1709.67 461.496 z"/>
<path transform="translate(0,0)" fill="rgb(246,242,244)" d="M 1662.08 505.135 C 1691.8 504.061 1694.66 551.062 1669.05 560.017 C 1638.89 561.373 1635.8 516.204 1662.08 505.135 z"/>
<path transform="translate(0,0)" fill="rgb(226,107,101)" d="M 1663.06 511.863 C 1681.95 512.917 1682.9 543.29 1667.88 554.067 C 1648.5 553.44 1647.89 523.321 1663.06 511.863 z"/>
<path transform="translate(0,0)" fill="rgb(246,242,244)" d="M 1573.7 505.115 C 1600.18 505.476 1605.15 551.378 1577.09 560.073 C 1565.95 559.94 1557.89 554.269 1555.49 543.357 C 1551.69 526.108 1555.68 509.856 1573.7 505.115 z"/>
<path transform="translate(0,0)" fill="rgb(226,107,101)" d="M 1572.09 511.801 C 1591.42 513.036 1592.3 542.813 1577.19 553.611 C 1557.88 553.594 1558.6 523.115 1572.09 511.801 z"/>
<path transform="translate(0,0)" fill="rgb(246,242,244)" d="M 1461.7 506.084 C 1464.24 506.05 1470.31 505.238 1471.32 507.997 C 1477.09 523.781 1479.87 540.623 1485.11 556.594 C 1484.8 557.336 1484.5 558.078 1484.19 558.82 C 1480.56 560.04 1482.38 559.945 1478.54 558.923 C 1475.78 555.999 1475.81 550.205 1473.44 544.837 L 1471.2 544.002 L 1458.43 543.971 C 1457.28 548.903 1456.39 555.766 1453.12 559.173 C 1450.36 559.658 1450.06 560.053 1447.58 558.998 C 1446.93 553.983 1459.43 513.836 1461.7 506.084 z"/>
<path transform="translate(0,0)" fill="rgb(226,107,101)" d="M 1465.64 515.768 C 1468.05 518.279 1471.08 532.925 1470.52 536.703 L 1468.2 537.735 L 1462.86 537.551 L 1461.49 535.768 C 1460.91 529.519 1463.85 522.298 1465.64 515.768 z"/>
<path transform="translate(0,0)" fill="rgb(246,242,244)" d="M 1629.05 528.052 C 1629.25 520.21 1626.94 511.802 1631.69 506.694 C 1635.32 506.15 1633.91 505.63 1636.35 507.369 C 1637.47 518.633 1637.2 545.818 1636.66 558.421 C 1636.11 559.151 1635.57 559.881 1635.02 560.611 L 1630.93 559.824 C 1627.52 555.496 1628.96 541.315 1629.03 534.886 L 1609.72 534.878 C 1609.74 541.882 1611.09 551.385 1608.81 557.481 C 1606.01 559.823 1607.58 559.255 1603.92 559.228 C 1600.79 555.723 1602.11 512.905 1602.1 505.852 C 1606.94 506.184 1606.25 505.348 1609.03 507.932 C 1610.85 513.789 1609.81 521.761 1609.74 528.128 L 1629.05 528.052 z"/>
<path transform="translate(0,0)" fill="rgb(246,242,244)" d="M 1735.25 506.149 C 1740.11 505.653 1747.82 504.782 1751.21 508.526 C 1750.88 511.866 1751.42 510.375 1749.46 513.149 C 1741.94 514.246 1741.25 509.29 1734.29 515.36 C 1731.7 522.114 1738.82 526.814 1743.82 530.595 C 1756.95 540.537 1760.14 553.571 1740.9 560.039 C 1735.9 560.164 1730.53 560.441 1726.43 557.545 C 1725.09 554.162 1725.29 555.898 1726.08 552.13 C 1732.23 548.894 1740.02 559.11 1745.86 546.986 C 1745.68 533.498 1705.22 524.375 1735.25 506.149 z"/>
<path transform="translate(0,0)" fill="rgb(246,242,244)" d="M 1535.15 506.118 C 1540.24 505.834 1545.29 505.058 1549.98 506.656 C 1552.32 509.292 1551.68 507.749 1551.61 511.576 L 1550.07 513.038 C 1546.8 513.283 1540.4 512.615 1538.5 512.906 C 1522.74 515.316 1522.84 543.041 1533.45 550.686 C 1538.4 554.253 1546 552.984 1550.7 552.177 L 1551.88 553.487 C 1551.8 557.642 1552.58 556.106 1550.43 558.679 C 1516.6 568.396 1504.79 521.28 1535.15 506.118 z"/>
<path transform="translate(0,0)" fill="rgb(246,242,244)" d="M 1492.21 505.715 C 1495.72 505.785 1496.14 505.589 1499.49 506.841 C 1500.59 513.882 1500.1 543.361 1500.23 552.667 C 1506.34 552.581 1511.68 551.089 1517.37 552.747 C 1520.2 555.437 1519.32 554.341 1519.85 559.232 C 1511.02 559.626 1501.59 559.609 1492.71 559.751 C 1492.24 541.743 1492.07 523.728 1492.21 505.715 z"/>
<path transform="translate(0,0)" fill="rgb(246,242,244)" d="M 1693.62 505.901 C 1696.99 505.938 1697.24 505.843 1700.63 506.729 C 1701.73 511.88 1701.26 545.33 1701.26 552.01 C 1706.94 552.105 1713.98 551.023 1718.44 552.876 C 1720.62 555.81 1719.92 554.954 1719.82 559.527 C 1711.22 559.715 1702.42 559.456 1693.81 559.305 C 1693.18 542.01 1693.57 523.304 1693.62 505.901 z"/>
<path transform="translate(0,0)" fill="rgb(127,176,167)" d="M 481.698 912.842 C 496.717 913.082 524.714 910.028 534.257 919.865 C 537.648 923.413 539.952 927.859 540.896 932.676 C 543.09 944.231 541.578 961.279 541.944 973.393 C 542.44 989.801 541.355 1006.79 541.517 1023.24 C 541.646 1036.22 534.944 1050.16 520.304 1051.2 C 499.38 1052.68 477.342 1052.01 456.114 1052.01 L 323.018 1051.88 L 316.952 1051.74 C 281.088 1052.9 244.498 1051.35 208.513 1052 C 187.873 1051.55 165.934 1053.06 145.506 1051.11 C 133.309 1049.27 124.417 1036.28 124.791 1024.65 C 125.741 995.122 123.963 965.27 125.331 935.918 C 125.797 925.922 136.866 914.507 146.236 914.175 C 215.156 911.735 289.53 915.043 358.081 912.822 C 391.734 914.118 426.21 912.412 459.935 913.054 C 466.977 913.188 474.681 913.173 481.698 912.842 z"/>
<path transform="translate(0,0)" fill="rgb(250,254,253)" d="M 417.306 953.305 C 421.973 953.306 422.362 952.488 425.42 954.646 C 425.657 972.482 425.543 994.495 424.606 1012.18 L 422.178 1013.24 C 418.523 1011.55 420.181 1012.72 417.545 1008.93 L 415.866 1009.95 C 410.845 1013.03 410.505 1013.3 404.507 1013.39 C 394.846 1008.87 392.369 1002.07 391.801 991.363 C 391.484 985.386 393.344 979.373 397.57 974.99 C 403.266 969.084 409.513 972.347 416.668 972.298 C 417.586 966.046 417.323 959.652 417.306 953.305 z"/>
<path transform="translate(0,0)" fill="rgb(127,176,167)" d="M 406.315 977.493 C 421.969 977.991 420.626 998.651 411.005 1006.81 C 395.972 1004.16 398.049 986.852 406.315 977.493 z"/>
<path transform="translate(0,0)" fill="rgb(250,254,253)" d="M 271.674 952.819 L 272.716 954.139 C 273.841 960.504 273.273 1006.69 272.291 1012.65 L 268.954 1012.99 C 267.744 1011.67 266.513 1010.36 265.263 1009.08 C 256.368 1010.84 259.521 1015.98 247.369 1011.25 C 232.676 995.53 240.148 961.763 265.272 974.151 C 265.454 967.977 263.661 959.431 266.365 954.575 C 267.094 953.267 269.751 953.208 271.674 952.819 z"/>
<path transform="translate(0,0)" fill="rgb(127,176,167)" d="M 256.025 976.608 C 269.657 981.314 268.944 999.64 258.007 1006.79 C 244.4 1003.65 245.149 984.701 256.025 976.608 z"/>
<path transform="translate(0,0)" fill="rgb(250,254,253)" d="M 192.055 955.827 C 195.636 955.763 198.675 955.281 201.79 956.844 C 204.256 962.723 216.741 1006.18 216.907 1011.24 C 214.522 1013.18 215.852 1012.52 212.674 1013.11 C 206.669 1009.81 207.735 1001.67 203.742 996.001 L 189.003 995.999 C 187.806 1001.03 186.955 1007.03 183.988 1010.99 C 180.185 1012.8 182.145 1012.45 177.871 1011.95 C 176.366 1007.84 190.173 962.463 192.055 955.827 z"/>
<path transform="translate(0,0)" fill="rgb(127,176,167)" d="M 196.624 965.805 C 198.253 968.836 202.305 984.713 202.31 988.603 L 200.216 989.67 C 198.254 989.629 193.084 989.846 192.494 987.949 C 190.805 982.511 195.22 971.667 196.624 965.805 z"/>
<path transform="translate(0,0)" fill="rgb(250,254,253)" d="M 319.874 953.142 C 321.825 953.151 323.63 953.271 325.573 953.38 C 329.76 957.827 327.835 967.391 327.871 974.906 C 359.064 958.101 354.369 1011.61 346.534 1012.44 C 341.933 1007.46 343.137 997.61 343.274 990.867 C 343.237 985.498 341.032 975.35 333.874 977.11 C 323.575 979.642 330.812 1004.19 324.972 1011.87 C 322.09 1012.72 323.504 1012.76 320.6 1011.55 C 319.022 1003.05 319.773 963.694 319.874 953.142 z"/>
<path transform="translate(0,0)" fill="rgb(250,254,253)" d="M 445.129 971.048 C 450.922 970.473 458.606 970.58 461.655 977.024 C 463.767 981.487 466.097 987.231 464.364 992.138 C 457.362 998.343 445.011 988.951 441.203 996.196 C 443.393 1008.31 450.26 1006.92 459.762 1005.64 L 461.476 1005.37 L 462.743 1006.6 C 462.613 1008.43 462.637 1010.49 460.449 1011.38 C 432.947 1022.5 422.722 985.499 445.129 971.048 z"/>
<path transform="translate(0,0)" fill="rgb(127,176,167)" d="M 446.902 976.475 C 452.37 977.087 458.807 981.638 455.995 987.413 L 453.249 987.98 C 448.381 987.864 443.06 989.381 441.394 984.33 C 442.752 980.412 443.964 979.602 446.902 976.475 z"/>
<path transform="translate(0,0)" fill="rgb(250,254,253)" d="M 292.781 970.974 C 301.553 970.68 307.892 971.438 310.742 980.571 C 312.115 984.969 313.297 986.784 311.356 991.283 C 304.343 998.179 293.263 990.617 288.839 996.756 C 290.328 1006.36 297.696 1007.37 305.778 1006.26 C 306.964 1006.04 307.869 1006.15 309.101 1006.17 L 310.092 1007.7 C 309.584 1009.4 309.825 1010.01 308.342 1010.8 C 290.865 1020.16 276.897 1004.13 281.308 986.666 C 283.567 977.724 285.883 975.414 292.781 970.974 z"/>
<path transform="translate(0,0)" fill="rgb(127,176,167)" d="M 293.868 976.659 C 299.273 976.972 306.752 981.3 304.478 987.169 L 302.175 987.946 C 297.427 988.056 290.42 989.617 288.973 984.405 C 290.151 980.605 291.218 979.8 293.868 976.659 z"/>
<path transform="translate(0,0)" fill="rgb(250,254,253)" d="M 356.182 971.481 C 359.172 971.302 359.439 971.251 362.37 971.719 C 367.233 976.286 370.917 993.061 373.144 1000.4 C 376.332 991.238 376.805 971.639 388.334 972.217 C 389.901 975.469 380.822 998.994 379.063 1004.56 C 378.435 1006.52 377.768 1008.47 377.065 1010.4 C 373.609 1019.83 370.679 1025.51 361.56 1029.78 C 358.741 1028.71 359.745 1029.64 358.467 1026.89 C 359.638 1021.59 369.219 1013.58 368.718 1010.52 C 366.731 998.401 357.536 983.58 356.182 971.481 z"/>
<path transform="translate(0,0)" fill="rgb(250,254,253)" d="M 478.901 971.048 C 483.935 970.809 488.001 970.328 492.479 972.975 C 493.217 975.305 492.966 975.286 492.236 977.69 L 490.486 978.51 C 485.472 977.253 483.893 975.953 479.616 979.018 C 478.079 987.772 512.374 1001.4 484.326 1013.1 C 479.274 1013.06 471.155 1014.23 470.011 1008.35 L 471.527 1006.12 C 475.219 1004.25 479.246 1006.39 483.875 1006.11 C 486.675 1003.77 485.587 1005.24 486.55 1001.09 C 483.3 992.033 456.527 986.1 478.901 971.048 z"/>
<path transform="translate(0,0)" fill="rgb(250,254,253)" d="M 224.147 952.82 C 227.062 952.898 229.333 952.558 231.617 954.197 C 233.009 965.22 231.989 999.771 232.002 1012.84 C 228.955 1012.52 228.519 1012.48 225.605 1011.6 C 223.084 1007.07 224.12 961.097 224.147 952.82 z"/>
<path transform="translate(0,0)" fill="rgb(127,176,167)" d="M 1566.05 1775.08 C 1634 1773.96 1705.37 1775.1 1773.62 1775.09 L 1858.51 1774.99 C 1875.43 1774.91 1894.28 1774.35 1911.05 1775.07 C 1918.23 1779.69 1921.15 1782.91 1925.82 1789.82 C 1926.96 1805.93 1928.96 1893.28 1924.61 1904.33 C 1921.97 1911.02 1915.18 1914.09 1908.94 1916.53 C 1899.21 1918.36 1866.63 1917.78 1854.78 1917.78 L 1751.01 1917.83 L 1626.07 1917.92 C 1610.92 1917.93 1582.82 1919.94 1569.04 1916.96 C 1562.78 1915.6 1557.19 1912.81 1553.87 1907.12 C 1551.34 1902.79 1550.32 1898.04 1549.83 1893.09 C 1548.93 1883.85 1548.86 1798.02 1550.87 1791.46 C 1553.35 1783.4 1558.71 1778.82 1566.05 1775.08 z"/>
<path transform="translate(0,0)" fill="rgb(250,254,253)" d="M 1773.34 1818.61 C 1777.13 1818.61 1777.42 1818.57 1781.07 1819.38 C 1782.2 1822.69 1781.33 1873.54 1780.31 1877.98 L 1778.26 1879.21 C 1775.31 1878.42 1775.78 1878.1 1773.32 1875.56 C 1766.27 1877.94 1766.17 1879.73 1758.02 1878.81 C 1741.47 1867.89 1744.66 1829.31 1771.08 1838.54 L 1772.33 1838.99 C 1773.76 1836.19 1773.33 1822.5 1773.34 1818.61 z"/>
<path transform="translate(0,0)" fill="rgb(127,176,167)" d="M 1763.12 1842.52 C 1777.87 1845.38 1777.13 1865.88 1765.83 1873.4 C 1751.75 1868.81 1753.82 1851.61 1763.12 1842.52 z"/>
<path transform="translate(0,0)" fill="rgb(250,254,253)" d="M 1639.18 1821.03 C 1642.88 1820.94 1645.25 1820.57 1648.7 1821.91 C 1651.15 1827.64 1664.58 1873.65 1664.09 1877.54 C 1659.96 1879.01 1661.94 1878.97 1657.94 1878.01 C 1654.55 1874.72 1652.91 1866.5 1651.43 1861.5 L 1636.12 1861.82 C 1634.71 1867.49 1633.8 1872.07 1631.42 1877.44 C 1628.34 1879.74 1629.94 1879.35 1626.72 1879.51 L 1625.41 1877.57 C 1624.38 1868.03 1635.92 1832.55 1639.18 1821.03 z"/>
<path transform="translate(0,0)" fill="rgb(127,176,167)" d="M 1643.48 1831.71 L 1644.42 1832.64 C 1646.12 1838.19 1649.64 1849.02 1649.33 1854.53 L 1647.23 1855.39 C 1645.24 1855.41 1640.27 1855.79 1639.52 1853.82 C 1637.45 1848.34 1641.95 1837.48 1643.48 1831.71 z"/>
<path transform="translate(0,0)" fill="rgb(250,254,253)" d="M 1670.89 1836.79 C 1674.95 1836.86 1676.18 1836.26 1678.19 1839.58 C 1684.96 1840.88 1683.57 1831.31 1697.94 1840.6 L 1699.21 1841.43 C 1700.72 1840.62 1703.68 1838.24 1704.5 1837.82 C 1725.11 1827.24 1725.48 1867.7 1721.97 1878.38 C 1718.95 1879.69 1720.39 1879.67 1717.54 1878.9 C 1710.7 1871.18 1719.65 1846.58 1708.7 1842.72 C 1705.03 1843.74 1704.45 1844.59 1701.92 1847.2 C 1700.4 1855 1702.15 1875.59 1699.64 1878.5 L 1695.01 1878.64 C 1689.43 1874.64 1697.09 1852.59 1689.79 1844.58 C 1686.73 1843.49 1686.9 1843.66 1683.67 1844.36 C 1674.45 1851.04 1681.75 1870.93 1678.02 1878.32 C 1674.93 1878.72 1675.13 1878.8 1672.22 1877.78 C 1669.38 1873.06 1670.95 1844.3 1670.89 1836.79 z"/>
<path transform="translate(0,0)" fill="rgb(250,254,253)" d="M 1804.23 1836.18 C 1814.99 1837.68 1823.61 1845.7 1820.1 1856.85 C 1812.14 1864.91 1799.28 1855.09 1797.08 1863.5 C 1800.52 1875.03 1807.46 1873.17 1816.9 1871.49 C 1818.77 1873.53 1818.55 1874.4 1818.02 1876.63 C 1813.68 1880.06 1805.55 1879.12 1800.06 1878.87 C 1783.87 1867.68 1783.64 1842.14 1804.23 1836.18 z"/>
<path transform="translate(0,0)" fill="rgb(127,176,167)" d="M 1803.82 1841.8 C 1809.25 1843.28 1812.38 1845.9 1812.55 1851.58 C 1810.14 1854.47 1811.71 1853.39 1807.07 1853.97 C 1802.05 1853.98 1800.59 1854.73 1797.41 1851.74 L 1797.37 1849.22 C 1799.56 1845.26 1800.32 1844.87 1803.82 1841.8 z"/>
<path transform="translate(0,0)" fill="rgb(250,254,253)" d="M 1834.71 1837.05 C 1836.12 1836.96 1837.54 1836.88 1838.95 1836.82 C 1843.22 1836.65 1849.43 1836.74 1849.21 1842.62 L 1846.61 1843.92 C 1841.93 1843.23 1838.83 1842.45 1834.55 1844.67 L 1834.25 1846.43 C 1839.49 1855.67 1865.98 1867.95 1840.59 1879.41 C 1834.62 1879.36 1827.83 1880.19 1825.12 1873.82 C 1830.38 1871.2 1841.49 1874.05 1842.72 1867.32 C 1838.04 1857.41 1812.9 1851.95 1834.71 1837.05 z"/>
<path transform="translate(0,0)" fill="rgb(250,254,253)" d="M 1732.36 1837.24 C 1735.54 1837.44 1737.81 1837.19 1739.75 1839.09 C 1740.83 1848.13 1740.15 1868.71 1740.05 1878.66 C 1737.77 1878.47 1735.7 1878.2 1733.44 1877.92 C 1730.68 1874.7 1732.23 1844.11 1732.36 1837.24 z"/>
<path transform="translate(0,0)" fill="rgb(250,254,253)" d="M 1733.71 1821.5 C 1735.32 1820.58 1737.31 1820.61 1738.89 1821.59 C 1740.46 1822.56 1741.39 1824.32 1741.29 1826.17 C 1741.19 1828.02 1740.09 1829.68 1738.41 1830.48 C 1735.95 1831.65 1733 1830.67 1731.74 1828.25 C 1730.47 1825.84 1731.34 1822.86 1733.71 1821.5 z"/>
<path transform="translate(0,0)" fill="rgb(226,107,101)" d="M 1621.77 914.372 C 1623.71 914.521 1624.95 914.447 1626.72 915.032 C 1633.13 916.402 1662.77 915.804 1670.71 915.763 L 1763.58 915.332 C 1784.15 915.27 1817.12 910.276 1817.92 941.205 C 1818.62 968.454 1817.36 996.322 1818.12 1023.54 C 1818.6 1040.3 1806.25 1053.47 1789.68 1052.83 C 1768.07 1052.93 1746.17 1052.97 1724.41 1052.98 L 1601.98 1052.96 C 1552.72 1052.89 1502.67 1054.81 1453.5 1052.82 C 1449.16 1052.64 1445.48 1052.24 1441.52 1050.29 C 1434.32 1046.74 1430.35 1042.16 1428.07 1034.48 C 1423.09 1017.69 1426.63 988.776 1426.55 970.637 C 1426.51 960.067 1425.18 949.037 1426.4 938.53 C 1426.88 934.313 1427.92 930.247 1430.11 926.575 C 1432.34 922.827 1436.06 919.196 1440.23 917.725 C 1453.59 913.012 1563.36 915.766 1586.34 915.828 C 1596.14 915.854 1611.09 917.663 1620.38 914.83 C 1620.85 914.688 1621.31 914.525 1621.77 914.372 z"/>
<path transform="translate(0,0)" fill="rgb(246,242,244)" d="M 1620.48 956.227 C 1630.72 956.654 1638.44 962.04 1640.93 972.026 C 1645.22 989.304 1642.61 1008.82 1624.02 1014.61 L 1623.45 1014.56 C 1593.73 1012.27 1592.38 963.819 1620.48 956.227 z"/>
<path transform="translate(0,0)" fill="rgb(226,107,101)" d="M 1617.97 963.76 C 1639.92 963.133 1638.36 995.473 1625.51 1006.81 C 1604.8 1009.11 1605.61 974.947 1617.97 963.76 z"/>
<path transform="translate(0,0)" fill="rgb(246,242,244)" d="M 1649.95 957.199 C 1652.33 957.166 1654.71 957.166 1657.09 957.197 C 1662.12 960.421 1675.57 990.958 1678.92 998.292 C 1679.01 987.377 1677.92 968.355 1678.87 958.187 L 1679.97 957.351 C 1683.09 957.505 1683.74 956.954 1685.64 958.539 C 1687 969.649 1685.97 1000.76 1685.87 1013.32 C 1684.22 1013.33 1682.03 1013.54 1680.43 1013.16 C 1676.47 1012.22 1661.03 978.688 1657.96 972.809 C 1657.75 980.017 1658.69 1008.13 1656.7 1012.27 C 1653.83 1014.31 1655.37 1013.93 1651.95 1013.57 C 1648.66 1009.68 1649.96 964.353 1649.95 957.199 z"/>
<path transform="translate(0,0)" fill="rgb(246,242,244)" d="M 1501 985.143 C 1504.74 977.874 1513.04 963.614 1518.56 957.944 C 1521 956.704 1522.79 957.206 1525.55 957.467 L 1526.38 958.519 C 1524.28 963.53 1514.27 977.155 1510.72 982.463 C 1514.41 988.556 1518 994.704 1521.5 1000.9 C 1523.87 1005.69 1525.2 1008.24 1528.17 1012.78 C 1511.8 1016.77 1513.52 994.058 1504.58 989.639 C 1498.14 992.48 1504.17 1007.13 1498.41 1014.14 C 1496.49 1014.51 1493.5 1013.93 1493.3 1011.64 C 1491.88 995.443 1493.9 979.091 1492.27 962.841 C 1492.01 960.317 1493.48 958.906 1495.08 957.438 C 1499.18 957.007 1497.67 956.375 1500.46 958.053 C 1501.64 963.436 1501.04 979.018 1501 985.143 z"/>
<path transform="translate(0,0)" fill="rgb(246,242,244)" d="M 1533.01 957.138 C 1539.02 956.976 1554.87 956.008 1559.41 957.912 C 1560.18 960.69 1560.23 960.489 1559.56 963.276 C 1555.35 965.147 1546.14 964.468 1541 964.353 L 1540.99 980.953 C 1546.25 980.806 1551.13 980.087 1555.76 982.215 L 1557.49 984.096 C 1555.66 989.589 1545.98 988.15 1540.95 988.07 L 1540.98 1006.46 C 1545.63 1006.48 1557.44 1005.78 1560.51 1008.62 C 1558.42 1016.74 1540.85 1012.72 1532.92 1013.85 C 1533.28 1005.22 1532.86 994.483 1532.75 985.704 C 1532.91 976.183 1533 966.66 1533.01 957.138 z"/>
<path transform="translate(0,0)" fill="rgb(246,242,244)" d="M 1696.02 957.048 C 1701.58 957.02 1719.48 955.5 1722.84 958.761 L 1722.81 962.039 C 1718.97 965.776 1710.06 964.502 1704.13 964.44 L 1704.07 980.892 C 1708.74 980.805 1715.53 980.327 1719.88 981.383 C 1722.4 983.815 1721.79 982.404 1722.13 985.588 C 1717.93 991.097 1712.39 985.796 1704.65 988.428 C 1703.54 990.876 1703.85 995.821 1703.84 998.78 L 1704.06 1004.17 C 1710.13 1010.61 1719.29 1003.29 1724.15 1008.81 C 1723.91 1012.03 1724.58 1011.03 1723.01 1013.08 C 1717.06 1014.24 1703.19 1013.39 1696.53 1013.19 C 1695.68 995.314 1696.06 975.102 1696.02 957.048 z"/>
<path transform="translate(0,0)" fill="rgb(246,242,244)" d="M 1740.85 957.136 C 1745.44 956.556 1754.17 955.501 1756.75 959.963 C 1755.67 963.924 1756.42 963.999 1753.83 965.578 C 1749.53 964.286 1748.8 964.004 1744.4 963.747 C 1741.22 964.933 1741.44 964.929 1738.97 967.331 C 1735.17 978.945 1755.56 983.502 1758.89 995.066 C 1761.94 1005.61 1755.08 1010.71 1746.17 1014.27 C 1740.12 1014.28 1734.32 1014.89 1729.85 1010.54 C 1729.16 1007.3 1728.93 1008.76 1730.25 1005.98 C 1734.58 1004.12 1743.19 1008.56 1746.99 1006.03 C 1760.53 997.04 1736.51 985.813 1732.1 978.742 C 1725.39 967.984 1732 961.741 1740.85 957.136 z"/>
<path transform="translate(0,0)" fill="rgb(246,242,244)" d="M 1563.07 957.107 C 1569.18 957.048 1594.44 956.136 1598.63 958.352 C 1599.08 961.848 1599.51 960.458 1598.36 963.252 C 1594.36 964.963 1589.48 964.515 1584.98 964.532 L 1585.05 999.5 C 1585.25 1004.59 1586.27 1009.7 1583.33 1013.45 C 1579.57 1013.54 1579.99 1014.16 1577.54 1012.35 C 1576.31 1001.38 1577.14 976.819 1577.13 964.745 C 1573.01 964.903 1569.4 965.414 1565.55 964.15 C 1562.86 961.097 1563.7 961.917 1563.07 957.107 z"/>
<path transform="translate(0,0)" fill="rgb(127,176,167)" d="M 143.622 1775.18 C 157.895 1774.21 178.967 1774.89 193.74 1774.91 L 289.314 1775.03 L 404.46 1774.99 C 422.326 1774.97 441.717 1774.07 459.294 1776.08 C 468.95 1777.19 475.873 1790.25 476.007 1799.17 C 476.465 1829.57 476.248 1859.95 476.89 1890.36 C 477.202 1905.18 469.888 1911.75 457.515 1917.02 C 389.631 1918.29 319.513 1917.32 251.411 1917.32 L 181.819 1917.43 C 163.796 1917.47 147.473 1920.7 132.054 1910.86 C 129.041 1905.54 126.228 1900.38 125.869 1894.13 C 124.467 1869.76 125.757 1844.87 125.301 1820.44 C 125.101 1809.73 125.275 1798.76 126.644 1788.29 C 132.727 1781.28 134.938 1779.19 143.622 1775.18 z"/>
<path transform="translate(0,0)" fill="rgb(250,254,253)" d="M 214.069 1821.25 C 220.208 1821.07 237.194 1819.89 241.844 1822.23 C 242.392 1825.91 242.7 1824.26 241.23 1827.4 C 236.809 1830.27 227.998 1829.11 222.379 1828.91 L 222.214 1845.24 C 229.449 1844.99 233.658 1843.9 239.68 1847.62 L 240.057 1849.38 C 235.612 1853.77 228.307 1852.49 222.426 1852.28 L 222.617 1859.75 C 221.949 1878.5 230.752 1869.7 241.528 1871.47 C 243.552 1874.1 242.727 1872.66 242.666 1877.03 C 239.888 1879.26 219.11 1878.54 214.112 1878.55 C 213.8 1859.71 214.071 1840.14 214.069 1821.25 z"/>
<path transform="translate(0,0)" fill="rgb(250,254,253)" d="M 313.863 1837.08 C 331.668 1834.65 333.307 1845.32 333.925 1859.65 C 328.161 1859.74 315.408 1859.15 310.745 1860.77 L 309.816 1862.73 C 311.274 1871.37 319.541 1873.11 326.907 1872.12 C 330.194 1871.9 328.728 1871.57 331.519 1872.89 L 331.547 1874.98 C 325.344 1882.86 307.674 1880.1 304.233 1869.74 C 299.972 1856.91 301.868 1844.6 313.863 1837.08 z"/>
<path transform="translate(0,0)" fill="rgb(127,176,167)" d="M 317.874 1841.73 C 322.94 1843.48 326.129 1846.29 325.426 1851.8 C 322.712 1854.3 323.664 1853.52 319.183 1853.96 C 315.762 1853.87 315.308 1854.05 312.041 1852.83 C 310.158 1850.25 310.575 1851.68 310.978 1848.33 C 313.573 1844.55 314.018 1844.42 317.874 1841.73 z"/>
<path transform="translate(0,0)" fill="rgb(250,254,253)" d="M 377.524 1836.17 C 380.854 1836.57 381.202 1836.63 384.373 1837.69 C 387.371 1840.88 386.607 1839.1 387.345 1842.92 C 383.562 1847.63 381.107 1840.44 373.456 1844.5 C 371.86 1849.88 383.824 1857.37 386.916 1862.78 C 393.079 1873.55 383.84 1878.27 374.955 1879.51 C 371.066 1879.06 368.095 1879.31 365.11 1876.93 C 363.924 1873.58 364.052 1875.3 365.105 1871.6 L 366.83 1871.01 C 372.656 1872.72 374.496 1873.68 379.938 1870.78 C 382.233 1862.32 344.34 1843.58 377.524 1836.17 z"/>
<path transform="translate(0,0)" fill="rgb(250,254,253)" d="M 287.647 1826.8 C 290.984 1831.17 287.058 1833.44 290.534 1836.97 C 293.232 1836.85 295.198 1836.43 297.556 1837.64 C 298.052 1841.3 298.566 1839.82 296.899 1842.46 C 294.028 1843.02 292.77 1843.03 290.392 1844.78 C 288.277 1849.08 289.604 1864.36 290.415 1869.62 C 292.835 1872.44 292.673 1871.62 297.155 1872.71 C 298.571 1875.8 298.075 1875.03 297.572 1878.98 C 271.985 1880.63 284.753 1858.6 280.858 1844.21 C 278.323 1843.4 277.947 1843.57 276.123 1841.74 L 276.15 1839.03 C 282.813 1831.94 280.749 1829.71 287.647 1826.8 z"/>
<path transform="translate(0,0)" fill="rgb(250,254,253)" d="M 255.794 1837.15 C 262.367 1836.15 263.748 1836.39 270.137 1838.23 L 271.016 1841.33 C 267.272 1842.48 258.669 1844.46 256.587 1846.87 C 260.079 1854.87 289.948 1869.38 261.528 1879.13 C 257.207 1879.06 254.007 1879.34 249.966 1877.81 C 248.288 1875.45 248.383 1875.64 248.198 1872.75 C 252.958 1868.97 260.104 1876.35 265.095 1868.83 C 262.136 1858.72 236.038 1854 255.794 1837.15 z"/>
<path transform="translate(0,0)" fill="rgb(250,254,253)" d="M 341.316 1836.71 C 347.177 1837.39 344.539 1836.43 349.319 1840.52 L 353.591 1837.2 C 356.853 1836.85 358.434 1836.33 361.35 1837.78 L 361.22 1839.84 C 358.297 1843.74 355.088 1845.63 351.131 1848.49 C 349.453 1852.58 349.868 1857.2 349.825 1861.75 C 349.81 1867.02 350.461 1874.61 347.585 1878.79 C 340.089 1877.84 341.012 1868.19 340.956 1862.14 C 340.879 1853.72 341.165 1845.15 341.316 1836.71 z"/>
<path transform="translate(0,0)" fill="rgb(0,0,0)" d="M 316.952 1051.74 L 323.018 1051.88 C 322.387 1143.25 322.31 1234.62 322.785 1325.99 C 329.413 1324.66 334.888 1323.25 341.421 1321.47 L 319.496 1365.99 C 316.961 1358.16 299.648 1325.52 300.152 1322.78 C 303.321 1322.18 313.08 1325.48 316.88 1326.56 C 317.68 1234.95 317.704 1143.34 316.952 1051.74 z"/>
<path transform="translate(0,0)" fill="rgb(0,0,0)" d="M 1603.96 642.921 C 1606.62 637.008 1621.73 605.642 1622.61 602.069 C 1627.79 605.577 1640.48 635.959 1643.39 643.161 C 1637.17 641.363 1633.41 640.369 1627.04 639.25 C 1624.74 693.647 1626.17 756.509 1626.22 811.497 L 1626.29 880.004 C 1626.32 889.52 1625.94 906.183 1626.72 915.032 C 1624.95 914.447 1623.71 914.521 1621.77 914.372 C 1621.16 890.237 1621.8 864.571 1621.82 840.269 C 1622.33 773.332 1622.05 706.392 1621 639.461 C 1614.36 640.484 1610.43 641.172 1603.96 642.921 z"/>
<path transform="translate(0,0)" fill="rgb(0,0,0)" d="M 317.106 1512.74 L 322.869 1512.9 C 323.853 1561.3 321.57 1611.73 322.217 1660.35 C 322.506 1682.05 321.172 1707.92 323.191 1729.25 C 329.258 1727.71 335.304 1726.08 341.326 1724.37 C 334.794 1738.74 327.267 1753.01 320.553 1767.53 C 313.214 1754.14 305.782 1738.47 298.819 1724.68 C 304.379 1726.48 311.161 1728.21 316.872 1729.83 C 318.287 1708.74 317.423 1676.31 317.418 1654.59 L 317.106 1512.74 z"/>
<path transform="translate(0,0)" fill="rgb(0,0,0)" d="M 1733.68 1584.88 L 1739.43 1584.82 C 1738.88 1633.16 1738.75 1681.5 1739.03 1729.85 C 1744.9 1728.51 1751.42 1726.64 1757.31 1725.1 C 1752.33 1734.55 1740.02 1759.42 1737.22 1768.67 C 1729.77 1754.68 1720.94 1738.96 1714.27 1724.76 C 1719.42 1726.7 1728.02 1728.94 1733.54 1730.55 C 1735.32 1682.89 1731.92 1631.57 1733.68 1584.88 z"/>
<path transform="translate(0,0)" fill="rgb(14,77,80)" d="M 0 67.1035 C 35.7392 68.3191 72.7393 67.8231 108.569 67.8103 L 277.895 67.7017 L 797.676 67.7056 L 1113.55 67.7084 L 1206.27 67.6711 C 1219.65 67.6705 1244.72 68.3409 1256.96 67.0298 C 1250.09 83.2745 1241.17 98.979 1233.48 114.953 C 1208.77 166.297 1180.73 217.012 1155.83 268.206 L 375.1 268.283 L 124.623 268.388 C 84.3772 268.466 39.8679 267.405 0 268.864 L 0 67.1035 z M 815.817 200.937 C 810.656 174.376 803.058 148.142 796.045 122.014 L 783.071 121.966 C 782.312 143.704 780.293 165.393 779.324 187.102 C 778.941 195.707 777.743 208.876 778.48 217.097 C 781.969 218.63 781.881 218.461 785.486 218.042 C 787.466 216.575 788.193 216.408 788.344 213.489 C 789.562 189.94 789.595 166.424 792.345 142.973 C 794.612 155.275 806.697 206.485 810.958 215.614 C 814.204 217.831 815.589 218.081 819.223 215.958 C 821.819 209.133 825.209 192.198 826.998 184.293 C 830.24 169.961 835.19 153.453 837.73 139.241 L 837.901 153.752 C 838.096 161.961 840.357 213.361 841.713 217.061 C 844.794 218.594 846.481 217.989 850.276 217.883 L 851.69 217.054 C 852.186 208.36 850.243 184.919 849.505 174.982 C 848.344 159.346 848.158 137.049 846.059 122.036 L 834.046 121.823 C 828.45 140.467 818.148 182.503 815.817 200.937 z M 1001.95 218.259 L 1013.45 218.649 C 1013.29 211.138 1012.26 182.945 1013.76 176.964 C 1017.48 175.282 1022.05 176.287 1025.76 177.592 C 1031.04 182.281 1032.09 190.182 1033.22 197.294 C 1034.65 204.27 1036.08 212.166 1037.9 218.962 L 1050.37 218.716 C 1047.14 206.652 1044.44 194.838 1041.89 182.618 C 1041.03 178.489 1038.79 176.691 1035.75 173.696 L 1035.32 171.416 C 1042.93 163.28 1048.04 157.348 1047.21 144.893 C 1045.74 122.761 1025.81 120.655 1007.95 121.995 L 1006.43 122.121 C 1004.75 122.898 1002.5 123.45 1002.43 124.609 C 1000.9 152.601 1001.99 190.921 1001.95 218.259 z M 198.824 120.109 C 169.844 127.245 169.229 169.12 174.699 192.734 C 178.532 209.279 187.13 219.518 204.558 219.518 C 224.231 212.754 228.233 192.357 228.865 174.009 C 229.575 153.422 226.764 119.116 198.824 120.109 z M 242.524 123.713 C 243.368 155.284 242.308 186.963 243.02 218.343 L 253.944 218.171 L 254.059 176.751 C 272.092 177.332 271.647 180.795 274.788 197.781 C 276.432 211.595 274.45 219.418 290.268 218.315 C 287.137 202.717 285.562 181.37 272.744 172.17 C 299.132 155.081 291.997 118.116 255.791 121.307 C 250.769 122.008 247.508 122.51 242.524 123.713 z M 428.501 218.57 L 439.661 218.543 C 438.592 191.84 439.137 165.705 437.874 138.679 C 440.852 148.275 465.498 215.364 469.695 218.747 L 470.869 218.922 C 474.01 218.842 477.158 219.211 479.659 217.59 C 479.754 206.774 480.527 128.117 478.181 122.285 C 474.312 120.899 476.249 121.07 472.144 121.844 C 469.509 124.356 468.702 125.407 468.784 129.58 C 469.236 152.54 469.128 175.713 469.559 198.658 C 465.887 188.706 443.197 126.826 438.618 121.921 C 434.548 120.916 433.494 121.188 429.206 121.46 C 427.775 124.205 429.252 207.453 428.501 218.57 z M 739.857 131.68 C 747.087 131.883 758.548 132.943 765.038 130.506 C 766.74 127.657 766.043 127.405 765.877 123.367 C 763.876 121.38 758.369 121.597 755.362 121.618 L 728.104 121.924 C 728.121 150.519 726.826 190.852 728.69 218.148 C 736.77 218.211 762.783 219.61 767.843 216.591 C 768.075 211.85 768.613 213.923 766.715 210.018 C 760.665 205.925 747.888 208.276 739.779 208.619 L 739.743 194.089 L 739.918 172.476 L 764.422 172.477 L 764.676 162.145 L 740.175 161.926 C 739.996 151.845 739.889 141.763 739.857 131.68 z M 866.964 121.846 C 867.004 131.587 866.264 214.333 869.3 217.734 C 873.12 218.112 875.073 218.236 878.9 218.167 C 878.901 186.306 879.379 153.689 879.041 121.897 L 866.964 121.846 z M 1052.67 122.001 C 1059.28 138.939 1070.72 164.01 1074.14 180.851 C 1075.02 185.176 1074.51 212.108 1074.77 219.003 C 1078.27 219.025 1082.18 219.455 1085.17 217.919 C 1087.68 209.179 1085.2 188.08 1086.36 178.204 C 1086.92 173.432 1090.5 164.958 1092.49 160.251 C 1097.68 147.649 1102.88 134.446 1108.23 121.96 L 1096.29 121.869 C 1090.97 136.504 1085.88 151.228 1081.05 166.034 C 1076.14 156.552 1068.31 132.967 1065.3 122.075 L 1052.67 122.001 z M 913.533 121.108 C 906.262 123.769 899.733 126.358 896.309 134.053 C 880.271 170.096 935.44 170.404 923.131 201.695 C 917.127 216.958 897.552 203.394 894.335 206.59 C 893.489 210.589 893.371 210.423 894.351 214.309 C 898.305 219.87 907.606 219.25 914.025 219.142 C 931.66 214.886 939.648 202.646 936.141 184.283 C 932.591 165.699 896.389 160.069 907.407 136.766 C 911.948 127.117 925.173 133.562 931.085 130.817 C 932.548 127.799 932.062 128.644 931.54 124.7 C 927.249 120.502 919.292 120.928 913.533 121.108 z M 699.186 121.9 C 699.543 135.487 699.179 149.249 699.572 162.627 L 672.036 162.556 C 671.989 149.905 672.315 134.487 671.643 122.074 L 659.967 121.903 C 660.024 152.561 659.275 187.798 660.605 218.085 C 663.974 218.07 668.612 218.449 671.412 217.019 C 672.666 210.047 672.052 181.099 672.051 172.168 C 681.284 172.253 690.518 172.289 699.752 172.277 C 699.764 186.758 700.188 203.657 699.582 217.944 L 710.968 218.118 C 711.149 186.017 711.144 153.916 710.954 121.815 L 699.186 121.9 z M 556.772 130.505 C 562.96 131.939 565.645 133.816 570.493 128.769 C 570.993 119.258 556.256 120.877 550.324 121.187 C 538.999 125.973 530.652 132.766 526.413 144.92 C 518.359 168.011 520.012 208.557 547.147 218.034 C 551.089 219.41 568.92 221.913 569.615 214.657 C 569.733 213.427 569.121 209.006 568.928 207.503 C 559.652 208.667 553.571 210.911 545.782 204.334 C 537.958 197.729 534.77 186.966 534.321 177.099 C 533.451 157.966 535.409 136.505 556.772 130.505 z M 382.657 121.304 C 377.79 138.642 374.071 159.33 369.981 177.097 C 367.415 188.244 362.757 206.292 361.632 216.777 C 364.344 219.631 369.149 218.534 371.984 216.13 C 373.977 207.448 375.86 198.741 377.634 190.012 L 397.25 190.041 L 399.624 190.454 C 406.013 201.649 396.43 220.11 417.122 218.395 C 410.366 185.94 402.949 153.627 394.875 121.476 L 382.657 121.304 z M 496.9 121.862 L 496.957 218.793 L 508.544 218.467 C 507.561 189.431 507.997 150.977 508.681 121.886 L 496.9 121.862 z M 630.242 121.132 C 626.307 122.288 621.763 123.476 618.431 125.862 C 587.688 147.882 595.403 231.811 645.731 218.239 C 648.353 215.412 647.778 214.257 647.504 210.251 L 646.347 208.3 C 639.329 208.579 625.992 209.086 621.19 203.131 C 609.034 188.055 609.96 150.432 622.829 135.97 C 629.026 129.006 644.494 134.746 648.944 127.222 L 648.596 124.038 C 644.491 121.24 635.141 120.856 630.242 121.132 z M 972.109 131.114 C 977.137 131.497 985.417 132.599 989.629 130.162 C 990.368 126.781 990.128 126.339 989.774 122.96 C 983.902 120.743 951.614 122.062 942.89 121.875 C 942.881 126.908 942.09 126.894 944.24 130.605 C 948.621 132.906 955.092 131.332 960.964 131.504 C 960.967 140.806 960.617 214.11 962.225 217.286 C 966.396 217.9 967.609 218.291 971.684 217.682 C 972.675 213.368 972.259 208.734 972.152 204.25 L 972.109 131.114 z M 328.601 121.095 C 317.366 125.167 309.217 129.783 304.28 141.559 C 290.861 173.56 299.987 231.585 347.516 217.087 C 354.2 215.048 351.679 175.677 351.607 167.74 L 332.75 167.924 C 331.623 168.05 329.162 168.199 328.103 168.618 L 327.107 171.432 C 330.449 177.582 334.498 177.142 340.793 177.492 C 340.93 184.819 341.805 201.375 340.226 207.41 C 338.068 209.333 336.172 210.05 333.25 209.864 C 306.571 208.157 303.23 151.682 320.166 137.133 C 329.992 128.691 346.63 133.773 349.074 131.143 C 349.546 126.337 350.109 127.52 348.296 123.712 C 343.076 120.208 334.906 120.652 328.601 121.095 z"/>
<path transform="translate(0,0)" fill="rgb(14,77,80)" d="M 200.885 130.24 C 222.569 135.095 219.201 181.658 213.276 197.649 C 210.495 205.153 208.587 207.614 201.565 210.815 L 201.061 210.656 C 192.883 208.137 189.757 204.113 187.169 195.627 C 182.045 178.829 179.928 136.479 200.885 130.24 z"/>
<path transform="translate(0,0)" fill="rgb(14,77,80)" d="M 1013.09 130.268 C 1019.27 129.951 1023.68 129.296 1028.75 133.108 C 1032.87 136.152 1035.55 140.772 1036.14 145.864 C 1036.92 152.915 1034.44 159.298 1030.14 164.735 C 1023.58 167.724 1020.03 167.303 1012.8 167.666 C 1012.56 156.79 1011.69 140.644 1013.09 130.268 z"/>
<path transform="translate(0,0)" fill="rgb(14,77,80)" d="M 254.936 130.311 C 277.722 129.313 282.305 147.428 271.378 164.056 C 268.454 165.585 254.698 170.158 254.525 165.094 C 254.289 158.175 252.703 135.704 254.936 130.311 z"/>
<path transform="translate(0,0)" fill="rgb(14,77,80)" d="M 388.196 137.643 C 391.008 140.499 396.72 174.345 397.709 180.308 L 390.666 180.504 L 380.09 180.364 C 382.565 166.758 385.088 150.93 388.196 137.643 z"/>
</svg>